STARTFONT 2.1
FONT -Adobe-Helvetica-Bold-R-Normal--20-140-100-100-P-105-ISO10646-1
SIZE 14 100 100
FONTBOUNDINGBOX 22 29 -2 -7
COMMENT ISO10646-1 extension by Markus Kuhn <mkuhn@acm.org>, 2001-03-20
COMMENT 
COMMENT +
COMMENT  Copyright 1984-1989, 1994 Adobe Systems Incorporated.
COMMENT  Copyright 1988, 1994 Digital Equipment Corporation.
COMMENT
COMMENT  Adobe is a trademark of Adobe Systems Incorporated which may be
COMMENT  registered in certain jurisdictions.
COMMENT  Permission to use these trademarks is hereby granted only in
COMMENT  association with the images described in this file.
COMMENT
COMMENT  Permission to use, copy, modify, distribute and sell this software
COMMENT  and its documentation for any purpose and without fee is hereby
COMMENT  granted, provided that the above copyright notices appear in all
COMMENT  copies and that both those copyright notices and this permission
COMMENT  notice appear in supporting documentation, and that the names of
COMMENT  Adobe Systems and Digital Equipment Corporation not be used in
COMMENT  advertising or publicity pertaining to distribution of the software
COMMENT  without specific, written prior permission.  Adobe Systems and
COMMENT  Digital Equipment Corporation make no representations about the
COMMENT  suitability of this software for any purpose.  It is provided "as
COMMENT  is" without express or implied warranty.
COMMENT -
STARTPROPERTIES 26
FOUNDRY "Adobe"
FAMILY_NAME "Helvetica"
WEIGHT_NAME "Bold"
SLANT "R"
SETWIDTH_NAME "Normal"
ADD_STYLE_NAME ""
PIXEL_SIZE 20
POINT_SIZE 140
RESOLUTION_X 100
RESOLUTION_Y 100
SPACING "P"
AVERAGE_WIDTH 105
CHARSET_REGISTRY "ISO10646"
CHARSET_ENCODING "1"
CAP_HEIGHT 14
X_HEIGHT 10
FONT_ASCENT 16
FONT_DESCENT 5
FACE_NAME "Helvetica Bold"
COPYRIGHT "Copyright (c) 1984, 1987 Adobe Systems Incorporated. All Rights Reserved. Copyright (c) 1988, 1991 Digital Equipment Corporation. All Rights Reserved."

STARTCHAR char0
ENCODING 0
SWIDTH 722 0
DWIDTH 14 0
BBX 11 13 1 0
BITMAP
AAA0
0000
8020
0000
8020
0000
8020
0000
8020
0000
8020
0000
AAA0
ENDCHAR
STARTCHAR space
ENCODING 32
SWIDTH 278 0
DWIDTH 5 0
BBX 1 1 0 0
BITMAP
00
ENDCHAR
STARTCHAR exclam
ENCODING 33
SWIDTH 333 0
DWIDTH 5 0
BBX 3 14 1 0
BITMAP
E0
E0
E0
E0
E0
E0
E0
E0
C0
C0
00
E0
E0
E0
ENDCHAR
STARTCHAR quotedbl
ENCODING 34
SWIDTH 474 0
DWIDTH 7 0
BBX 5 5 1 9
BITMAP
D8
D8
D8
D8
90
ENDCHAR
STARTCHAR numbersign
ENCODING 35
SWIDTH 556 0
DWIDTH 11 0
BBX 11 13 0 0
BITMAP
0D80
0D80
0D80
7FE0
7FE0
1B00
1B00
1B00
FFC0
FFC0
3600
3600
3600
ENDCHAR
STARTCHAR dollar
ENCODING 36
SWIDTH 556 0
DWIDTH 10 0
BBX 10 16 0 -2
BITMAP
0400
3F00
7F80
E580
E400
E400
7C00
3F00
0F80
09C0
E9C0
E9C0
7F80
3F00
0800
0800
ENDCHAR
STARTCHAR percent
ENCODING 37
SWIDTH 889 0
DWIDTH 16 0
BBX 13 13 1 0
BITMAP
7860
FC60
CCC0
CC80
FD80
7B00
0200
06F0
0DF8
0998
1998
31F8
30F0
ENDCHAR
STARTCHAR ampersand
ENCODING 38
SWIDTH 722 0
DWIDTH 14 0
BBX 13 14 1 0
BITMAP
1E00
3F00
7380
6180
7300
3E00
1C60
7E60
E7E0
C3C0
C1C0
E3E0
7F70
3E38
ENDCHAR
STARTCHAR quotesingle
ENCODING 39
SWIDTH 238 0
DWIDTH 4 0
BBX 2 5 1 9
BITMAP
C0
C0
C0
C0
80
ENDCHAR
STARTCHAR parenleft
ENCODING 40
SWIDTH 333 0
DWIDTH 7 0
BBX 6 18 1 -4
BITMAP
1C
38
30
70
60
E0
E0
E0
E0
E0
E0
E0
E0
60
70
30
38
1C
ENDCHAR
STARTCHAR parenright
ENCODING 41
SWIDTH 333 0
DWIDTH 7 0
BBX 6 18 0 -4
BITMAP
E0
70
30
38
18
1C
1C
1C
1C
1C
1C
1C
1C
18
38
30
70
E0
ENDCHAR
STARTCHAR asterisk
ENCODING 42
SWIDTH 389 0
DWIDTH 9 0
BBX 7 6 1 8
BITMAP
10
D6
7C
38
6C
44
ENDCHAR
STARTCHAR plus
ENCODING 43
SWIDTH 584 0
DWIDTH 11 0
BBX 8 8 1 1
BITMAP
18
18
18
FF
FF
18
18
18
ENDCHAR
STARTCHAR comma
ENCODING 44
SWIDTH 278 0
DWIDTH 5 0
BBX 3 6 1 -3
BITMAP
E0
E0
E0
60
C0
80
ENDCHAR
STARTCHAR hyphen
ENCODING 45
SWIDTH 333 0
DWIDTH 6 0
BBX 5 3 0 4
BITMAP
F8
F8
F8
ENDCHAR
STARTCHAR period
ENCODING 46
SWIDTH 278 0
DWIDTH 5 0
BBX 3 3 1 0
BITMAP
E0
E0
E0
ENDCHAR
STARTCHAR slash
ENCODING 47
SWIDTH 278 0
DWIDTH 5 0
BBX 5 14 0 0
BITMAP
18
18
18
38
30
30
30
70
60
60
E0
C0
C0
C0
ENDCHAR
STARTCHAR zero
ENCODING 48
SWIDTH 556 0
DWIDTH 10 0
BBX 9 13 0 0
BITMAP
1C00
7F00
7700
E380
E380
E380
E380
E380
E380
E380
7700
7F00
1C00
ENDCHAR
STARTCHAR one
ENCODING 49
SWIDTH 556 0
DWIDTH 10 0
BBX 6 13 1 0
BITMAP
1C
3C
FC
FC
1C
1C
1C
1C
1C
1C
1C
1C
1C
ENDCHAR
STARTCHAR two
ENCODING 50
SWIDTH 556 0
DWIDTH 10 0
BBX 9 13 0 0
BITMAP
3E00
7F00
E380
E380
0380
0700
1F00
3E00
7800
7000
E000
FF80
FF80
ENDCHAR
STARTCHAR three
ENCODING 51
SWIDTH 556 0
DWIDTH 10 0
BBX 9 13 0 0
BITMAP
3E00
7F00
E700
E300
0700
1E00
1F00
0780
0380
E380
E780
7F00
3E00
ENDCHAR
STARTCHAR four
ENCODING 52
SWIDTH 556 0
DWIDTH 10 0
BBX 9 13 0 0
BITMAP
0700
0F00
1F00
3F00
3700
7700
6700
E700
FF80
FF80
0700
0700
0700
ENDCHAR
STARTCHAR five
ENCODING 53
SWIDTH 556 0
DWIDTH 10 0
BBX 9 13 0 0
BITMAP
FF00
FF00
E000
E000
FE00
FF00
E780
0380
0380
E380
E780
FF00
7E00
ENDCHAR
STARTCHAR six
ENCODING 54
SWIDTH 556 0
DWIDTH 10 0
BBX 9 13 0 0
BITMAP
3F00
7F80
7180
E000
EE00
FF00
F380
E180
E180
E180
F380
7F00
3E00
ENDCHAR
STARTCHAR seven
ENCODING 55
SWIDTH 556 0
DWIDTH 10 0
BBX 9 13 0 0
BITMAP
FF80
FF80
0380
0700
0E00
0E00
1C00
1C00
3800
3800
7000
7000
7000
ENDCHAR
STARTCHAR eight
ENCODING 56
SWIDTH 556 0
DWIDTH 10 0
BBX 9 13 0 0
BITMAP
3E00
7F00
E380
E380
E380
7F00
3E00
7700
E380
E380
E380
7F00
3E00
ENDCHAR
STARTCHAR nine
ENCODING 57
SWIDTH 556 0
DWIDTH 10 0
BBX 9 13 0 0
BITMAP
3E00
7F00
E780
C380
C380
C380
E780
7F80
3B80
0380
C700
FF00
7E00
ENDCHAR
STARTCHAR colon
ENCODING 58
SWIDTH 333 0
DWIDTH 6 0
BBX 3 10 1 0
BITMAP
E0
E0
E0
00
00
00
00
E0
E0
E0
ENDCHAR
STARTCHAR semicolon
ENCODING 59
SWIDTH 333 0
DWIDTH 6 0
BBX 3 13 1 -3
BITMAP
E0
E0
E0
00
00
00
00
E0
E0
E0
60
C0
80
ENDCHAR
STARTCHAR less
ENCODING 60
SWIDTH 584 0
DWIDTH 11 0
BBX 9 9 1 0
BITMAP
0380
0F80
3E00
7800
E000
7800
3E00
0F80
0380
ENDCHAR
STARTCHAR equal
ENCODING 61
SWIDTH 584 0
DWIDTH 11 0
BBX 9 5 1 3
BITMAP
FF80
FF80
0000
FF80
FF80
ENDCHAR
STARTCHAR greater
ENCODING 62
SWIDTH 584 0
DWIDTH 11 0
BBX 9 9 1 0
BITMAP
E000
F800
3E00
0F00
0380
0F00
3E00
F800
E000
ENDCHAR
STARTCHAR question
ENCODING 63
SWIDTH 611 0
DWIDTH 10 0
BBX 8 14 1 0
BITMAP
7E
FF
E7
E7
0E
1E
1C
38
38
38
00
38
38
38
ENDCHAR
STARTCHAR at
ENCODING 64
SWIDTH 975 0
DWIDTH 18 0
BBX 16 17 1 -3
BITMAP
07F0
1FFC
3C1E
7006
63B7
E7F3
C663
CC63
CCC3
CCC6
CCC6
EFFC
E7B8
7000
3C00
1FF0
07F0
ENDCHAR
STARTCHAR A
ENCODING 65
SWIDTH 722 0
DWIDTH 14 0
BBX 12 14 1 0
BITMAP
0F00
0F00
1F80
1980
1980
39C0
39C0
30C0
70E0
7FE0
7FE0
E070
E070
E070
ENDCHAR
STARTCHAR B
ENCODING 66
SWIDTH 722 0
DWIDTH 14 0
BBX 11 14 2 0
BITMAP
FE00
FF80
E3C0
E1C0
E1C0
E380
FF80
FFC0
E1E0
E0E0
E0E0
E1E0
FFC0
FF00
ENDCHAR
STARTCHAR C
ENCODING 67
SWIDTH 722 0
DWIDTH 14 0
BBX 12 14 1 0
BITMAP
0F80
3FE0
78E0
7070
F070
E000
E000
E000
E000
F070
7070
78E0
3FE0
0F80
ENDCHAR
STARTCHAR D
ENCODING 68
SWIDTH 722 0
DWIDTH 14 0
BBX 12 14 1 0
BITMAP
FF00
FFC0
E1E0
E0E0
E070
E070
E070
E070
E070
E070
E0E0
E1E0
FFC0
FF00
ENDCHAR
STARTCHAR E
ENCODING 69
SWIDTH 667 0
DWIDTH 13 0
BBX 10 14 2 0
BITMAP
FFC0
FFC0
E000
E000
E000
E000
FF80
FF80
E000
E000
E000
E000
FFC0
FFC0
ENDCHAR
STARTCHAR F
ENCODING 70
SWIDTH 611 0
DWIDTH 12 0
BBX 10 14 1 0
BITMAP
FFC0
FFC0
E000
E000
E000
E000
FF80
FF80
E000
E000
E000
E000
E000
E000
ENDCHAR
STARTCHAR G
ENCODING 71
SWIDTH 778 0
DWIDTH 15 0
BBX 12 14 1 0
BITMAP
0F80
3FE0
78E0
7070
F070
E000
E000
E3F0
E3F0
F070
7070
78F0
3FF0
1FB0
ENDCHAR
STARTCHAR H
ENCODING 72
SWIDTH 722 0
DWIDTH 14 0
BBX 12 14 1 0
BITMAP
E070
E070
E070
E070
E070
E070
FFF0
FFF0
E070
E070
E070
E070
E070
E070
ENDCHAR
STARTCHAR I
ENCODING 73
SWIDTH 278 0
DWIDTH 5 0
BBX 3 14 1 0
BITMAP
E0
E0
E0
E0
E0
E0
E0
E0
E0
E0
E0
E0
E0
E0
ENDCHAR
STARTCHAR J
ENCODING 74
SWIDTH 556 0
DWIDTH 10 0
BBX 9 14 0 0
BITMAP
0380
0380
0380
0380
0380
0380
0380
0380
0380
E380
E380
F780
7F00
3E00
ENDCHAR
STARTCHAR K
ENCODING 75
SWIDTH 722 0
DWIDTH 14 0
BBX 13 14 1 0
BITMAP
E0F0
E1E0
E3C0
E780
EF00
FE00
FC00
FE00
EF00
E780
E3C0
E1E0
E0F0
E078
ENDCHAR
STARTCHAR L
ENCODING 76
SWIDTH 611 0
DWIDTH 11 0
BBX 9 14 1 0
BITMAP
E000
E000
E000
E000
E000
E000
E000
E000
E000
E000
E000
E000
FF80
FF80
ENDCHAR
STARTCHAR M
ENCODING 77
SWIDTH 833 0
DWIDTH 16 0
BBX 14 14 1 0
BITMAP
E01C
E01C
F03C
F03C
F87C
F87C
F87C
ECDC
ECDC
ECDC
E79C
E79C
E31C
E31C
ENDCHAR
STARTCHAR N
ENCODING 78
SWIDTH 722 0
DWIDTH 14 0
BBX 12 14 1 0
BITMAP
E070
F070
F070
F870
FC70
EC70
EE70
E670
E770
E370
E1F0
E1F0
E0F0
E070
ENDCHAR
STARTCHAR O
ENCODING 79
SWIDTH 778 0
DWIDTH 15 0
BBX 13 14 1 0
BITMAP
0F80
3FE0
78F0
7070
F078
E038
E038
E038
E038
F078
7070
78F0
3FE0
0F80
ENDCHAR
STARTCHAR P
ENCODING 80
SWIDTH 667 0
DWIDTH 13 0
BBX 11 14 1 0
BITMAP
FF00
FFC0
E1E0
E0E0
E0E0
E0E0
E1E0
FFC0
FF00
E000
E000
E000
E000
E000
ENDCHAR
STARTCHAR Q
ENCODING 81
SWIDTH 778 0
DWIDTH 15 0
BBX 13 15 1 -1
BITMAP
0F80
3FE0
78F0
7070
F078
E038
E038
E038
E038
F378
73F0
79F0
3FE0
0FF0
0030
ENDCHAR
STARTCHAR R
ENCODING 82
SWIDTH 722 0
DWIDTH 14 0
BBX 12 14 1 0
BITMAP
FF00
FFC0
E1E0
E0E0
E0E0
E1E0
FFC0
FF80
E1C0
E0E0
E0E0
E0E0
E0E0
E0F0
ENDCHAR
STARTCHAR S
ENCODING 83
SWIDTH 667 0
DWIDTH 13 0
BBX 11 14 1 0
BITMAP
3F80
7FC0
F1E0
E0E0
F000
7E00
3F80
0FC0
01E0
E0E0
E0E0
F1E0
7FC0
3F80
ENDCHAR
STARTCHAR T
ENCODING 84
SWIDTH 611 0
DWIDTH 11 0
BBX 11 14 0 0
BITMAP
FFE0
FFE0
0E00
0E00
0E00
0E00
0E00
0E00
0E00
0E00
0E00
0E00
0E00
0E00
ENDCHAR
STARTCHAR U
ENCODING 85
SWIDTH 722 0
DWIDTH 14 0
BBX 12 14 1 0
BITMAP
E070
E070
E070
E070
E070
E070
E070
E070
E070
E070
E070
70E0
7FE0
1F80
ENDCHAR
STARTCHAR V
ENCODING 86
SWIDTH 667 0
DWIDTH 13 0
BBX 13 14 0 0
BITMAP
E038
E038
7070
7070
3060
38E0
38E0
1DC0
1DC0
0D80
0F80
0F80
0700
0700
ENDCHAR
STARTCHAR W
ENCODING 87
SWIDTH 944 0
DWIDTH 17 0
BBX 15 14 1 0
BITMAP
E38E
E38E
E38E
E38E
739C
739C
739C
76DC
36D8
36D8
3EF8
1C70
1C70
1C70
ENDCHAR
STARTCHAR X
ENCODING 88
SWIDTH 667 0
DWIDTH 12 0
BBX 12 14 0 0
BITMAP
E070
E070
70E0
79E0
1980
1F80
0F00
1F80
1980
39C0
70E0
70E0
E070
E070
ENDCHAR
STARTCHAR Y
ENCODING 89
SWIDTH 667 0
DWIDTH 13 0
BBX 13 14 0 0
BITMAP
E038
E038
7070
38E0
38E0
1DC0
1DC0
0F80
0700
0700
0700
0700
0700
0700
ENDCHAR
STARTCHAR Z
ENCODING 90
SWIDTH 611 0
DWIDTH 12 0
BBX 10 14 1 0
BITMAP
FFC0
FFC0
01C0
0380
0700
0700
0E00
1C00
3800
3800
7000
E000
FFC0
FFC0
ENDCHAR
STARTCHAR bracketleft
ENCODING 91
SWIDTH 333 0
DWIDTH 6 0
BBX 5 18 1 -4
BITMAP
F8
F8
E0
E0
E0
E0
E0
E0
E0
E0
E0
E0
E0
E0
E0
E0
F8
F8
ENDCHAR
STARTCHAR backslash
ENCODING 92
SWIDTH 278 0
DWIDTH 5 0
BBX 5 14 0 0
BITMAP
C0
C0
C0
E0
60
60
60
70
30
30
38
18
18
18
ENDCHAR
STARTCHAR bracketright
ENCODING 93
SWIDTH 333 0
DWIDTH 6 0
BBX 5 18 0 -4
BITMAP
F8
F8
38
38
38
38
38
38
38
38
38
38
38
38
38
38
F8
F8
ENDCHAR
STARTCHAR asciicircum
ENCODING 94
SWIDTH 584 0
DWIDTH 10 0
BBX 10 7 0 6
BITMAP
0C00
1E00
1E00
3300
7380
6180
E1C0
ENDCHAR
STARTCHAR underscore
ENCODING 95
SWIDTH 556 0
DWIDTH 10 0
BBX 10 2 0 -4
BITMAP
FFC0
FFC0
ENDCHAR
STARTCHAR grave
ENCODING 96
SWIDTH 333 0
DWIDTH 5 0
BBX 5 3 0 11
BITMAP
E0
70
38
ENDCHAR
STARTCHAR a
ENCODING 97
SWIDTH 556 0
DWIDTH 11 0
BBX 10 10 1 0
BITMAP
3E00
7F00
6380
0780
3F80
7B80
E380
E780
FB80
7BC0
ENDCHAR
STARTCHAR b
ENCODING 98
SWIDTH 611 0
DWIDTH 12 0
BBX 10 14 1 0
BITMAP
E000
E000
E000
E000
EF00
FF80
F380
E1C0
E1C0
E1C0
E1C0
F380
FF80
EF00
ENDCHAR
STARTCHAR c
ENCODING 99
SWIDTH 556 0
DWIDTH 11 0
BBX 9 10 1 0
BITMAP
1E00
7F80
7380
E000
E000
E000
E000
7380
7F80
1E00
ENDCHAR
STARTCHAR d
ENCODING 100
SWIDTH 611 0
DWIDTH 12 0
BBX 10 14 1 0
BITMAP
01C0
01C0
01C0
01C0
3DC0
7FC0
73C0
E1C0
E1C0
E1C0
E1C0
73C0
7FC0
3DC0
ENDCHAR
STARTCHAR e
ENCODING 101
SWIDTH 556 0
DWIDTH 11 0
BBX 9 10 1 0
BITMAP
1E00
7F00
7380
E180
FF80
FF80
E000
7380
7F80
1E00
ENDCHAR
STARTCHAR f
ENCODING 102
SWIDTH 333 0
DWIDTH 7 0
BBX 7 14 0 0
BITMAP
1E
3E
38
38
FE
FE
38
38
38
38
38
38
38
38
ENDCHAR
STARTCHAR g
ENCODING 103
SWIDTH 611 0
DWIDTH 12 0
BBX 10 14 1 -4
BITMAP
3DC0
7FC0
73C0
E1C0
E1C0
E1C0
E1C0
73C0
7FC0
3DC0
01C0
7380
7F80
1E00
ENDCHAR
STARTCHAR h
ENCODING 104
SWIDTH 611 0
DWIDTH 11 0
BBX 9 14 1 0
BITMAP
E000
E000
E000
E000
EF00
FF80
F380
E380
E380
E380
E380
E380
E380
E380
ENDCHAR
STARTCHAR i
ENCODING 105
SWIDTH 278 0
DWIDTH 5 0
BBX 3 14 1 0
BITMAP
E0
E0
E0
00
E0
E0
E0
E0
E0
E0
E0
E0
E0
E0
ENDCHAR
STARTCHAR j
ENCODING 106
SWIDTH 278 0
DWIDTH 5 0
BBX 5 18 -1 -4
BITMAP
38
38
38
00
38
38
38
38
38
38
38
38
38
38
38
38
F8
F0
ENDCHAR
STARTCHAR k
ENCODING 107
SWIDTH 556 0
DWIDTH 10 0
BBX 9 14 1 0
BITMAP
E000
E000
E000
E000
E700
EE00
FC00
F800
F800
FC00
EE00
E700
E780
E380
ENDCHAR
STARTCHAR l
ENCODING 108
SWIDTH 278 0
DWIDTH 5 0
BBX 3 14 1 0
BITMAP
E0
E0
E0
E0
E0
E0
E0
E0
E0
E0
E0
E0
E0
E0
ENDCHAR
STARTCHAR m
ENCODING 109
SWIDTH 889 0
DWIDTH 17 0
BBX 15 10 1 0
BITMAP
EF3C
FFFE
F3CE
E38E
E38E
E38E
E38E
E38E
E38E
E38E
ENDCHAR
STARTCHAR n
ENCODING 110
SWIDTH 611 0
DWIDTH 11 0
BBX 9 10 1 0
BITMAP
EF00
FF80
F380
E380
E380
E380
E380
E380
E380
E380
ENDCHAR
STARTCHAR o
ENCODING 111
SWIDTH 611 0
DWIDTH 12 0
BBX 10 10 1 0
BITMAP
1E00
7F80
7380
E1C0
E1C0
E1C0
E1C0
7380
7F80
1E00
ENDCHAR
STARTCHAR p
ENCODING 112
SWIDTH 611 0
DWIDTH 12 0
BBX 10 14 1 -4
BITMAP
EF00
FF80
F380
E1C0
E1C0
E1C0
E1C0
F380
FF80
EF00
E000
E000
E000
E000
ENDCHAR
STARTCHAR q
ENCODING 113
SWIDTH 611 0
DWIDTH 12 0
BBX 10 14 1 -4
BITMAP
3DC0
7FC0
73C0
E1C0
E1C0
E1C0
E1C0
73C0
7FC0
3DC0
01C0
01C0
01C0
01C0
ENDCHAR
STARTCHAR r
ENCODING 114
SWIDTH 389 0
DWIDTH 7 0
BBX 6 10 1 0
BITMAP
EC
FC
FC
E0
E0
E0
E0
E0
E0
E0
ENDCHAR
STARTCHAR s
ENCODING 115
SWIDTH 556 0
DWIDTH 11 0
BBX 9 10 1 0
BITMAP
3F00
7F80
E380
E000
FF00
3F80
0380
E380
FF00
7E00
ENDCHAR
STARTCHAR t
ENCODING 116
SWIDTH 333 0
DWIDTH 6 0
BBX 6 13 0 0
BITMAP
70
70
70
FC
FC
70
70
70
70
70
70
7C
3C
ENDCHAR
STARTCHAR u
ENCODING 117
SWIDTH 611 0
DWIDTH 11 0
BBX 9 10 1 0
BITMAP
E380
E380
E380
E380
E380
E380
E380
E780
FF80
7B80
ENDCHAR
STARTCHAR v
ENCODING 118
SWIDTH 556 0
DWIDTH 9 0
BBX 9 10 0 0
BITMAP
E380
E380
E380
7700
7700
7700
3E00
3E00
1C00
1C00
ENDCHAR
STARTCHAR w
ENCODING 119
SWIDTH 778 0
DWIDTH 15 0
BBX 15 10 0 0
BITMAP
E38E
E38E
E38E
739C
77DC
76DC
3EF8
3C78
1C70
1C70
ENDCHAR
STARTCHAR x
ENCODING 120
SWIDTH 556 0
DWIDTH 11 0
BBX 9 10 1 0
BITMAP
E380
E380
7700
3E00
1C00
3E00
7700
7700
E380
E380
ENDCHAR
STARTCHAR y
ENCODING 121
SWIDTH 556 0
DWIDTH 11 0
BBX 9 14 1 -4
BITMAP
E380
E380
E380
7700
7700
7700
3E00
3E00
1C00
1C00
1C00
1800
7800
7000
ENDCHAR
STARTCHAR z
ENCODING 122
SWIDTH 500 0
DWIDTH 10 0
BBX 8 10 1 0
BITMAP
FF
FF
07
0E
1C
38
70
E0
FF
FF
ENDCHAR
STARTCHAR braceleft
ENCODING 123
SWIDTH 389 0
DWIDTH 8 0
BBX 7 18 1 -4
BITMAP
0E
1C
38
38
38
38
38
70
E0
70
38
38
38
38
38
38
1C
0E
ENDCHAR
STARTCHAR bar
ENCODING 124
SWIDTH 280 0
DWIDTH 5 0
BBX 2 18 1 -4
BITMAP
C0
C0
C0
C0
C0
C0
C0
C0
C0
C0
C0
C0
C0
C0
C0
C0
C0
C0
ENDCHAR
STARTCHAR braceright
ENCODING 125
SWIDTH 389 0
DWIDTH 8 0
BBX 7 18 0 -4
BITMAP
E0
70
38
38
38
38
38
1C
0E
1C
38
38
38
38
38
38
70
E0
ENDCHAR
STARTCHAR asciitilde
ENCODING 126
SWIDTH 584 0
DWIDTH 11 0
BBX 9 3 1 4
BITMAP
7980
FF80
CF00
ENDCHAR
STARTCHAR space
ENCODING 160
SWIDTH 278 0
DWIDTH 5 0
BBX 1 1 0 0
BITMAP
00
ENDCHAR
STARTCHAR exclamdown
ENCODING 161
SWIDTH 333 0
DWIDTH 6 0
BBX 3 14 2 -4
BITMAP
E0
E0
E0
00
60
60
E0
E0
E0
E0
E0
E0
E0
E0
ENDCHAR
STARTCHAR cent
ENCODING 162
SWIDTH 556 0
DWIDTH 10 0
BBX 8 14 1 -2
BITMAP
02
02
3E
7F
E7
C8
C8
D0
D0
E3
7F
7E
40
40
ENDCHAR
STARTCHAR sterling
ENCODING 163
SWIDTH 556 0
DWIDTH 11 0
BBX 10 13 0 0
BITMAP
1F00
3FC0
71C0
7000
7000
3800
7F00
1C00
1C00
3800
70C0
FFC0
EF80
ENDCHAR
STARTCHAR currency
ENCODING 164
SWIDTH 556 0
DWIDTH 11 0
BBX 9 8 1 2
BITMAP
C180
FF80
7700
6300
6300
7700
FF80
C180
ENDCHAR
STARTCHAR yen
ENCODING 165
SWIDTH 556 0
DWIDTH 10 0
BBX 9 13 0 0
BITMAP
E380
E380
E380
7700
7700
3E00
FF80
1C00
FF80
1C00
1C00
1C00
1C00
ENDCHAR
STARTCHAR brokenbar
ENCODING 166
SWIDTH 280 0
DWIDTH 5 0
BBX 2 18 1 -4
BITMAP
C0
C0
C0
C0
C0
C0
C0
C0
00
00
C0
C0
C0
C0
C0
C0
C0
C0
ENDCHAR
STARTCHAR section
ENCODING 167
SWIDTH 556 0
DWIDTH 10 0
BBX 9 18 0 -4
BITMAP
3E00
7F00
E380
E380
F000
7C00
FE00
C700
C380
E180
7180
3F80
0F00
0780
E380
E380
7F00
3E00
ENDCHAR
STARTCHAR dieresis
ENCODING 168
SWIDTH 333 0
DWIDTH 7 0
BBX 5 2 1 12
BITMAP
D8
D8
ENDCHAR
STARTCHAR copyright
ENCODING 169
SWIDTH 737 0
DWIDTH 15 0
BBX 14 14 1 0
BITMAP
0FC0
3870
6018
C78C
CFCC
98C4
9804
9804
9844
CFCC
C78C
6018
3870
0FC0
ENDCHAR
STARTCHAR ordfeminine
ENCODING 170
SWIDTH 370 0
DWIDTH 8 0
BBX 6 9 1 5
BITMAP
78
8C
7C
CC
CC
74
00
FC
FC
ENDCHAR
STARTCHAR guillemotleft
ENCODING 171
SWIDTH 556 0
DWIDTH 11 0
BBX 10 8 0 1
BITMAP
1DC0
3B80
7700
EE00
EE00
7700
3B80
1DC0
ENDCHAR
STARTCHAR logicalnot
ENCODING 172
SWIDTH 584 0
DWIDTH 11 0
BBX 9 5 1 3
BITMAP
FF80
FF80
0180
0180
0180
ENDCHAR
STARTCHAR hyphen
ENCODING 173
SWIDTH 333 0
DWIDTH 6 0
BBX 5 3 0 4
BITMAP
F8
F8
F8
ENDCHAR
STARTCHAR registered
ENCODING 174
SWIDTH 737 0
DWIDTH 15 0
BBX 13 14 1 0
BITMAP
0F80
3060
6010
5F90
99C8
98C8
99C8
9F08
9988
9988
58D0
6030
38E0
0F80
ENDCHAR
STARTCHAR macron
ENCODING 175
SWIDTH 333 0
DWIDTH 7 0
BBX 5 2 1 12
BITMAP
F8
F8
ENDCHAR
STARTCHAR degree
ENCODING 176
SWIDTH 400 0
DWIDTH 7 0
BBX 6 6 0 7
BITMAP
78
FC
CC
CC
FC
78
ENDCHAR
STARTCHAR plusminus
ENCODING 177
SWIDTH 584 0
DWIDTH 11 0
BBX 9 9 1 0
BITMAP
1C00
1C00
FF80
FF80
1C00
1C00
0000
FF80
FF80
ENDCHAR
STARTCHAR twosuperior
ENCODING 178
SWIDTH 333 0
DWIDTH 6 0
BBX 6 8 0 5
BITMAP
78
FC
CC
1C
78
E0
FC
FC
ENDCHAR
STARTCHAR threesuperior
ENCODING 179
SWIDTH 333 0
DWIDTH 6 0
BBX 6 8 0 5
BITMAP
78
FC
CC
38
3C
CC
FC
78
ENDCHAR
STARTCHAR acute
ENCODING 180
SWIDTH 333 0
DWIDTH 5 0
BBX 5 3 0 11
BITMAP
38
70
E0
ENDCHAR
STARTCHAR mu
ENCODING 181
SWIDTH 611 0
DWIDTH 11 0
BBX 9 14 1 -4
BITMAP
E380
E380
E380
E380
E380
E380
E380
E780
FF80
FB80
E000
E000
E000
E000
ENDCHAR
STARTCHAR paragraph
ENCODING 182
SWIDTH 556 0
DWIDTH 10 0
BBX 9 18 0 -4
BITMAP
3F80
7B00
FB00
FB00
FB00
FB00
FB00
7B00
3B00
1B00
1B00
1B00
1B00
1B00
1B00
1B00
1B00
1B00
ENDCHAR
STARTCHAR periodcentered
ENCODING 183
SWIDTH 278 0
DWIDTH 5 0
BBX 2 2 1 6
BITMAP
C0
C0
ENDCHAR
STARTCHAR cedilla
ENCODING 184
SWIDTH 333 0
DWIDTH 7 0
BBX 5 5 1 -5
BITMAP
60
70
18
F8
F0
ENDCHAR
STARTCHAR onesuperior
ENCODING 185
SWIDTH 333 0
DWIDTH 6 0
BBX 4 8 0 5
BITMAP
30
F0
F0
30
30
30
30
30
ENDCHAR
STARTCHAR ordmasculine
ENCODING 186
SWIDTH 365 0
DWIDTH 8 0
BBX 6 9 1 5
BITMAP
78
CC
CC
CC
CC
78
00
FC
FC
ENDCHAR
STARTCHAR guillemotright
ENCODING 187
SWIDTH 556 0
DWIDTH 11 0
BBX 10 8 0 1
BITMAP
EE00
7700
3B80
1DC0
1DC0
3B80
7700
EE00
ENDCHAR
STARTCHAR onequarter
ENCODING 188
SWIDTH 834 0
DWIDTH 15 0
BBX 14 13 0 0
BITMAP
3060
F060
F0C0
30C0
3180
3198
3338
3638
0678
0CD8
0CFC
1818
1818
ENDCHAR
STARTCHAR onehalf
ENCODING 189
SWIDTH 834 0
DWIDTH 15 0
BBX 15 13 0 0
BITMAP
3060
F060
F0C0
30C0
3180
31BC
337E
3666
060E
0C3C
0C70
187E
187E
ENDCHAR
STARTCHAR threequarters
ENCODING 190
SWIDTH 834 0
DWIDTH 15 0
BBX 14 13 0 0
BITMAP
7830
FC30
CC60
3860
3CC0
CCD8
FDB8
7B38
0378
06D8
06FC
0C18
0C18
ENDCHAR
STARTCHAR questiondown
ENCODING 191
SWIDTH 611 0
DWIDTH 10 0
BBX 8 14 1 -4
BITMAP
1C
1C
1C
00
1C
1C
1C
38
78
70
E7
E7
FF
7E
ENDCHAR
STARTCHAR Agrave
ENCODING 192
SWIDTH 722 0
DWIDTH 14 0
BBX 12 18 1 0
BITMAP
3800
1C00
0600
0000
0F00
0F00
1F80
1980
1980
39C0
39C0
30C0
70E0
7FE0
7FE0
E070
E070
E070
ENDCHAR
STARTCHAR Aacute
ENCODING 193
SWIDTH 722 0
DWIDTH 14 0
BBX 12 18 1 0
BITMAP
01C0
0380
0600
0000
0F00
0F00
1F80
1980
1980
39C0
39C0
30C0
70E0
7FE0
7FE0
E070
E070
E070
ENDCHAR
STARTCHAR Acircumflex
ENCODING 194
SWIDTH 722 0
DWIDTH 14 0
BBX 12 18 1 0
BITMAP
0700
0F80
1DC0
0000
0F00
0F00
1F80
1980
1980
39C0
39C0
30C0
70E0
7FE0
7FE0
E070
E070
E070
ENDCHAR
STARTCHAR Atilde
ENCODING 195
SWIDTH 722 0
DWIDTH 14 0
BBX 12 18 1 0
BITMAP
0E20
1FC0
2380
0000
0F00
0F00
1F80
1980
1980
39C0
39C0
30C0
70E0
7FE0
7FE0
E070
E070
E070
ENDCHAR
STARTCHAR Adieresis
ENCODING 196
SWIDTH 722 0
DWIDTH 14 0
BBX 12 18 1 0
BITMAP
1980
1980
1980
0000
0F00
0F00
1F80
1980
1980
39C0
39C0
30C0
70E0
7FE0
7FE0
E070
E070
E070
ENDCHAR
STARTCHAR Aring
ENCODING 197
SWIDTH 722 0
DWIDTH 14 0
BBX 12 18 1 0
BITMAP
0F00
1980
1980
0F00
0F00
0F00
1F80
1980
1980
39C0
39C0
30C0
70E0
7FE0
7FE0
E070
E070
E070
ENDCHAR
STARTCHAR AE
ENCODING 198
SWIDTH 1000 0
DWIDTH 18 0
BBX 16 14 1 0
BITMAP
0FFF
0FFF
1F80
1B80
3B80
3B80
33FE
73FE
7380
7F80
FF80
E380
E3FF
E3FF
ENDCHAR
STARTCHAR Ccedilla
ENCODING 199
SWIDTH 722 0
DWIDTH 14 0
BBX 12 19 1 -5
BITMAP
0F80
3FE0
78E0
7070
F070
E000
E000
E000
E000
F070
7070
78E0
3FE0
0F80
0C00
0E00
0300
1F00
1E00
ENDCHAR
STARTCHAR Egrave
ENCODING 200
SWIDTH 667 0
DWIDTH 13 0
BBX 10 18 2 0
BITMAP
3800
1C00
0600
0000
FFC0
FFC0
E000
E000
E000
E000
FF80
FF80
E000
E000
E000
E000
FFC0
FFC0
ENDCHAR
STARTCHAR Eacute
ENCODING 201
SWIDTH 667 0
DWIDTH 13 0
BBX 10 18 2 0
BITMAP
0380
0700
0C00
0000
FFC0
FFC0
E000
E000
E000
E000
FF80
FF80
E000
E000
E000
E000
FFC0
FFC0
ENDCHAR
STARTCHAR Ecircumflex
ENCODING 202
SWIDTH 667 0
DWIDTH 13 0
BBX 10 18 2 0
BITMAP
0E00
1F00
3B80
0000
FFC0
FFC0
E000
E000
E000
E000
FF80
FF80
E000
E000
E000
E000
FFC0
FFC0
ENDCHAR
STARTCHAR Edieresis
ENCODING 203
SWIDTH 667 0
DWIDTH 13 0
BBX 10 18 2 0
BITMAP
3300
3300
3300
0000
FFC0
FFC0
E000
E000
E000
E000
FF80
FF80
E000
E000
E000
E000
FFC0
FFC0
ENDCHAR
STARTCHAR Igrave
ENCODING 204
SWIDTH 278 0
DWIDTH 5 0
BBX 5 18 -1 0
BITMAP
E0
70
18
00
38
38
38
38
38
38
38
38
38
38
38
38
38
38
ENDCHAR
STARTCHAR Iacute
ENCODING 205
SWIDTH 278 0
DWIDTH 5 0
BBX 5 18 1 0
BITMAP
38
70
C0
00
E0
E0
E0
E0
E0
E0
E0
E0
E0
E0
E0
E0
E0
E0
ENDCHAR
STARTCHAR Icircumflex
ENCODING 206
SWIDTH 278 0
DWIDTH 5 0
BBX 7 18 -1 0
BITMAP
38
7C
EE
00
38
38
38
38
38
38
38
38
38
38
38
38
38
38
ENDCHAR
STARTCHAR Idieresis
ENCODING 207
SWIDTH 278 0
DWIDTH 5 0
BBX 6 18 0 0
BITMAP
CC
CC
CC
00
70
70
70
70
70
70
70
70
70
70
70
70
70
70
ENDCHAR
STARTCHAR Eth
ENCODING 208
SWIDTH 722 0
DWIDTH 14 0
BBX 14 14 -1 0
BITMAP
3FC0
3FF0
3878
3838
381C
381C
FF1C
FF1C
381C
381C
3838
3878
3FF0
3FC0
ENDCHAR
STARTCHAR Ntilde
ENCODING 209
SWIDTH 722 0
DWIDTH 14 0
BBX 12 18 1 0
BITMAP
0E20
1FC0
2380
0000
E070
F070
F070
F870
FC70
EC70
EE70
E670
E770
E370
E1F0
E1F0
E0F0
E070
ENDCHAR
STARTCHAR Ograve
ENCODING 210
SWIDTH 778 0
DWIDTH 15 0
BBX 13 18 1 0
BITMAP
1C00
0E00
0300
0000
0F80
3FE0
78F0
7070
F078
E038
E038
E038
E038
F078
7070
78F0
3FE0
0F80
ENDCHAR
STARTCHAR Oacute
ENCODING 211
SWIDTH 778 0
DWIDTH 15 0
BBX 13 18 1 0
BITMAP
01C0
0380
0600
0000
0F80
3FE0
78F0
7070
F078
E038
E038
E038
E038
F078
7070
78F0
3FE0
0F80
ENDCHAR
STARTCHAR Ocircumflex
ENCODING 212
SWIDTH 778 0
DWIDTH 15 0
BBX 13 18 1 0
BITMAP
0700
0F80
1DC0
0000
0F80
3FE0
78F0
7070
F078
E038
E038
E038
E038
F078
7070
78F0
3FE0
0F80
ENDCHAR
STARTCHAR Otilde
ENCODING 213
SWIDTH 778 0
DWIDTH 15 0
BBX 13 18 1 0
BITMAP
0710
0FE0
11C0
0000
0F80
3FE0
78F0
7070
F078
E038
E038
E038
E038
F078
7070
78F0
3FE0
0F80
ENDCHAR
STARTCHAR Odieresis
ENCODING 214
SWIDTH 778 0
DWIDTH 15 0
BBX 13 18 1 0
BITMAP
0CC0
0CC0
0CC0
0000
0F80
3FE0
78F0
7070
F078
E038
E038
E038
E038
F078
7070
78F0
3FE0
0F80
ENDCHAR
STARTCHAR multiply
ENCODING 215
SWIDTH 584 0
DWIDTH 11 0
BBX 10 8 0 1
BITMAP
E1C0
7380
3F00
1E00
1E00
3F00
7380
E1C0
ENDCHAR
STARTCHAR Oslash
ENCODING 216
SWIDTH 778 0
DWIDTH 15 0
BBX 15 14 0 0
BITMAP
07C6
1FFC
3C38
3878
78DC
719C
711C
731C
761C
7C3C
3838
3C78
7FF0
C7C0
ENDCHAR
STARTCHAR Ugrave
ENCODING 217
SWIDTH 722 0
DWIDTH 14 0
BBX 12 18 1 0
BITMAP
1C00
0E00
0300
0000
E070
E070
E070
E070
E070
E070
E070
E070
E070
E070
E070
70E0
7FE0
1F80
ENDCHAR
STARTCHAR Uacute
ENCODING 218
SWIDTH 722 0
DWIDTH 14 0
BBX 12 18 1 0
BITMAP
01C0
0380
0600
0000
E070
E070
E070
E070
E070
E070
E070
E070
E070
E070
E070
70E0
7FE0
1F80
ENDCHAR
STARTCHAR Ucircumflex
ENCODING 219
SWIDTH 722 0
DWIDTH 14 0
BBX 12 18 1 0
BITMAP
0700
0F80
1DC0
0000
E070
E070
E070
E070
E070
E070
E070
E070
E070
E070
E070
70E0
7FE0
1F80
ENDCHAR
STARTCHAR Udieresis
ENCODING 220
SWIDTH 722 0
DWIDTH 14 0
BBX 12 18 1 0
BITMAP
1980
1980
1980
0000
E070
E070
E070
E070
E070
E070
E070
E070
E070
E070
E070
70E0
7FE0
1F80
ENDCHAR
STARTCHAR Yacute
ENCODING 221
SWIDTH 667 0
DWIDTH 13 0
BBX 13 18 0 0
BITMAP
01C0
0380
0600
0000
E038
E038
7070
38E0
38E0
1DC0
1DC0
0F80
0700
0700
0700
0700
0700
0700
ENDCHAR
STARTCHAR Thorn
ENCODING 222
SWIDTH 667 0
DWIDTH 13 0
BBX 11 14 1 0
BITMAP
E000
E000
E000
FF00
FFC0
E1E0
E0E0
E0E0
E1E0
FFC0
FF00
E000
E000
E000
ENDCHAR
STARTCHAR germandbls
ENCODING 223
SWIDTH 611 0
DWIDTH 10 0
BBX 8 14 1 0
BITMAP
3C
7E
E7
E7
E7
E7
EE
EE
E7
E7
E7
E7
EF
EE
ENDCHAR
STARTCHAR agrave
ENCODING 224
SWIDTH 556 0
DWIDTH 11 0
BBX 10 14 1 0
BITMAP
7000
3800
0C00
0000
3E00
7F00
7380
0780
3F80
7B80
E380
E780
FB80
7BC0
ENDCHAR
STARTCHAR aacute
ENCODING 225
SWIDTH 556 0
DWIDTH 11 0
BBX 10 14 1 0
BITMAP
0380
0700
0C00
0000
3E00
7F00
7380
0780
3F80
7B80
E380
E780
FB80
7BC0
ENDCHAR
STARTCHAR acircumflex
ENCODING 226
SWIDTH 556 0
DWIDTH 11 0
BBX 10 14 1 0
BITMAP
1C00
3E00
7700
0000
3E00
7F00
7380
0780
3F80
7B80
E380
E780
FB80
7BC0
ENDCHAR
STARTCHAR atilde
ENCODING 227
SWIDTH 556 0
DWIDTH 11 0
BBX 10 14 1 0
BITMAP
3B00
7F00
6E00
0000
3E00
7F00
7380
0780
3F80
7B80
E380
E780
FB80
7BC0
ENDCHAR
STARTCHAR adieresis
ENCODING 228
SWIDTH 556 0
DWIDTH 11 0
BBX 10 14 1 0
BITMAP
3300
3300
3300
0000
3E00
7F00
7380
0780
3F80
7B80
E380
E780
FB80
7BC0
ENDCHAR
STARTCHAR aring
ENCODING 229
SWIDTH 556 0
DWIDTH 11 0
BBX 10 14 1 0
BITMAP
3C00
6600
6600
3C00
3E00
7F00
7380
0780
3F80
7B80
E380
E780
FB80
7BC0
ENDCHAR
STARTCHAR ae
ENCODING 230
SWIDTH 889 0
DWIDTH 16 0
BBX 14 10 1 0
BITMAP
3DF0
7FF8
671C
0F1C
3FFC
7700
E700
EF9C
FFFC
79F0
ENDCHAR
STARTCHAR ccedilla
ENCODING 231
SWIDTH 556 0
DWIDTH 10 0
BBX 9 15 1 -5
BITMAP
1E00
7F80
7380
E000
E000
E000
E000
7380
7F80
1E00
1800
1C00
0600
3E00
3C00
ENDCHAR
STARTCHAR egrave
ENCODING 232
SWIDTH 556 0
DWIDTH 11 0
BBX 9 14 1 0
BITMAP
7000
3800
0C00
0000
1E00
7F00
7380
E180
FF80
FF80
E000
7380
7F80
1E00
ENDCHAR
STARTCHAR eacute
ENCODING 233
SWIDTH 556 0
DWIDTH 11 0
BBX 9 14 1 0
BITMAP
0380
0700
0C00
0000
1E00
7F00
7380
E180
FF80
FF80
E000
7380
7F80
1E00
ENDCHAR
STARTCHAR ecircumflex
ENCODING 234
SWIDTH 556 0
DWIDTH 11 0
BBX 9 14 1 0
BITMAP
1C00
3E00
7700
0000
1E00
7F00
7380
E180
FF80
FF80
E000
7380
7F80
1E00
ENDCHAR
STARTCHAR edieresis
ENCODING 235
SWIDTH 556 0
DWIDTH 11 0
BBX 9 14 1 0
BITMAP
3300
3300
3300
0000
1E00
7F00
7380
E180
FF80
FF80
E000
7380
7F80
1E00
ENDCHAR
STARTCHAR igrave
ENCODING 236
SWIDTH 278 0
DWIDTH 5 0
BBX 5 14 -1 0
BITMAP
E0
70
18
00
38
38
38
38
38
38
38
38
38
38
ENDCHAR
STARTCHAR iacute
ENCODING 237
SWIDTH 278 0
DWIDTH 5 0
BBX 5 14 1 0
BITMAP
38
70
C0
00
E0
E0
E0
E0
E0
E0
E0
E0
E0
E0
ENDCHAR
STARTCHAR icircumflex
ENCODING 238
SWIDTH 278 0
DWIDTH 5 0
BBX 7 14 -1 0
BITMAP
38
7C
EE
00
38
38
38
38
38
38
38
38
38
38
ENDCHAR
STARTCHAR idieresis
ENCODING 239
SWIDTH 278 0
DWIDTH 5 0
BBX 5 14 0 0
BITMAP
D8
D8
D8
00
70
70
70
70
70
70
70
70
70
70
ENDCHAR
STARTCHAR eth
ENCODING 240
SWIDTH 611 0
DWIDTH 12 0
BBX 10 14 1 0
BITMAP
6000
3700
3C00
6600
1F00
7F80
7380
E1C0
E1C0
E1C0
E1C0
7380
7F80
1E00
ENDCHAR
STARTCHAR ntilde
ENCODING 241
SWIDTH 611 0
DWIDTH 11 0
BBX 9 14 1 0
BITMAP
3B00
7F00
6E00
0000
EF00
FF80
F380
E380
E380
E380
E380
E380
E380
E380
ENDCHAR
STARTCHAR ograve
ENCODING 242
SWIDTH 611 0
DWIDTH 12 0
BBX 10 14 1 0
BITMAP
7000
3800
0C00
0000
1E00
7F80
7380
E1C0
E1C0
E1C0
E1C0
7380
7F80
1E00
ENDCHAR
STARTCHAR oacute
ENCODING 243
SWIDTH 611 0
DWIDTH 12 0
BBX 10 14 1 0
BITMAP
0380
0700
0C00
0000
1E00
7F80
7380
E1C0
E1C0
E1C0
E1C0
7380
7F80
1E00
ENDCHAR
STARTCHAR ocircumflex
ENCODING 244
SWIDTH 611 0
DWIDTH 12 0
BBX 10 14 1 0
BITMAP
1C00
3E00
7700
0000
1E00
7F80
7380
E1C0
E1C0
E1C0
E1C0
7380
7F80
1E00
ENDCHAR
STARTCHAR otilde
ENCODING 245
SWIDTH 611 0
DWIDTH 12 0
BBX 10 14 1 0
BITMAP
3B00
7F00
6E00
0000
1E00
7F80
7380
E1C0
E1C0
E1C0
E1C0
7380
7F80
1E00
ENDCHAR
STARTCHAR odieresis
ENCODING 246
SWIDTH 611 0
DWIDTH 12 0
BBX 10 14 1 0
BITMAP
3300
3300
3300
0000
1E00
7F80
7380
E1C0
E1C0
E1C0
E1C0
7380
7F80
1E00
ENDCHAR
STARTCHAR divide
ENCODING 247
SWIDTH 584 0
DWIDTH 11 0
BBX 9 8 1 1
BITMAP
1C00
1C00
0000
FF80
FF80
0000
1C00
1C00
ENDCHAR
STARTCHAR oslash
ENCODING 248
SWIDTH 611 0
DWIDTH 12 0
BBX 12 10 0 0
BITMAP
0F30
3FE0
39C0
73E0
77E0
7EE0
7CE0
39C0
7FC0
CF00
ENDCHAR
STARTCHAR ugrave
ENCODING 249
SWIDTH 611 0
DWIDTH 11 0
BBX 9 14 1 0
BITMAP
7000
3800
0C00
0000
E380
E380
E380
E380
E380
E380
E380
E780
FF80
7B80
ENDCHAR
STARTCHAR uacute
ENCODING 250
SWIDTH 611 0
DWIDTH 11 0
BBX 9 14 1 0
BITMAP
0380
0700
0C00
0000
E380
E380
E380
E380
E380
E380
E380
E780
FF80
7B80
ENDCHAR
STARTCHAR ucircumflex
ENCODING 251
SWIDTH 611 0
DWIDTH 11 0
BBX 9 14 1 0
BITMAP
1C00
3E00
7700
0000
E380
E380
E380
E380
E380
E380
E380
E780
FF80
7B80
ENDCHAR
STARTCHAR udieresis
ENCODING 252
SWIDTH 611 0
DWIDTH 11 0
BBX 9 14 1 0
BITMAP
3300
3300
3300
0000
E380
E380
E380
E380
E380
E380
E380
E780
FF80
7B80
ENDCHAR
STARTCHAR yacute
ENCODING 253
SWIDTH 556 0
DWIDTH 11 0
BBX 9 18 1 -4
BITMAP
0700
0E00
1800
0000
E380
E380
E380
7700
7700
7700
3E00
3E00
1C00
1C00
1C00
1800
7800
7000
ENDCHAR
STARTCHAR thorn
ENCODING 254
SWIDTH 611 0
DWIDTH 12 0
BBX 10 18 1 -4
BITMAP
E000
E000
E000
E000
EF00
FF80
F380
E1C0
E1C0
E1C0
E1C0
F380
FF80
EF00
E000
E000
E000
E000
ENDCHAR
STARTCHAR ydieresis
ENCODING 255
SWIDTH 556 0
DWIDTH 11 0
BBX 9 18 1 -4
BITMAP
3300
3300
3300
0000
E380
E380
E380
7700
7700
7700
3E00
3E00
1C00
1C00
1C00
1800
7800
7000
ENDCHAR
STARTCHAR Amacron
ENCODING 256
SWIDTH 722 0
DWIDTH 14 0
BBX 12 17 1 0
BITMAP
0F80
0F80
0000
0F00
0F00
1F80
1980
1980
39C0
39C0
30C0
70E0
7FE0
7FE0
E070
E070
E070
ENDCHAR
STARTCHAR amacron
ENCODING 257
SWIDTH 556 0
DWIDTH 11 0
BBX 10 13 1 0
BITMAP
3E00
3E00
0000
3E00
7F00
6380
0780
3F80
7B80
E380
E780
FB80
7BC0
ENDCHAR
STARTCHAR Abreve
ENCODING 258
SWIDTH 722 0
DWIDTH 14 0
BBX 12 18 1 0
BITMAP
18C0
1DC0
0F80
0000
0F00
0F00
1F80
1980
1980
39C0
39C0
30C0
70E0
7FE0
7FE0
E070
E070
E070
ENDCHAR
STARTCHAR abreve
ENCODING 259
SWIDTH 556 0
DWIDTH 11 0
BBX 10 14 1 0
BITMAP
6300
7700
3E00
0000
3E00
7F00
6380
0780
3F80
7B80
E380
E780
FB80
7BC0
ENDCHAR
STARTCHAR Aogonek
ENCODING 260
SWIDTH 722 0
DWIDTH 14 0
BBX 12 19 1 -5
BITMAP
0F00
0F00
1F80
1980
1980
39C0
39C0
30C0
70E0
7FE0
7FE0
E070
E070
E070
0700
0E00
1C00
1F80
0F00
ENDCHAR
STARTCHAR aogonek
ENCODING 261
SWIDTH 556 0
DWIDTH 11 0
BBX 10 15 1 -5
BITMAP
3E00
7F00
6380
0780
3F80
7B80
E380
E780
FB80
7BC0
0E00
1C00
3800
3F00
1E00
ENDCHAR
STARTCHAR Cacute
ENCODING 262
SWIDTH 722 0
DWIDTH 14 0
BBX 12 18 1 0
BITMAP
0380
0700
0E00
0000
0F80
3FE0
78E0
7070
F070
E000
E000
E000
E000
F070
7070
78E0
3FE0
0F80
ENDCHAR
STARTCHAR cacute
ENCODING 263
SWIDTH 556 0
DWIDTH 11 0
BBX 9 14 1 0
BITMAP
0700
0E00
1C00
0000
1E00
7F80
7380
E000
E000
E000
E000
7380
7F80
1E00
ENDCHAR
STARTCHAR Ccircumflex
ENCODING 264
SWIDTH 722 0
DWIDTH 14 0
BBX 12 18 1 0
BITMAP
0700
0F80
1DC0
0000
0F80
3FE0
78E0
7070
F070
E000
E000
E000
E000
F070
7070
78E0
3FE0
0F80
ENDCHAR
STARTCHAR ccircumflex
ENCODING 265
SWIDTH 556 0
DWIDTH 11 0
BBX 9 14 1 0
BITMAP
1C00
3E00
7700
0000
1E00
7F80
7380
E000
E000
E000
E000
7380
7F80
1E00
ENDCHAR
STARTCHAR Cdotaccent
ENCODING 266
SWIDTH 722 0
DWIDTH 14 0
BBX 12 17 1 0
BITMAP
0600
0600
0000
0F80
3FE0
78E0
7070
F070
E000
E000
E000
E000
F070
7070
78E0
3FE0
0F80
ENDCHAR
STARTCHAR cdotaccent
ENCODING 267
SWIDTH 556 0
DWIDTH 11 0
BBX 9 13 1 0
BITMAP
0C00
0C00
0000
1E00
7F80
7380
E000
E000
E000
E000
7380
7F80
1E00
ENDCHAR
STARTCHAR Ccaron
ENCODING 268
SWIDTH 722 0
DWIDTH 14 0
BBX 12 18 1 0
BITMAP
1DC0
0F80
0700
0000
0F80
3FE0
78E0
7070
F070
E000
E000
E000
E000
F070
7070
78E0
3FE0
0F80
ENDCHAR
STARTCHAR ccaron
ENCODING 269
SWIDTH 556 0
DWIDTH 11 0
BBX 9 14 1 0
BITMAP
7700
3E00
1C00
0000
1E00
7F80
7380
E000
E000
E000
E000
7380
7F80
1E00
ENDCHAR
STARTCHAR Dcaron
ENCODING 270
SWIDTH 722 0
DWIDTH 14 0
BBX 12 18 1 0
BITMAP
3B80
1F00
0E00
0000
FF00
FFC0
E1E0
E0E0
E070
E070
E070
E070
E070
E070
E0E0
E1E0
FFC0
FF00
ENDCHAR
STARTCHAR dcaron
ENCODING 271
SWIDTH 858 0
DWIDTH 16 0
BBX 14 14 1 0
BITMAP
01DC
01DC
01CC
01CC
3DD8
7FC0
73C0
E1C0
E1C0
E1C0
E1C0
73C0
7FC0
3DC0
ENDCHAR
STARTCHAR Dcroat
ENCODING 272
SWIDTH 722 0
DWIDTH 14 0
BBX 14 14 -1 0
BITMAP
3FC0
3FF0
3878
3838
381C
381C
FF1C
FF1C
381C
381C
3838
3878
3FF0
3FC0
ENDCHAR
STARTCHAR dcroat
ENCODING 273
SWIDTH 611 0
DWIDTH 12 0
BBX 10 14 1 0
BITMAP
01C0
01C0
03C0
03C0
3DC0
7FC0
73C0
E1C0
E1C0
E1C0
E1C0
73C0
7FC0
3DC0
ENDCHAR
STARTCHAR Emacron
ENCODING 274
SWIDTH 667 0
DWIDTH 13 0
BBX 10 17 2 0
BITMAP
3E00
3E00
0000
FFC0
FFC0
E000
E000
E000
E000
FF80
FF80
E000
E000
E000
E000
FFC0
FFC0
ENDCHAR
STARTCHAR emacron
ENCODING 275
SWIDTH 556 0
DWIDTH 11 0
BBX 9 13 1 0
BITMAP
3E00
3E00
0000
1E00
7F00
7380
E180
FF80
FF80
E000
7380
7F80
1E00
ENDCHAR
STARTCHAR Ebreve
ENCODING 276
SWIDTH 667 0
DWIDTH 13 0
BBX 10 18 2 0
BITMAP
6300
7700
3E00
0000
FFC0
FFC0
E000
E000
E000
E000
FF80
FF80
E000
E000
E000
E000
FFC0
FFC0
ENDCHAR
STARTCHAR ebreve
ENCODING 277
SWIDTH 556 0
DWIDTH 11 0
BBX 9 14 1 0
BITMAP
6300
7700
3E00
0000
1E00
7F00
7380
E180
FF80
FF80
E000
7380
7F80
1E00
ENDCHAR
STARTCHAR Edotaccent
ENCODING 278
SWIDTH 667 0
DWIDTH 13 0
BBX 10 17 2 0
BITMAP
1800
1800
0000
FFC0
FFC0
E000
E000
E000
E000
FF80
FF80
E000
E000
E000
E000
FFC0
FFC0
ENDCHAR
STARTCHAR edotaccent
ENCODING 279
SWIDTH 556 0
DWIDTH 11 0
BBX 9 13 1 0
BITMAP
0C00
0C00
0000
1E00
7F00
7380
E180
FF80
FF80
E000
7380
7F80
1E00
ENDCHAR
STARTCHAR Eogonek
ENCODING 280
SWIDTH 667 0
DWIDTH 13 0
BBX 10 19 2 -5
BITMAP
FFC0
FFC0
E000
E000
E000
E000
FF80
FF80
E000
E000
E000
E000
FFC0
FFC0
1C00
3800
7000
7E00
3C00
ENDCHAR
STARTCHAR eogonek
ENCODING 281
SWIDTH 556 0
DWIDTH 11 0
BBX 9 15 1 -5
BITMAP
1E00
7F00
7380
E180
FF80
FF80
E000
7380
7F80
1E00
0E00
1C00
3800
3F00
1E00
ENDCHAR
STARTCHAR Ecaron
ENCODING 282
SWIDTH 667 0
DWIDTH 13 0
BBX 10 18 2 0
BITMAP
7700
3E00
1C00
0000
FFC0
FFC0
E000
E000
E000
E000
FF80
FF80
E000
E000
E000
E000
FFC0
FFC0
ENDCHAR
STARTCHAR ecaron
ENCODING 283
SWIDTH 556 0
DWIDTH 11 0
BBX 9 14 1 0
BITMAP
7700
3E00
1C00
0000
1E00
7F00
7380
E180
FF80
FF80
E000
7380
7F80
1E00
ENDCHAR
STARTCHAR Gcircumflex
ENCODING 284
SWIDTH 778 0
DWIDTH 15 0
BBX 12 18 1 0
BITMAP
0700
0F80
1DC0
0000
0F80
3FE0
78E0
7070
F070
E000
E000
E3F0
E3F0
F070
7070
78F0
3FF0
1FB0
ENDCHAR
STARTCHAR gcircumflex
ENCODING 285
SWIDTH 611 0
DWIDTH 12 0
BBX 10 18 1 -4
BITMAP
0E00
1F00
3B80
0000
3DC0
7FC0
73C0
E1C0
E1C0
E1C0
E1C0
73C0
7FC0
3DC0
01C0
7380
7F80
1E00
ENDCHAR
STARTCHAR Gbreve
ENCODING 286
SWIDTH 778 0
DWIDTH 15 0
BBX 12 18 1 0
BITMAP
18C0
1DC0
0F80
0000
0F80
3FE0
78E0
7070
F070
E000
E000
E3F0
E3F0
F070
7070
78F0
3FF0
1FB0
ENDCHAR
STARTCHAR gbreve
ENCODING 287
SWIDTH 611 0
DWIDTH 12 0
BBX 10 18 1 -4
BITMAP
3180
3B80
1F00
0000
3DC0
7FC0
73C0
E1C0
E1C0
E1C0
E1C0
73C0
7FC0
3DC0
01C0
7380
7F80
1E00
ENDCHAR
STARTCHAR Gdotaccent
ENCODING 288
SWIDTH 778 0
DWIDTH 15 0
BBX 12 17 1 0
BITMAP
0600
0600
0000
0F80
3FE0
78E0
7070
F070
E000
E000
E3F0
E3F0
F070
7070
78F0
3FF0
1FB0
ENDCHAR
STARTCHAR gdotaccent
ENCODING 289
SWIDTH 611 0
DWIDTH 12 0
BBX 10 17 1 -4
BITMAP
0C00
0C00
0000
3DC0
7FC0
73C0
E1C0
E1C0
E1C0
E1C0
73C0
7FC0
3DC0
01C0
7380
7F80
1E00
ENDCHAR
STARTCHAR Gcommaaccent
ENCODING 290
SWIDTH 778 0
DWIDTH 15 0
BBX 12 21 1 -7
BITMAP
0F80
3FE0
78E0
7070
F070
E000
E000
E3F0
E3F0
F070
7070
78F0
3FF0
1FB0
0000
0700
0700
0700
0300
0600
0400
ENDCHAR
STARTCHAR gcommaaccent
ENCODING 291
SWIDTH 611 0
DWIDTH 12 0
BBX 10 20 1 -4
BITMAP
0600
0C00
0C00
0E00
0E00
0000
3DC0
7FC0
73C0
E1C0
E1C0
E1C0
E1C0
73C0
7FC0
3DC0
01C0
7380
7F80
1E00
ENDCHAR
STARTCHAR Hcircumflex
ENCODING 292
SWIDTH 722 0
DWIDTH 14 0
BBX 12 18 1 0
BITMAP
0700
0F80
1DC0
0000
E070
E070
E070
E070
E070
E070
FFF0
FFF0
E070
E070
E070
E070
E070
E070
ENDCHAR
STARTCHAR hcircumflex
ENCODING 293
SWIDTH 611 0
DWIDTH 11 0
BBX 10 18 0 0
BITMAP
3800
7C00
EE00
0000
7000
7000
7000
7000
7780
7FC0
79C0
71C0
71C0
71C0
71C0
71C0
71C0
71C0
ENDCHAR
STARTCHAR Hbar
ENCODING 294
SWIDTH 722 0
DWIDTH 14 0
BBX 12 14 1 0
BITMAP
E070
E070
E070
FFF0
FFF0
E070
FFF0
FFF0
E070
E070
E070
E070
E070
E070
ENDCHAR
STARTCHAR hbar
ENCODING 295
SWIDTH 611 0
DWIDTH 11 0
BBX 9 14 1 0
BITMAP
E000
E000
F000
F000
EF00
FF80
F380
E380
E380
E380
E380
E380
E380
E380
ENDCHAR
STARTCHAR Itilde
ENCODING 296
SWIDTH 278 0
DWIDTH 5 0
BBX 7 18 -1 0
BITMAP
76
FE
DC
00
38
38
38
38
38
38
38
38
38
38
38
38
38
38
ENDCHAR
STARTCHAR itilde
ENCODING 297
SWIDTH 278 0
DWIDTH 5 0
BBX 7 14 -1 0
BITMAP
76
FE
DC
00
38
38
38
38
38
38
38
38
38
38
ENDCHAR
STARTCHAR Imacron
ENCODING 298
SWIDTH 278 0
DWIDTH 5 0
BBX 5 17 0 0
BITMAP
F8
F8
00
70
70
70
70
70
70
70
70
70
70
70
70
70
70
ENDCHAR
STARTCHAR imacron
ENCODING 299
SWIDTH 278 0
DWIDTH 5 0
BBX 5 13 0 0
BITMAP
F8
F8
00
70
70
70
70
70
70
70
70
70
70
ENDCHAR
STARTCHAR Ibreve
ENCODING 300
SWIDTH 278 0
DWIDTH 5 0
BBX 7 18 -1 0
BITMAP
C6
EE
7C
00
38
38
38
38
38
38
38
38
38
38
38
38
38
38
ENDCHAR
STARTCHAR ibreve
ENCODING 301
SWIDTH 278 0
DWIDTH 5 0
BBX 7 14 -1 0
BITMAP
C6
EE
7C
00
38
38
38
38
38
38
38
38
38
38
ENDCHAR
STARTCHAR Iogonek
ENCODING 302
SWIDTH 278 0
DWIDTH 5 0
BBX 6 19 0 -5
BITMAP
70
70
70
70
70
70
70
70
70
70
70
70
70
70
38
70
E0
FC
78
ENDCHAR
STARTCHAR iogonek
ENCODING 303
SWIDTH 278 0
DWIDTH 5 0
BBX 6 19 0 -5
BITMAP
70
70
70
00
70
70
70
70
70
70
70
70
70
70
38
70
E0
FC
78
ENDCHAR
STARTCHAR Idotaccent
ENCODING 304
SWIDTH 278 0
DWIDTH 5 0
BBX 3 17 1 0
BITMAP
60
60
00
E0
E0
E0
E0
E0
E0
E0
E0
E0
E0
E0
E0
E0
E0
ENDCHAR
STARTCHAR dotlessi
ENCODING 305
SWIDTH 278 0
DWIDTH 5 0
BBX 3 10 1 0
BITMAP
E0
E0
E0
E0
E0
E0
E0
E0
E0
E0
ENDCHAR
STARTCHAR IJ
ENCODING 306
SWIDTH 820 0
DWIDTH 15 0
BBX 13 14 1 0
BITMAP
E038
E038
E038
E038
E038
E038
E038
E038
E038
EE38
EE38
EF78
E7F0
E3E0
ENDCHAR
STARTCHAR ij
ENCODING 307
SWIDTH 542 0
DWIDTH 10 0
BBX 8 18 1 -4
BITMAP
E7
E7
E7
00
E7
E7
E7
E7
E7
E7
E7
E7
E7
E7
07
07
1F
1E
ENDCHAR
STARTCHAR Jcircumflex
ENCODING 308
SWIDTH 556 0
DWIDTH 10 0
BBX 10 18 0 0
BITMAP
0700
0F80
1DC0
0000
0380
0380
0380
0380
0380
0380
0380
0380
0380
E380
E380
F780
7F00
3E00
ENDCHAR
STARTCHAR jcircumflex
ENCODING 309
SWIDTH 278 0
DWIDTH 5 0
BBX 7 18 -1 -4
BITMAP
38
7C
EE
00
38
38
38
38
38
38
38
38
38
38
38
38
F8
F0
ENDCHAR
STARTCHAR Kcommaaccent
ENCODING 310
SWIDTH 722 0
DWIDTH 14 0
BBX 13 21 1 -7
BITMAP
E0F0
E1E0
E3C0
E780
EF00
FE00
FC00
FE00
EF00
E780
E3C0
E1E0
E0F0
E078
0000
0700
0700
0700
0300
0600
0400
ENDCHAR
STARTCHAR kcommaaccent
ENCODING 311
SWIDTH 556 0
DWIDTH 10 0
BBX 9 21 1 -7
BITMAP
E000
E000
E000
E000
E700
EE00
FC00
F800
F800
FC00
EE00
E700
E780
E380
0000
1C00
1C00
1C00
0C00
1800
1000
ENDCHAR
STARTCHAR kgreenlandic
ENCODING 312
SWIDTH 556 0
DWIDTH 10 0
BBX 9 10 1 0
BITMAP
E700
EE00
FC00
F800
F800
FC00
EE00
E700
E780
E380
ENDCHAR
STARTCHAR Lacute
ENCODING 313
SWIDTH 611 0
DWIDTH 11 0
BBX 9 18 1 0
BITMAP
1C00
3800
7000
0000
E000
E000
E000
E000
E000
E000
E000
E000
E000
E000
E000
E000
FF80
FF80
ENDCHAR
STARTCHAR lacute
ENCODING 314
SWIDTH 278 0
DWIDTH 5 0
BBX 5 18 1 0
BITMAP
38
70
E0
00
E0
E0
E0
E0
E0
E0
E0
E0
E0
E0
E0
E0
E0
E0
ENDCHAR
STARTCHAR Lcommaaccent
ENCODING 315
SWIDTH 611 0
DWIDTH 11 0
BBX 9 21 1 -7
BITMAP
E000
E000
E000
E000
E000
E000
E000
E000
E000
E000
E000
E000
FF80
FF80
0000
1C00
1C00
1C00
0C00
1800
1000
ENDCHAR
STARTCHAR lcommaaccent
ENCODING 316
SWIDTH 278 0
DWIDTH 5 0
BBX 3 21 1 -7
BITMAP
E0
E0
E0
E0
E0
E0
E0
E0
E0
E0
E0
E0
E0
E0
00
E0
E0
E0
60
C0
80
ENDCHAR
STARTCHAR Lcaron
ENCODING 317
SWIDTH 858 0
DWIDTH 15 0
BBX 13 14 1 0
BITMAP
E038
E038
E018
E018
E030
E000
E000
E000
E000
E000
E000
E000
FF80
FF80
ENDCHAR
STARTCHAR lcaron
ENCODING 318
SWIDTH 542 0
DWIDTH 10 0
BBX 8 14 1 0
BITMAP
E7
E7
E3
E3
E6
E0
E0
E0
E0
E0
E0
E0
E0
E0
ENDCHAR
STARTCHAR Ldot
ENCODING 319
SWIDTH 858 0
DWIDTH 15 0
BBX 12 14 1 0
BITMAP
E000
E000
E000
E000
E000
E000
E030
E030
E000
E000
E000
E000
FF80
FF80
ENDCHAR
STARTCHAR ldot
ENCODING 320
SWIDTH 542 0
DWIDTH 10 0
BBX 7 14 1 0
BITMAP
E0
E0
E0
E0
E0
E0
E6
E6
E0
E0
E0
E0
E0
E0
ENDCHAR
STARTCHAR Lslash
ENCODING 321
SWIDTH 611 0
DWIDTH 11 0
BBX 10 14 0 0
BITMAP
7000
7000
7000
7000
7600
7E00
F800
F000
7000
7000
7000
7000
7FC0
7FC0
ENDCHAR
STARTCHAR lslash
ENCODING 322
SWIDTH 278 0
DWIDTH 5 0
BBX 5 14 0 0
BITMAP
70
70
70
70
70
78
F8
F0
70
70
70
70
70
70
ENDCHAR
STARTCHAR Nacute
ENCODING 323
SWIDTH 722 0
DWIDTH 14 0
BBX 12 18 1 0
BITMAP
0380
0700
0E00
0000
E070
F070
F070
F870
FC70
EC70
EE70
E670
E770
E370
E1F0
E1F0
E0F0
E070
ENDCHAR
STARTCHAR nacute
ENCODING 324
SWIDTH 611 0
DWIDTH 11 0
BBX 9 14 1 0
BITMAP
0700
0E00
1C00
0000
EF00
FF80
F380
E380
E380
E380
E380
E380
E380
E380
ENDCHAR
STARTCHAR Ncommaaccent
ENCODING 325
SWIDTH 722 0
DWIDTH 14 0
BBX 12 21 1 -7
BITMAP
E070
F070
F070
F870
FC70
EC70
EE70
E670
E770
E370
E1F0
E1F0
E0F0
E070
0000
0700
0700
0700
0300
0600
0400
ENDCHAR
STARTCHAR ncommaaccent
ENCODING 326
SWIDTH 611 0
DWIDTH 11 0
BBX 9 17 1 -7
BITMAP
EF00
FF80
F380
E380
E380
E380
E380
E380
E380
E380
0000
1C00
1C00
1C00
0C00
1800
1000
ENDCHAR
STARTCHAR Ncaron
ENCODING 327
SWIDTH 722 0
DWIDTH 14 0
BBX 12 18 1 0
BITMAP
3B80
1F00
0E00
0000
E070
F070
F070
F870
FC70
EC70
EE70
E670
E770
E370
E1F0
E1F0
E0F0
E070
ENDCHAR
STARTCHAR ncaron
ENCODING 328
SWIDTH 611 0
DWIDTH 11 0
BBX 9 14 1 0
BITMAP
7700
3E00
1C00
0000
EF00
FF80
F380
E380
E380
E380
E380
E380
E380
E380
ENDCHAR
STARTCHAR napostrophe
ENCODING 329
SWIDTH 875 0
DWIDTH 16 0
BBX 14 14 1 0
BITMAP
E000
E000
6000
6000
C778
07FC
079C
071C
071C
071C
071C
071C
071C
071C
ENDCHAR
STARTCHAR Eng
ENCODING 330
SWIDTH 722 0
DWIDTH 14 0
BBX 12 18 1 -4
BITMAP
E070
F070
F070
F870
FC70
EC70
EE70
E670
E770
E370
E1F0
E1F0
E0F0
E070
0070
0070
01F0
01E0
ENDCHAR
STARTCHAR eng
ENCODING 331
SWIDTH 611 0
DWIDTH 11 0
BBX 9 14 1 -4
BITMAP
EF00
FF80
F380
E380
E380
E380
E380
E380
E380
E380
0380
0380
0F80
0F00
ENDCHAR
STARTCHAR Omacron
ENCODING 332
SWIDTH 778 0
DWIDTH 15 0
BBX 13 17 1 0
BITMAP
0F80
0F80
0000
0F80
3FE0
78F0
7070
F078
E038
E038
E038
E038
F078
7070
78F0
3FE0
0F80
ENDCHAR
STARTCHAR omacron
ENCODING 333
SWIDTH 611 0
DWIDTH 12 0
BBX 10 13 1 0
BITMAP
1F00
1F00
0000
1E00
7F80
7380
E1C0
E1C0
E1C0
E1C0
7380
7F80
1E00
ENDCHAR
STARTCHAR Obreve
ENCODING 334
SWIDTH 778 0
DWIDTH 15 0
BBX 13 18 1 0
BITMAP
18C0
1DC0
0F80
0000
0F80
3FE0
78F0
7070
F078
E038
E038
E038
E038
F078
7070
78F0
3FE0
0F80
ENDCHAR
STARTCHAR obreve
ENCODING 335
SWIDTH 611 0
DWIDTH 12 0
BBX 10 14 1 0
BITMAP
3180
3B80
1F00
0000
1E00
7F80
7380
E1C0
E1C0
E1C0
E1C0
7380
7F80
1E00
ENDCHAR
STARTCHAR Ohungarumlaut
ENCODING 336
SWIDTH 778 0
DWIDTH 15 0
BBX 13 18 1 0
BITMAP
0360
06C0
0D80
0000
0F80
3FE0
78F0
7070
F078
E038
E038
E038
E038
F078
7070
78F0
3FE0
0F80
ENDCHAR
STARTCHAR ohungarumlaut
ENCODING 337
SWIDTH 611 0
DWIDTH 12 0
BBX 10 14 1 0
BITMAP
0D80
1B00
3600
0000
1E00
7F80
7380
E1C0
E1C0
E1C0
E1C0
7380
7F80
1E00
ENDCHAR
STARTCHAR OE
ENCODING 338
SWIDTH 1000 0
DWIDTH 19 0
BBX 17 14 1 0
BITMAP
0FFF80
3FFF80
79E000
70E000
F0E000
E0E000
E0FF00
E0FF00
E0E000
F0E000
70E000
79E000
3FFF80
0FFF80
ENDCHAR
STARTCHAR oe
ENCODING 339
SWIDTH 944 0
DWIDTH 18 0
BBX 16 10 1 0
BITMAP
3F7C
7FFE
73C7
E1C7
E1FF
E1C0
E1C0
73E7
7FFF
3F7C
ENDCHAR
STARTCHAR Racute
ENCODING 340
SWIDTH 722 0
DWIDTH 14 0
BBX 12 18 1 0
BITMAP
0380
0700
0E00
0000
FF00
FFC0
E1E0
E0E0
E0E0
E1E0
FFC0
FF80
E1C0
E0E0
E0E0
E0E0
E0E0
E0F0
ENDCHAR
STARTCHAR racute
ENCODING 341
SWIDTH 389 0
DWIDTH 7 0
BBX 6 14 1 0
BITMAP
1C
38
70
00
EC
FC
FC
E0
E0
E0
E0
E0
E0
E0
ENDCHAR
STARTCHAR Rcommaaccent
ENCODING 342
SWIDTH 722 0
DWIDTH 14 0
BBX 12 21 1 -7
BITMAP
FF00
FFC0
E1E0
E0E0
E0E0
E1E0
FFC0
FF80
E1C0
E0E0
E0E0
E0E0
E0E0
E0F0
0000
0E00
0E00
0E00
0600
0C00
0800
ENDCHAR
STARTCHAR rcommaaccent
ENCODING 343
SWIDTH 389 0
DWIDTH 7 0
BBX 6 17 1 -7
BITMAP
EC
FC
FC
E0
E0
E0
E0
E0
E0
E0
00
70
70
70
30
60
40
ENDCHAR
STARTCHAR Rcaron
ENCODING 344
SWIDTH 722 0
DWIDTH 14 0
BBX 12 18 1 0
BITMAP
3B80
1F00
0E00
0000
FF00
FFC0
E1E0
E0E0
E0E0
E1E0
FFC0
FF80
E1C0
E0E0
E0E0
E0E0
E0E0
E0F0
ENDCHAR
STARTCHAR rcaron
ENCODING 345
SWIDTH 389 0
DWIDTH 7 0
BBX 7 14 0 0
BITMAP
EE
7C
38
00
76
7E
7E
70
70
70
70
70
70
70
ENDCHAR
STARTCHAR Sacute
ENCODING 346
SWIDTH 667 0
DWIDTH 13 0
BBX 11 18 1 0
BITMAP
0380
0700
0E00
0000
3F80
7FC0
F1E0
E0E0
F000
7E00
3F80
0FC0
01E0
E0E0
E0E0
F1E0
7FC0
3F80
ENDCHAR
STARTCHAR sacute
ENCODING 347
SWIDTH 556 0
DWIDTH 11 0
BBX 9 14 1 0
BITMAP
0700
0E00
1C00
0000
3F00
7F80
E380
E000
FF00
3F80
0380
E380
FF00
7E00
ENDCHAR
STARTCHAR Scircumflex
ENCODING 348
SWIDTH 667 0
DWIDTH 13 0
BBX 11 18 1 0
BITMAP
0E00
1F00
3B80
0000
3F80
7FC0
F1E0
E0E0
F000
7E00
3F80
0FC0
01E0
E0E0
E0E0
F1E0
7FC0
3F80
ENDCHAR
STARTCHAR scircumflex
ENCODING 349
SWIDTH 556 0
DWIDTH 11 0
BBX 9 14 1 0
BITMAP
1C00
3E00
7700
0000
3F00
7F80
E380
E000
FF00
3F80
0380
E380
FF00
7E00
ENDCHAR
STARTCHAR Scedilla
ENCODING 350
SWIDTH 667 0
DWIDTH 13 0
BBX 11 19 1 -5
BITMAP
3F80
7FC0
F1E0
E0E0
F000
7E00
3F80
0FC0
01E0
E0E0
E0E0
F1E0
7FC0
3F80
0C00
0E00
0300
1F00
1E00
ENDCHAR
STARTCHAR scedilla
ENCODING 351
SWIDTH 556 0
DWIDTH 11 0
BBX 9 15 1 -5
BITMAP
3F00
7F80
E380
E000
FF00
3F80
0380
E380
FF00
7E00
1800
1C00
0600
3E00
3C00
ENDCHAR
STARTCHAR Scaron
ENCODING 352
SWIDTH 667 0
DWIDTH 12 0
BBX 10 14 1 0
BITMAP
7700
3E00
1C00
0000
3F00
7F80
E380
F800
7E00
1F80
E3C0
F3C0
7F80
3F00
ENDCHAR
STARTCHAR scaron
ENCODING 353
SWIDTH 556 0
DWIDTH 10 0
BBX 8 14 1 0
BITMAP
77
3E
1C
00
1E
7F
E7
E0
FE
3F
07
E7
FE
78
ENDCHAR
STARTCHAR Tcommaaccent
ENCODING 354
SWIDTH 611 0
DWIDTH 11 0
BBX 11 19 0 -5
BITMAP
FFE0
FFE0
0E00
0E00
0E00
0E00
0E00
0E00
0E00
0E00
0E00
0E00
0E00
0E00
0C00
0E00
0300
1F00
1E00
ENDCHAR
STARTCHAR tcommaaccent
ENCODING 355
SWIDTH 333 0
DWIDTH 6 0
BBX 6 18 0 -5
BITMAP
70
70
70
FC
FC
70
70
70
70
70
70
7C
3C
30
38
0C
7C
78
ENDCHAR
STARTCHAR Tcaron
ENCODING 356
SWIDTH 611 0
DWIDTH 11 0
BBX 11 18 0 0
BITMAP
3B80
1F00
0E00
0000
FFE0
FFE0
0E00
0E00
0E00
0E00
0E00
0E00
0E00
0E00
0E00
0E00
0E00
0E00
ENDCHAR
STARTCHAR tcaron
ENCODING 357
SWIDTH 594 0
DWIDTH 11 0
BBX 10 14 0 0
BITMAP
01C0
71C0
70C0
70C0
FD80
FC00
7000
7000
7000
7000
7000
7000
7C00
3C00
ENDCHAR
STARTCHAR Tbar
ENCODING 358
SWIDTH 611 0
DWIDTH 11 0
BBX 11 14 0 0
BITMAP
FFE0
FFE0
0E00
0E00
0E00
0E00
0E00
0E00
0E00
0E00
0E00
0E00
0E00
0E00
ENDCHAR
STARTCHAR tbar
ENCODING 359
SWIDTH 333 0
DWIDTH 6 0
BBX 6 13 0 0
BITMAP
70
70
70
FC
FC
70
70
78
78
70
70
7C
3C
ENDCHAR
STARTCHAR Utilde
ENCODING 360
SWIDTH 722 0
DWIDTH 14 0
BBX 12 18 1 0
BITMAP
0EC0
1FC0
1B80
0000
E070
E070
E070
E070
E070
E070
E070
E070
E070
E070
E070
70E0
7FE0
1F80
ENDCHAR
STARTCHAR utilde
ENCODING 361
SWIDTH 611 0
DWIDTH 11 0
BBX 9 14 1 0
BITMAP
3B00
7F00
6E00
0000
E380
E380
E380
E380
E380
E380
E380
E780
FF80
7B80
ENDCHAR
STARTCHAR Umacron
ENCODING 362
SWIDTH 722 0
DWIDTH 14 0
BBX 12 17 1 0
BITMAP
0F80
0F80
0000
E070
E070
E070
E070
E070
E070
E070
E070
E070
E070
E070
70E0
7FE0
1F80
ENDCHAR
STARTCHAR umacron
ENCODING 363
SWIDTH 611 0
DWIDTH 11 0
BBX 9 13 1 0
BITMAP
3E00
3E00
0000
E380
E380
E380
E380
E380
E380
E380
E780
FF80
7B80
ENDCHAR
STARTCHAR Ubreve
ENCODING 364
SWIDTH 722 0
DWIDTH 14 0
BBX 12 18 1 0
BITMAP
18C0
1DC0
0F80
0000
E070
E070
E070
E070
E070
E070
E070
E070
E070
E070
E070
70E0
7FE0
1F80
ENDCHAR
STARTCHAR ubreve
ENCODING 365
SWIDTH 611 0
DWIDTH 11 0
BBX 9 14 1 0
BITMAP
6300
7700
3E00
0000
E380
E380
E380
E380
E380
E380
E380
E780
FF80
7B80
ENDCHAR
STARTCHAR Uring
ENCODING 366
SWIDTH 722 0
DWIDTH 14 0
BBX 12 19 1 0
BITMAP
0F00
1980
1980
0F00
0000
E070
E070
E070
E070
E070
E070
E070
E070
E070
E070
E070
70E0
7FE0
1F80
ENDCHAR
STARTCHAR uring
ENCODING 367
SWIDTH 611 0
DWIDTH 11 0
BBX 9 15 1 0
BITMAP
1E00
3300
3300
1E00
0000
E380
E380
E380
E380
E380
E380
E380
E780
FF80
7B80
ENDCHAR
STARTCHAR Uhungarumlaut
ENCODING 368
SWIDTH 722 0
DWIDTH 14 0
BBX 12 18 1 0
BITMAP
06C0
0D80
1B00
0000
E070
E070
E070
E070
E070
E070
E070
E070
E070
E070
E070
70E0
7FE0
1F80
ENDCHAR
STARTCHAR uhungarumlaut
ENCODING 369
SWIDTH 611 0
DWIDTH 11 0
BBX 9 14 1 0
BITMAP
0D80
1B00
3600
0000
E380
E380
E380
E380
E380
E380
E380
E780
FF80
7B80
ENDCHAR
STARTCHAR Uogonek
ENCODING 370
SWIDTH 722 0
DWIDTH 14 0
BBX 12 19 1 -5
BITMAP
E070
E070
E070
E070
E070
E070
E070
E070
E070
E070
E070
70E0
7FE0
1F80
0700
0E00
1C00
1F80
0F00
ENDCHAR
STARTCHAR uogonek
ENCODING 371
SWIDTH 611 0
DWIDTH 11 0
BBX 9 15 1 -5
BITMAP
E380
E380
E380
E380
E380
E380
E380
E780
FF80
7B80
0E00
1C00
3800
3F00
1E00
ENDCHAR
STARTCHAR Wcircumflex
ENCODING 372
SWIDTH 944 0
DWIDTH 17 0
BBX 15 18 1 0
BITMAP
0380
07C0
0EE0
0000
E38E
E38E
E38E
E38E
739C
739C
739C
76DC
36D8
36D8
3EF8
1C70
1C70
1C70
ENDCHAR
STARTCHAR wcircumflex
ENCODING 373
SWIDTH 778 0
DWIDTH 15 0
BBX 15 14 0 0
BITMAP
0380
07C0
0EE0
0000
E38E
E38E
E38E
739C
77DC
76DC
3EF8
3C78
1C70
1C70
ENDCHAR
STARTCHAR Ycircumflex
ENCODING 374
SWIDTH 667 0
DWIDTH 13 0
BBX 13 18 0 0
BITMAP
0700
0F80
1DC0
0000
E038
E038
7070
38E0
38E0
1DC0
1DC0
0F80
0700
0700
0700
0700
0700
0700
ENDCHAR
STARTCHAR ycircumflex
ENCODING 375
SWIDTH 556 0
DWIDTH 11 0
BBX 9 18 1 -4
BITMAP
1C00
3E00
7700
0000
E380
E380
E380
7700
7700
7700
3E00
3E00
1C00
1C00
1C00
1800
7800
7000
ENDCHAR
STARTCHAR Ydieresis
ENCODING 376
SWIDTH 667 0
DWIDTH 13 0
BBX 11 13 1 0
BITMAP
1B00
1B00
0000
E0E0
60C0
71C0
3180
1B00
1F00
0E00
0E00
0E00
0E00
ENDCHAR
STARTCHAR Zacute
ENCODING 377
SWIDTH 611 0
DWIDTH 12 0
BBX 10 18 1 0
BITMAP
0380
0700
0E00
0000
FFC0
FFC0
01C0
0380
0700
0700
0E00
1C00
3800
3800
7000
E000
FFC0
FFC0
ENDCHAR
STARTCHAR zacute
ENCODING 378
SWIDTH 500 0
DWIDTH 10 0
BBX 8 14 1 0
BITMAP
0E
1C
38
00
FF
FF
07
0E
1C
38
70
E0
FF
FF
ENDCHAR
STARTCHAR Zdotaccent
ENCODING 379
SWIDTH 611 0
DWIDTH 12 0
BBX 10 17 1 0
BITMAP
0C00
0C00
0000
FFC0
FFC0
01C0
0380
0700
0700
0E00
1C00
3800
3800
7000
E000
FFC0
FFC0
ENDCHAR
STARTCHAR zdotaccent
ENCODING 380
SWIDTH 500 0
DWIDTH 10 0
BBX 8 13 1 0
BITMAP
18
18
00
FF
FF
07
0E
1C
38
70
E0
FF
FF
ENDCHAR
STARTCHAR Zcaron
ENCODING 381
SWIDTH 611 0
DWIDTH 11 0
BBX 10 14 0 0
BITMAP
7700
3E00
1C00
0000
FF80
FF80
0700
0E00
1C00
3800
7000
E000
FFC0
FFC0
ENDCHAR
STARTCHAR zcaron
ENCODING 382
SWIDTH 500 0
DWIDTH 10 0
BBX 8 14 1 0
BITMAP
EE
7C
38
00
FF
FF
07
0E
1C
38
70
E0
FF
FF
ENDCHAR
STARTCHAR uni0186
ENCODING 390
SWIDTH 722 0
DWIDTH 14 0
BBX 12 14 1 0
BITMAP
1F00
7FC0
71E0
E0E0
E0F0
0070
0070
0070
0070
E0F0
E0E0
71E0
7FC0
1F00
ENDCHAR
STARTCHAR uni0189
ENCODING 393
SWIDTH 722 0
DWIDTH 14 0
BBX 14 14 -1 0
BITMAP
3FC0
3FF0
3878
3838
381C
381C
FF1C
FF1C
381C
381C
3838
3878
3FF0
3FC0
ENDCHAR
STARTCHAR uni018E
ENCODING 398
SWIDTH 667 0
DWIDTH 13 0
BBX 10 14 2 0
BITMAP
FFC0
FFC0
01C0
01C0
01C0
01C0
7FC0
7FC0
01C0
01C0
01C0
01C0
FFC0
FFC0
ENDCHAR
STARTCHAR florin
ENCODING 402
SWIDTH 556 0
DWIDTH 10 0
BBX 10 17 -1 -4
BITMAP
03C0
07C0
0E00
0E00
7F80
7F80
1C00
1C00
1C00
1C00
1C00
3800
3800
3800
3800
F000
E000
ENDCHAR
STARTCHAR uni0197
ENCODING 407
SWIDTH 278 0
DWIDTH 5 0
BBX 3 14 1 0
BITMAP
E0
E0
E0
E0
E0
E0
E0
E0
E0
E0
E0
E0
E0
E0
ENDCHAR
STARTCHAR uni019A
ENCODING 410
SWIDTH 278 0
DWIDTH 5 0
BBX 3 14 1 0
BITMAP
E0
E0
E0
E0
E0
E0
E0
E0
E0
E0
E0
E0
E0
E0
ENDCHAR
STARTCHAR uni019D
ENCODING 413
SWIDTH 722 0
DWIDTH 14 0
BBX 14 18 -1 -4
BITMAP
381C
3C1C
3C1C
3E1C
3F1C
3B1C
3B9C
399C
39DC
38DC
387C
387C
383C
381C
3800
3800
F800
F000
ENDCHAR
STARTCHAR uni019F
ENCODING 415
SWIDTH 778 0
DWIDTH 15 0
BBX 13 14 1 0
BITMAP
0F80
3FE0
78F0
7070
F078
E038
FFF8
FFF8
E038
F078
7070
78F0
3FE0
0F80
ENDCHAR
STARTCHAR Ohorn
ENCODING 416
SWIDTH 778 0
DWIDTH 15 0
BBX 15 14 1 0
BITMAP
0F8E
3FEE
78F6
7076
F07C
E038
E038
E038
E038
F078
7070
78F0
3FE0
0F80
ENDCHAR
STARTCHAR ohorn
ENCODING 417
SWIDTH 611 0
DWIDTH 12 0
BBX 12 10 1 0
BITMAP
1E70
7FF0
73B0
E1F0
E1E0
E1C0
E1C0
7380
7F80
1E00
ENDCHAR
STARTCHAR uni01A7
ENCODING 423
SWIDTH 667 0
DWIDTH 13 0
BBX 11 14 1 0
BITMAP
3F80
7FC0
F1E0
E0E0
01E0
0FC0
3F80
7E00
F000
E0E0
E0E0
F1E0
7FC0
3F80
ENDCHAR
STARTCHAR uni01A8
ENCODING 424
SWIDTH 556 0
DWIDTH 11 0
BBX 9 10 1 0
BITMAP
7E00
FF00
E380
0380
7F80
FE00
E000
E380
7F80
3F00
ENDCHAR
STARTCHAR uni01AE
ENCODING 430
SWIDTH 611 0
DWIDTH 11 0
BBX 11 18 0 -4
BITMAP
FFE0
FFE0
0E00
0E00
0E00
0E00
0E00
0E00
0E00
0E00
0E00
0E00
0E00
0E00
0E00
0E00
0F80
0780
ENDCHAR
STARTCHAR Uhorn
ENCODING 431
SWIDTH 722 0
DWIDTH 14 0
BBX 14 14 1 0
BITMAP
E07C
E07C
E07C
E07C
E078
E070
E070
E070
E070
E070
E070
70E0
7FE0
1F80
ENDCHAR
STARTCHAR uhorn
ENCODING 432
SWIDTH 611 0
DWIDTH 11 0
BBX 11 10 1 0
BITMAP
E3E0
E3E0
E3E0
E3E0
E3C0
E380
E380
E780
FF80
7B80
ENDCHAR
STARTCHAR uni01B5
ENCODING 437
SWIDTH 611 0
DWIDTH 12 0
BBX 10 14 1 0
BITMAP
FFC0
FFC0
01C0
0380
0700
0700
0E00
1E00
3800
3800
7000
E000
FFC0
FFC0
ENDCHAR
STARTCHAR uni01B6
ENCODING 438
SWIDTH 500 0
DWIDTH 10 0
BBX 8 10 1 0
BITMAP
FF
FF
07
0E
1C
3C
70
E0
FF
FF
ENDCHAR
STARTCHAR uni01BB
ENCODING 443
SWIDTH 556 0
DWIDTH 10 0
BBX 9 13 0 0
BITMAP
3E00
7F00
E380
E380
0380
FF80
FF80
3E00
7800
7000
E000
FF80
FF80
ENDCHAR
STARTCHAR uni01BC
ENCODING 444
SWIDTH 556 0
DWIDTH 10 0
BBX 9 13 0 0
BITMAP
FF00
FF00
E000
E000
FE00
FF00
E780
0380
0380
E380
E780
FF00
7E00
ENDCHAR
STARTCHAR uni01C0
ENCODING 448
SWIDTH 280 0
DWIDTH 5 0
BBX 2 18 1 -4
BITMAP
C0
C0
C0
C0
C0
C0
C0
C0
C0
C0
C0
C0
C0
C0
C0
C0
C0
C0
ENDCHAR
STARTCHAR uni01C2
ENCODING 450
SWIDTH 584 0
DWIDTH 11 0
BBX 9 18 1 -3
BITMAP
0C00
0C00
0C00
0C00
0C00
0C00
0C00
FF80
FF80
0C00
FF80
FF80
0C00
0C00
0C00
0C00
0C00
0C00
ENDCHAR
STARTCHAR uni01C3
ENCODING 451
SWIDTH 333 0
DWIDTH 5 0
BBX 3 14 1 0
BITMAP
E0
E0
E0
E0
E0
E0
E0
E0
C0
C0
00
E0
E0
E0
ENDCHAR
STARTCHAR uni01CD
ENCODING 461
SWIDTH 722 0
DWIDTH 14 0
BBX 12 18 1 0
BITMAP
1DC0
0F80
0700
0000
0F00
0F00
1F80
1980
1980
39C0
39C0
30C0
70E0
7FE0
7FE0
E070
E070
E070
ENDCHAR
STARTCHAR uni01CE
ENCODING 462
SWIDTH 556 0
DWIDTH 11 0
BBX 10 14 1 0
BITMAP
7700
3E00
1C00
0000
3E00
7F00
6380
0780
3F80
7B80
E380
E780
FB80
7BC0
ENDCHAR
STARTCHAR uni01CF
ENCODING 463
SWIDTH 278 0
DWIDTH 5 0
BBX 7 18 -1 0
BITMAP
EE
7C
38
00
38
38
38
38
38
38
38
38
38
38
38
38
38
38
ENDCHAR
STARTCHAR uni01D0
ENCODING 464
SWIDTH 278 0
DWIDTH 5 0
BBX 7 14 -1 0
BITMAP
EE
7C
38
00
38
38
38
38
38
38
38
38
38
38
ENDCHAR
STARTCHAR uni01D1
ENCODING 465
SWIDTH 778 0
DWIDTH 15 0
BBX 13 18 1 0
BITMAP
1DC0
0F80
0700
0000
0F80
3FE0
78F0
7070
F078
E038
E038
E038
E038
F078
7070
78F0
3FE0
0F80
ENDCHAR
STARTCHAR uni01D2
ENCODING 466
SWIDTH 611 0
DWIDTH 12 0
BBX 10 14 1 0
BITMAP
3B80
1F00
0E00
0000
1E00
7F80
7380
E1C0
E1C0
E1C0
E1C0
7380
7F80
1E00
ENDCHAR
STARTCHAR uni01D3
ENCODING 467
SWIDTH 722 0
DWIDTH 14 0
BBX 12 18 1 0
BITMAP
1DC0
0F80
0700
0000
E070
E070
E070
E070
E070
E070
E070
E070
E070
E070
E070
70E0
7FE0
1F80
ENDCHAR
STARTCHAR uni01D4
ENCODING 468
SWIDTH 611 0
DWIDTH 11 0
BBX 9 14 1 0
BITMAP
7700
3E00
1C00
0000
E380
E380
E380
E380
E380
E380
E380
E780
FF80
7B80
ENDCHAR
STARTCHAR uni01D5
ENCODING 469
SWIDTH 722 0
DWIDTH 14 0
BBX 12 21 1 0
BITMAP
0F80
0F80
0000
1980
1980
1980
0000
E070
E070
E070
E070
E070
E070
E070
E070
E070
E070
E070
70E0
7FE0
1F80
ENDCHAR
STARTCHAR uni01D6
ENCODING 470
SWIDTH 611 0
DWIDTH 11 0
BBX 9 17 1 0
BITMAP
3E00
3E00
0000
3300
3300
3300
0000
E380
E380
E380
E380
E380
E380
E380
E780
FF80
7B80
ENDCHAR
STARTCHAR uni01D7
ENCODING 471
SWIDTH 722 0
DWIDTH 14 0
BBX 12 22 1 0
BITMAP
0380
0700
0E00
0000
1980
1980
1980
0000
E070
E070
E070
E070
E070
E070
E070
E070
E070
E070
E070
70E0
7FE0
1F80
ENDCHAR
STARTCHAR uni01D8
ENCODING 472
SWIDTH 611 0
DWIDTH 11 0
BBX 9 18 1 0
BITMAP
0700
0E00
1C00
0000
3300
3300
3300
0000
E380
E380
E380
E380
E380
E380
E380
E780
FF80
7B80
ENDCHAR
STARTCHAR uni01D9
ENCODING 473
SWIDTH 722 0
DWIDTH 14 0
BBX 12 22 1 0
BITMAP
1DC0
0F80
0700
0000
1980
1980
1980
0000
E070
E070
E070
E070
E070
E070
E070
E070
E070
E070
E070
70E0
7FE0
1F80
ENDCHAR
STARTCHAR uni01DA
ENCODING 474
SWIDTH 611 0
DWIDTH 11 0
BBX 9 18 1 0
BITMAP
7700
3E00
1C00
0000
3300
3300
3300
0000
E380
E380
E380
E380
E380
E380
E380
E780
FF80
7B80
ENDCHAR
STARTCHAR uni01DB
ENCODING 475
SWIDTH 722 0
DWIDTH 14 0
BBX 12 22 1 0
BITMAP
1C00
0E00
0700
0000
1980
1980
1980
0000
E070
E070
E070
E070
E070
E070
E070
E070
E070
E070
E070
70E0
7FE0
1F80
ENDCHAR
STARTCHAR uni01DC
ENCODING 476
SWIDTH 611 0
DWIDTH 11 0
BBX 9 18 1 0
BITMAP
3800
1C00
0E00
0000
3300
3300
3300
0000
E380
E380
E380
E380
E380
E380
E380
E780
FF80
7B80
ENDCHAR
STARTCHAR uni01DD
ENCODING 477
SWIDTH 556 0
DWIDTH 11 0
BBX 9 10 1 0
BITMAP
3C00
FF00
E700
0380
FF80
FF80
C380
E700
7F00
3C00
ENDCHAR
STARTCHAR uni01DE
ENCODING 478
SWIDTH 722 0
DWIDTH 14 0
BBX 12 21 1 0
BITMAP
0F80
0F80
0000
1980
1980
1980
0000
0F00
0F00
1F80
1980
1980
39C0
39C0
30C0
70E0
7FE0
7FE0
E070
E070
E070
ENDCHAR
STARTCHAR uni01DF
ENCODING 479
SWIDTH 556 0
DWIDTH 11 0
BBX 10 17 1 0
BITMAP
1F00
1F00
0000
3300
3300
3300
0000
3E00
7F00
7380
0780
3F80
7B80
E380
E780
FB80
7BC0
ENDCHAR
STARTCHAR uni01E0
ENCODING 480
SWIDTH 722 0
DWIDTH 14 0
BBX 12 20 1 0
BITMAP
0F80
0F80
0000
0600
0600
0000
0F00
0F00
1F80
1980
1980
39C0
39C0
30C0
70E0
7FE0
7FE0
E070
E070
E070
ENDCHAR
STARTCHAR uni01E1
ENCODING 481
SWIDTH 556 0
DWIDTH 11 0
BBX 10 16 1 0
BITMAP
3E00
3E00
0000
0C00
0C00
0000
3E00
7F00
6380
0780
3F80
7B80
E380
E780
FB80
7BC0
ENDCHAR
STARTCHAR uni01E2
ENCODING 482
SWIDTH 1000 0
DWIDTH 18 0
BBX 16 17 1 0
BITMAP
03E0
03E0
0000
0FFF
0FFF
1F80
1B80
3B80
3B80
33FE
73FE
7380
7F80
FF80
E380
E3FF
E3FF
ENDCHAR
STARTCHAR uni01E3
ENCODING 483
SWIDTH 889 0
DWIDTH 16 0
BBX 14 13 1 0
BITMAP
07C0
07C0
0000
3DF0
7FF8
671C
0F1C
3FFC
7700
E700
EF9C
FFFC
79F0
ENDCHAR
STARTCHAR uni01E4
ENCODING 484
SWIDTH 778 0
DWIDTH 15 0
BBX 12 14 1 0
BITMAP
0F80
3FE0
78E0
7070
F070
E000
E000
E3F0
E3F0
F070
7070
78F0
3FF0
1FB0
ENDCHAR
STARTCHAR uni01E5
ENCODING 485
SWIDTH 611 0
DWIDTH 12 0
BBX 10 14 1 -4
BITMAP
3DC0
7FC0
73C0
E1C0
E1C0
E1C0
E1C0
73C0
7FC0
FFC0
FFC0
7380
7F80
1E00
ENDCHAR
STARTCHAR Gcaron
ENCODING 486
SWIDTH 778 0
DWIDTH 15 0
BBX 12 18 1 0
BITMAP
1DC0
0F80
0700
0000
0F80
3FE0
78E0
7070
F070
E000
E000
E3F0
E3F0
F070
7070
78F0
3FF0
1FB0
ENDCHAR
STARTCHAR gcaron
ENCODING 487
SWIDTH 611 0
DWIDTH 12 0
BBX 10 18 1 -4
BITMAP
3B80
1F00
0E00
0000
3DC0
7FC0
73C0
E1C0
E1C0
E1C0
E1C0
73C0
7FC0
3DC0
01C0
7380
7F80
1E00
ENDCHAR
STARTCHAR uni01E8
ENCODING 488
SWIDTH 722 0
DWIDTH 14 0
BBX 13 18 1 0
BITMAP
3B80
1F00
0E00
0000
E0F0
E1E0
E3C0
E780
EF00
FE00
FC00
FE00
EF00
E780
E3C0
E1E0
E0F0
E078
ENDCHAR
STARTCHAR uni01E9
ENCODING 489
SWIDTH 556 0
DWIDTH 10 0
BBX 10 18 0 0
BITMAP
EE00
7C00
3800
0000
7000
7000
7000
7000
7380
7700
7E00
7C00
7C00
7E00
7700
7380
73C0
71C0
ENDCHAR
STARTCHAR uni01EA
ENCODING 490
SWIDTH 778 0
DWIDTH 15 0
BBX 13 19 1 -5
BITMAP
0F80
3FE0
78F0
7070
F078
E038
E038
E038
E038
F078
7070
78F0
3FE0
0F80
0380
0700
0E00
0FC0
0780
ENDCHAR
STARTCHAR uni01EB
ENCODING 491
SWIDTH 611 0
DWIDTH 12 0
BBX 10 15 1 -5
BITMAP
1E00
7F80
7380
E1C0
E1C0
E1C0
E1C0
7380
7F80
1E00
0E00
1C00
3800
3F00
1E00
ENDCHAR
STARTCHAR uni01EC
ENCODING 492
SWIDTH 778 0
DWIDTH 15 0
BBX 13 22 1 -5
BITMAP
0F80
0F80
0000
0F80
3FE0
78F0
7070
F078
E038
E038
E038
E038
F078
7070
78F0
3FE0
0F80
0380
0700
0E00
0FC0
0780
ENDCHAR
STARTCHAR uni01ED
ENCODING 493
SWIDTH 611 0
DWIDTH 12 0
BBX 10 18 1 -5
BITMAP
1F00
1F00
0000
1E00
7F80
7380
E1C0
E1C0
E1C0
E1C0
7380
7F80
1E00
0E00
1C00
3800
3F00
1E00
ENDCHAR
STARTCHAR uni01F0
ENCODING 496
SWIDTH 278 0
DWIDTH 5 0
BBX 7 18 -1 -4
BITMAP
EE
7C
38
00
38
38
38
38
38
38
38
38
38
38
38
38
F8
F0
ENDCHAR
STARTCHAR uni01F4
ENCODING 500
SWIDTH 778 0
DWIDTH 15 0
BBX 12 18 1 0
BITMAP
0380
0700
0E00
0000
0F80
3FE0
78E0
7070
F070
E000
E000
E3F0
E3F0
F070
7070
78F0
3FF0
1FB0
ENDCHAR
STARTCHAR uni01F5
ENCODING 501
SWIDTH 611 0
DWIDTH 12 0
BBX 10 18 1 -4
BITMAP
0380
0700
0E00
0000
3DC0
7FC0
73C0
E1C0
E1C0
E1C0
E1C0
73C0
7FC0
3DC0
01C0
7380
7F80
1E00
ENDCHAR
STARTCHAR uni01F8
ENCODING 504
SWIDTH 722 0
DWIDTH 14 0
BBX 12 18 1 0
BITMAP
1C00
0E00
0700
0000
E070
F070
F070
F870
FC70
EC70
EE70
E670
E770
E370
E1F0
E1F0
E0F0
E070
ENDCHAR
STARTCHAR uni01F9
ENCODING 505
SWIDTH 611 0
DWIDTH 11 0
BBX 9 14 1 0
BITMAP
7000
3800
1C00
0000
EF00
FF80
F380
E380
E380
E380
E380
E380
E380
E380
ENDCHAR
STARTCHAR Aringacute
ENCODING 506
SWIDTH 722 0
DWIDTH 14 0
BBX 12 22 1 0
BITMAP
0380
0700
0E00
0000
0F00
1980
1980
0F00
0F00
0F00
1F80
1980
1980
39C0
39C0
30C0
70E0
7FE0
7FE0
E070
E070
E070
ENDCHAR
STARTCHAR aringacute
ENCODING 507
SWIDTH 556 0
DWIDTH 11 0
BBX 10 18 1 0
BITMAP
0700
0E00
1C00
0000
3C00
6600
6600
3C00
3E00
7F00
7380
0780
3F80
7B80
E380
E780
FB80
7BC0
ENDCHAR
STARTCHAR AEacute
ENCODING 508
SWIDTH 1000 0
DWIDTH 18 0
BBX 16 18 1 0
BITMAP
0070
00E0
01C0
0000
0FFF
0FFF
1F80
1B80
3B80
3B80
33FE
73FE
7380
7F80
FF80
E380
E3FF
E3FF
ENDCHAR
STARTCHAR aeacute
ENCODING 509
SWIDTH 889 0
DWIDTH 16 0
BBX 14 14 1 0
BITMAP
01C0
0380
0700
0000
3DF0
7FF8
671C
0F1C
3FFC
7700
E700
EF9C
FFFC
79F0
ENDCHAR
STARTCHAR Oslashacute
ENCODING 510
SWIDTH 778 0
DWIDTH 15 0
BBX 15 18 0 0
BITMAP
00E0
01C0
0380
0000
07C6
1FFC
3C38
3878
78DC
719C
711C
731C
761C
7C3C
3838
3C78
7FF0
C7C0
ENDCHAR
STARTCHAR oslashacute
ENCODING 511
SWIDTH 611 0
DWIDTH 12 0
BBX 12 14 0 0
BITMAP
01C0
0380
0700
0000
0F30
3FE0
39C0
73E0
77E0
7EE0
7CE0
39C0
7FC0
CF00
ENDCHAR
STARTCHAR uni0200
ENCODING 512
SWIDTH 722 0
DWIDTH 14 0
BBX 12 18 1 0
BITMAP
3600
1B00
0D80
0000
0F00
0F00
1F80
1980
1980
39C0
39C0
30C0
70E0
7FE0
7FE0
E070
E070
E070
ENDCHAR
STARTCHAR uni0201
ENCODING 513
SWIDTH 556 0
DWIDTH 11 0
BBX 10 14 1 0
BITMAP
6C00
3600
1B00
0000
3E00
7F00
6380
0780
3F80
7B80
E380
E780
FB80
7BC0
ENDCHAR
STARTCHAR uni0202
ENCODING 514
SWIDTH 722 0
DWIDTH 14 0
BBX 12 18 1 0
BITMAP
0F80
1DC0
18C0
0000
0F00
0F00
1F80
1980
1980
39C0
39C0
30C0
70E0
7FE0
7FE0
E070
E070
E070
ENDCHAR
STARTCHAR uni0203
ENCODING 515
SWIDTH 556 0
DWIDTH 11 0
BBX 10 14 1 0
BITMAP
3E00
7700
6300
0000
3E00
7F00
6380
0780
3F80
7B80
E380
E780
FB80
7BC0
ENDCHAR
STARTCHAR uni0204
ENCODING 516
SWIDTH 667 0
DWIDTH 13 0
BBX 10 18 2 0
BITMAP
D800
6C00
3600
0000
FFC0
FFC0
E000
E000
E000
E000
FF80
FF80
E000
E000
E000
E000
FFC0
FFC0
ENDCHAR
STARTCHAR uni0205
ENCODING 517
SWIDTH 556 0
DWIDTH 11 0
BBX 9 14 1 0
BITMAP
6C00
3600
1B00
0000
1E00
7F00
7380
E180
FF80
FF80
E000
7380
7F80
1E00
ENDCHAR
STARTCHAR uni0206
ENCODING 518
SWIDTH 667 0
DWIDTH 13 0
BBX 10 18 2 0
BITMAP
3E00
7700
6300
0000
FFC0
FFC0
E000
E000
E000
E000
FF80
FF80
E000
E000
E000
E000
FFC0
FFC0
ENDCHAR
STARTCHAR uni0207
ENCODING 519
SWIDTH 556 0
DWIDTH 11 0
BBX 9 14 1 0
BITMAP
3E00
7700
6300
0000
1E00
7F00
7380
E180
FF80
FF80
E000
7380
7F80
1E00
ENDCHAR
STARTCHAR uni0208
ENCODING 520
SWIDTH 278 0
DWIDTH 5 0
BBX 7 18 -2 0
BITMAP
D8
6C
36
00
1C
1C
1C
1C
1C
1C
1C
1C
1C
1C
1C
1C
1C
1C
ENDCHAR
STARTCHAR uni0209
ENCODING 521
SWIDTH 278 0
DWIDTH 5 0
BBX 7 14 -2 0
BITMAP
D8
6C
36
00
1C
1C
1C
1C
1C
1C
1C
1C
1C
1C
ENDCHAR
STARTCHAR uni020A
ENCODING 522
SWIDTH 278 0
DWIDTH 5 0
BBX 7 18 -1 0
BITMAP
7C
EE
C6
00
38
38
38
38
38
38
38
38
38
38
38
38
38
38
ENDCHAR
STARTCHAR uni020B
ENCODING 523
SWIDTH 278 0
DWIDTH 5 0
BBX 7 14 -1 0
BITMAP
7C
EE
C6
00
38
38
38
38
38
38
38
38
38
38
ENDCHAR
STARTCHAR uni020C
ENCODING 524
SWIDTH 778 0
DWIDTH 15 0
BBX 13 18 1 0
BITMAP
3600
1B00
0D80
0000
0F80
3FE0
78F0
7070
F078
E038
E038
E038
E038
F078
7070
78F0
3FE0
0F80
ENDCHAR
STARTCHAR uni020D
ENCODING 525
SWIDTH 611 0
DWIDTH 12 0
BBX 10 14 1 0
BITMAP
6C00
3600
1B00
0000
1E00
7F80
7380
E1C0
E1C0
E1C0
E1C0
7380
7F80
1E00
ENDCHAR
STARTCHAR uni020E
ENCODING 526
SWIDTH 778 0
DWIDTH 15 0
BBX 13 18 1 0
BITMAP
0F80
1DC0
18C0
0000
0F80
3FE0
78F0
7070
F078
E038
E038
E038
E038
F078
7070
78F0
3FE0
0F80
ENDCHAR
STARTCHAR uni020F
ENCODING 527
SWIDTH 611 0
DWIDTH 12 0
BBX 10 14 1 0
BITMAP
1F00
3B80
3180
0000
1E00
7F80
7380
E1C0
E1C0
E1C0
E1C0
7380
7F80
1E00
ENDCHAR
STARTCHAR uni0210
ENCODING 528
SWIDTH 722 0
DWIDTH 14 0
BBX 12 18 1 0
BITMAP
6C00
3600
1B00
0000
FF00
FFC0
E1E0
E0E0
E0E0
E1E0
FFC0
FF80
E1C0
E0E0
E0E0
E0E0
E0E0
E0F0
ENDCHAR
STARTCHAR uni0211
ENCODING 529
SWIDTH 389 0
DWIDTH 7 0
BBX 7 14 0 0
BITMAP
D8
6C
36
00
76
7E
7E
70
70
70
70
70
70
70
ENDCHAR
STARTCHAR uni0212
ENCODING 530
SWIDTH 722 0
DWIDTH 14 0
BBX 12 18 1 0
BITMAP
1F00
3B80
3180
0000
FF00
FFC0
E1E0
E0E0
E0E0
E1E0
FFC0
FF80
E1C0
E0E0
E0E0
E0E0
E0E0
E0F0
ENDCHAR
STARTCHAR uni0213
ENCODING 531
SWIDTH 389 0
DWIDTH 7 0
BBX 7 14 0 0
BITMAP
7C
EE
C6
00
76
7E
7E
70
70
70
70
70
70
70
ENDCHAR
STARTCHAR uni0214
ENCODING 532
SWIDTH 722 0
DWIDTH 14 0
BBX 12 18 1 0
BITMAP
3600
1B00
0D80
0000
E070
E070
E070
E070
E070
E070
E070
E070
E070
E070
E070
70E0
7FE0
1F80
ENDCHAR
STARTCHAR uni0215
ENCODING 533
SWIDTH 611 0
DWIDTH 11 0
BBX 9 14 1 0
BITMAP
D800
6C00
3600
0000
E380
E380
E380
E380
E380
E380
E380
E780
FF80
7B80
ENDCHAR
STARTCHAR uni0216
ENCODING 534
SWIDTH 722 0
DWIDTH 14 0
BBX 12 18 1 0
BITMAP
0F80
1DC0
18C0
0000
E070
E070
E070
E070
E070
E070
E070
E070
E070
E070
E070
70E0
7FE0
1F80
ENDCHAR
STARTCHAR uni0217
ENCODING 535
SWIDTH 611 0
DWIDTH 11 0
BBX 9 14 1 0
BITMAP
3E00
7700
6300
0000
E380
E380
E380
E380
E380
E380
E380
E780
FF80
7B80
ENDCHAR
STARTCHAR Scommaaccent
ENCODING 536
SWIDTH 667 0
DWIDTH 13 0
BBX 11 21 1 -7
BITMAP
3F80
7FC0
F1E0
E0E0
F000
7E00
3F80
0FC0
01E0
E0E0
E0E0
F1E0
7FC0
3F80
0000
0E00
0E00
0E00
0600
0C00
0800
ENDCHAR
STARTCHAR scommaaccent
ENCODING 537
SWIDTH 556 0
DWIDTH 11 0
BBX 9 17 1 -7
BITMAP
3F00
7F80
E380
E000
FF00
3F80
0380
E380
FF00
7E00
0000
1C00
1C00
1C00
0C00
1800
1000
ENDCHAR
STARTCHAR Tcommaaccent
ENCODING 538
SWIDTH 611 0
DWIDTH 11 0
BBX 11 21 0 -7
BITMAP
FFE0
FFE0
0E00
0E00
0E00
0E00
0E00
0E00
0E00
0E00
0E00
0E00
0E00
0E00
0000
0E00
0E00
0E00
0600
0C00
0800
ENDCHAR
STARTCHAR tcommaaccent
ENCODING 539
SWIDTH 333 0
DWIDTH 6 0
BBX 6 20 0 -7
BITMAP
70
70
70
FC
FC
70
70
70
70
70
70
7C
3C
00
38
38
38
18
30
20
ENDCHAR
STARTCHAR uni021E
ENCODING 542
SWIDTH 722 0
DWIDTH 14 0
BBX 12 18 1 0
BITMAP
1DC0
0F80
0700
0000
E070
E070
E070
E070
E070
E070
FFF0
FFF0
E070
E070
E070
E070
E070
E070
ENDCHAR
STARTCHAR uni021F
ENCODING 543
SWIDTH 611 0
DWIDTH 11 0
BBX 10 18 0 0
BITMAP
EE00
7C00
3800
0000
7000
7000
7000
7000
7780
7FC0
79C0
71C0
71C0
71C0
71C0
71C0
71C0
71C0
ENDCHAR
STARTCHAR uni0226
ENCODING 550
SWIDTH 722 0
DWIDTH 14 0
BBX 12 17 1 0
BITMAP
0600
0600
0000
0F00
0F00
1F80
1980
1980
39C0
39C0
30C0
70E0
7FE0
7FE0
E070
E070
E070
ENDCHAR
STARTCHAR uni0227
ENCODING 551
SWIDTH 556 0
DWIDTH 11 0
BBX 10 13 1 0
BITMAP
0C00
0C00
0000
3E00
7F00
6380
0780
3F80
7B80
E380
E780
FB80
7BC0
ENDCHAR
STARTCHAR uni0228
ENCODING 552
SWIDTH 667 0
DWIDTH 13 0
BBX 10 19 2 -5
BITMAP
FFC0
FFC0
E000
E000
E000
E000
FF80
FF80
E000
E000
E000
E000
FFC0
FFC0
1800
1C00
0600
3E00
3C00
ENDCHAR
STARTCHAR uni0229
ENCODING 553
SWIDTH 556 0
DWIDTH 11 0
BBX 9 15 1 -5
BITMAP
1E00
7F00
7380
E180
FF80
FF80
E000
7380
7F80
1E00
1800
1C00
0600
3E00
3C00
ENDCHAR
STARTCHAR uni022A
ENCODING 554
SWIDTH 778 0
DWIDTH 15 0
BBX 13 21 1 0
BITMAP
0F80
0F80
0000
0CC0
0CC0
0CC0
0000
0F80
3FE0
78F0
7070
F078
E038
E038
E038
E038
F078
7070
78F0
3FE0
0F80
ENDCHAR
STARTCHAR uni022B
ENCODING 555
SWIDTH 611 0
DWIDTH 12 0
BBX 10 17 1 0
BITMAP
1F00
1F00
0000
3300
3300
3300
0000
1E00
7F80
7380
E1C0
E1C0
E1C0
E1C0
7380
7F80
1E00
ENDCHAR
STARTCHAR uni022C
ENCODING 556
SWIDTH 778 0
DWIDTH 15 0
BBX 13 21 1 0
BITMAP
07C0
07C0
0000
0710
0FE0
11C0
0000
0F80
3FE0
78F0
7070
F078
E038
E038
E038
E038
F078
7070
78F0
3FE0
0F80
ENDCHAR
STARTCHAR uni022D
ENCODING 557
SWIDTH 611 0
DWIDTH 12 0
BBX 10 17 1 0
BITMAP
3E00
3E00
0000
3B00
7F00
6E00
0000
1E00
7F80
7380
E1C0
E1C0
E1C0
E1C0
7380
7F80
1E00
ENDCHAR
STARTCHAR uni022E
ENCODING 558
SWIDTH 778 0
DWIDTH 15 0
BBX 13 17 1 0
BITMAP
0300
0300
0000
0F80
3FE0
78F0
7070
F078
E038
E038
E038
E038
F078
7070
78F0
3FE0
0F80
ENDCHAR
STARTCHAR uni022F
ENCODING 559
SWIDTH 611 0
DWIDTH 12 0
BBX 10 13 1 0
BITMAP
0C00
0C00
0000
1E00
7F80
7380
E1C0
E1C0
E1C0
E1C0
7380
7F80
1E00
ENDCHAR
STARTCHAR uni0230
ENCODING 560
SWIDTH 778 0
DWIDTH 15 0
BBX 13 20 1 0
BITMAP
0F80
0F80
0000
0300
0300
0000
0F80
3FE0
78F0
7070
F078
E038
E038
E038
E038
F078
7070
78F0
3FE0
0F80
ENDCHAR
STARTCHAR uni0231
ENCODING 561
SWIDTH 611 0
DWIDTH 12 0
BBX 10 16 1 0
BITMAP
1F00
1F00
0000
0C00
0C00
0000
1E00
7F80
7380
E1C0
E1C0
E1C0
E1C0
7380
7F80
1E00
ENDCHAR
STARTCHAR uni0232
ENCODING 562
SWIDTH 667 0
DWIDTH 13 0
BBX 13 17 0 0
BITMAP
0F80
0F80
0000
E038
E038
7070
38E0
38E0
1DC0
1DC0
0F80
0700
0700
0700
0700
0700
0700
ENDCHAR
STARTCHAR uni0233
ENCODING 563
SWIDTH 556 0
DWIDTH 11 0
BBX 9 17 1 -4
BITMAP
3E00
3E00
0000
E380
E380
E380
7700
7700
7700
3E00
3E00
1C00
1C00
1C00
1800
7800
7000
ENDCHAR
STARTCHAR uni0250
ENCODING 592
SWIDTH 556 0
DWIDTH 11 0
BBX 10 10 1 0
BITMAP
F780
77C0
79C0
71C0
7780
7F00
7800
7180
3F80
1F00
ENDCHAR
STARTCHAR uni0254
ENCODING 596
SWIDTH 556 0
DWIDTH 11 0
BBX 9 10 1 0
BITMAP
3C00
FF00
E700
0380
0380
0380
0380
E700
FF00
3C00
ENDCHAR
STARTCHAR uni0258
ENCODING 600
SWIDTH 556 0
DWIDTH 11 0
BBX 9 10 1 0
BITMAP
3C00
7F00
E700
C380
FF80
FF80
0380
E700
FF00
3C00
ENDCHAR
STARTCHAR uni0259
ENCODING 601
SWIDTH 556 0
DWIDTH 11 0
BBX 9 10 1 0
BITMAP
3C00
FF00
E700
0380
FF80
FF80
C380
E700
7F00
3C00
ENDCHAR
STARTCHAR uni025F
ENCODING 607
SWIDTH 333 0
DWIDTH 7 0
BBX 7 14 0 -4
BITMAP
38
38
38
38
38
38
38
38
FE
FE
38
38
F8
F0
ENDCHAR
STARTCHAR uni0265
ENCODING 613
SWIDTH 611 0
DWIDTH 11 0
BBX 9 14 1 -4
BITMAP
E380
E380
E380
E380
E380
E380
E380
E780
FF80
7B80
0380
0380
0380
0380
ENDCHAR
STARTCHAR uni0275
ENCODING 629
SWIDTH 611 0
DWIDTH 12 0
BBX 10 10 1 0
BITMAP
1E00
7F80
7380
E1C0
FFC0
FFC0
E1C0
7380
7F80
1E00
ENDCHAR
STARTCHAR uni0279
ENCODING 633
SWIDTH 389 0
DWIDTH 7 0
BBX 6 10 1 0
BITMAP
1C
1C
1C
1C
1C
1C
1C
FC
FC
DC
ENDCHAR
STARTCHAR uni0287
ENCODING 647
SWIDTH 333 0
DWIDTH 6 0
BBX 6 13 0 0
BITMAP
F0
F8
38
38
38
38
38
38
FC
FC
38
38
38
ENDCHAR
STARTCHAR uni0288
ENCODING 648
SWIDTH 333 0
DWIDTH 6 0
BBX 6 17 0 -4
BITMAP
70
70
70
FC
FC
70
70
70
70
70
70
70
70
70
70
7C
3C
ENDCHAR
STARTCHAR uni0289
ENCODING 649
SWIDTH 611 0
DWIDTH 11 0
BBX 9 10 1 0
BITMAP
E380
E380
E380
E380
FF80
FF80
E380
E780
FF80
7B80
ENDCHAR
STARTCHAR uni028C
ENCODING 652
SWIDTH 556 0
DWIDTH 9 0
BBX 9 10 0 0
BITMAP
1C00
1C00
3E00
3E00
7700
7700
7700
E380
E380
E380
ENDCHAR
STARTCHAR uni028D
ENCODING 653
SWIDTH 778 0
DWIDTH 15 0
BBX 15 10 0 0
BITMAP
1C70
1C70
3C78
3EF8
76DC
77DC
739C
E38E
E38E
E38E
ENDCHAR
STARTCHAR uni028E
ENCODING 654
SWIDTH 556 0
DWIDTH 11 0
BBX 9 14 1 0
BITMAP
0700
0F00
0C00
1C00
1C00
1C00
3E00
3E00
7700
7700
7700
E380
E380
E380
ENDCHAR
STARTCHAR uni029E
ENCODING 670
SWIDTH 556 0
DWIDTH 10 0
BBX 9 14 1 -4
BITMAP
E380
F380
7380
3B80
1F80
0F80
0F80
1F80
3B80
7380
0380
0380
0380
0380
ENDCHAR
STARTCHAR uni02BB
ENCODING 699
SWIDTH 278 0
DWIDTH 5 0
BBX 3 5 1 9
BITMAP
60
C0
C0
E0
E0
ENDCHAR
STARTCHAR afii57929
ENCODING 700
SWIDTH 278 0
DWIDTH 5 0
BBX 3 5 1 9
BITMAP
E0
E0
60
60
C0
ENDCHAR
STARTCHAR afii64937
ENCODING 701
SWIDTH 278 0
DWIDTH 5 0
BBX 3 5 1 9
BITMAP
E0
E0
C0
C0
60
ENDCHAR
STARTCHAR circumflex
ENCODING 710
SWIDTH 333 0
DWIDTH 7 0
BBX 7 3 0 11
BITMAP
38
7C
EE
ENDCHAR
STARTCHAR caron
ENCODING 711
SWIDTH 333 0
DWIDTH 7 0
BBX 7 3 0 11
BITMAP
EE
7C
38
ENDCHAR
STARTCHAR uni02C8
ENCODING 712
SWIDTH 238 0
DWIDTH 4 0
BBX 2 5 1 9
BITMAP
C0
C0
C0
C0
80
ENDCHAR
STARTCHAR macron
ENCODING 713
SWIDTH 333 0
DWIDTH 7 0
BBX 5 2 1 12
BITMAP
F8
F8
ENDCHAR
STARTCHAR uni02CA
ENCODING 714
SWIDTH 333 0
DWIDTH 5 0
BBX 5 3 0 11
BITMAP
38
70
E0
ENDCHAR
STARTCHAR uni02CB
ENCODING 715
SWIDTH 333 0
DWIDTH 5 0
BBX 5 3 0 11
BITMAP
E0
70
38
ENDCHAR
STARTCHAR uni02CD
ENCODING 717
SWIDTH 333 0
DWIDTH 7 0
BBX 5 2 1 -3
BITMAP
F8
F8
ENDCHAR
STARTCHAR uni02CE
ENCODING 718
SWIDTH 333 0
DWIDTH 5 0
BBX 5 3 0 -4
BITMAP
E0
70
38
ENDCHAR
STARTCHAR uni02CF
ENCODING 719
SWIDTH 333 0
DWIDTH 5 0
BBX 5 3 0 -4
BITMAP
38
70
E0
ENDCHAR
STARTCHAR breve
ENCODING 728
SWIDTH 333 0
DWIDTH 7 0
BBX 7 3 0 11
BITMAP
C6
EE
7C
ENDCHAR
STARTCHAR dotaccent
ENCODING 729
SWIDTH 333 0
DWIDTH 4 0
BBX 2 2 1 12
BITMAP
C0
C0
ENDCHAR
STARTCHAR ring
ENCODING 730
SWIDTH 333 0
DWIDTH 6 0
BBX 6 4 0 10
BITMAP
78
CC
CC
78
ENDCHAR
STARTCHAR ogonek
ENCODING 731
SWIDTH 333 0
DWIDTH 6 0
BBX 6 5 0 -5
BITMAP
38
70
E0
FC
78
ENDCHAR
STARTCHAR tilde
ENCODING 732
SWIDTH 333 0
DWIDTH 7 0
BBX 7 3 0 11
BITMAP
76
FE
DC
ENDCHAR
STARTCHAR hungarumlaut
ENCODING 733
SWIDTH 333 0
DWIDTH 7 0
BBX 7 3 0 11
BITMAP
36
6C
D8
ENDCHAR
STARTCHAR uni02EE
ENCODING 750
SWIDTH 500 0
DWIDTH 9 0
BBX 7 5 1 9
BITMAP
EE
EE
66
66
CC
ENDCHAR
STARTCHAR uni037E
ENCODING 894
SWIDTH 333 0
DWIDTH 6 0
BBX 3 13 1 -3
BITMAP
E0
E0
E0
00
00
00
00
E0
E0
E0
60
C0
80
ENDCHAR
STARTCHAR tonos
ENCODING 900
SWIDTH 333 0
DWIDTH 5 0
BBX 5 3 0 11
BITMAP
38
70
E0
ENDCHAR
STARTCHAR dieresistonos
ENCODING 901
SWIDTH 333 0
DWIDTH 7 0
BBX 6 6 1 12
BITMAP
1C
38
70
00
D8
D8
ENDCHAR
STARTCHAR anoteleia
ENCODING 903
SWIDTH 278 0
DWIDTH 5 0
BBX 2 2 1 6
BITMAP
C0
C0
ENDCHAR
STARTCHAR mu
ENCODING 956
SWIDTH 611 0
DWIDTH 11 0
BBX 9 14 1 -4
BITMAP
E380
E380
E380
E380
E380
E380
E380
E780
FF80
FB80
E000
E000
E000
E000
ENDCHAR
STARTCHAR uni1E00
ENCODING 7680
SWIDTH 722 0
DWIDTH 14 0
BBX 12 19 1 -5
BITMAP
0F00
0F00
1F80
1980
1980
39C0
39C0
30C0
70E0
7FE0
7FE0
E070
E070
E070
0000
0F00
1980
1980
0F00
ENDCHAR
STARTCHAR uni1E01
ENCODING 7681
SWIDTH 556 0
DWIDTH 11 0
BBX 10 15 1 -5
BITMAP
3E00
7F00
6380
0780
3F80
7B80
E380
E780
FB80
7BC0
0000
1E00
3300
3300
1E00
ENDCHAR
STARTCHAR uni1E02
ENCODING 7682
SWIDTH 722 0
DWIDTH 14 0
BBX 11 17 2 0
BITMAP
0C00
0C00
0000
FE00
FF80
E3C0
E1C0
E1C0
E380
FF80
FFC0
E1E0
E0E0
E0E0
E1E0
FFC0
FF00
ENDCHAR
STARTCHAR uni1E03
ENCODING 7683
SWIDTH 611 0
DWIDTH 12 0
BBX 10 17 1 0
BITMAP
3000
3000
0000
E000
E000
E000
E000
EF00
FF80
F380
E1C0
E1C0
E1C0
E1C0
F380
FF80
EF00
ENDCHAR
STARTCHAR uni1E04
ENCODING 7684
SWIDTH 722 0
DWIDTH 14 0
BBX 11 17 2 -3
BITMAP
FE00
FF80
E3C0
E1C0
E1C0
E380
FF80
FFC0
E1E0
E0E0
E0E0
E1E0
FFC0
FF00
0000
0C00
0C00
ENDCHAR
STARTCHAR uni1E05
ENCODING 7685
SWIDTH 611 0
DWIDTH 12 0
BBX 10 17 1 -3
BITMAP
E000
E000
E000
E000
EF00
FF80
F380
E1C0
E1C0
E1C0
E1C0
F380
FF80
EF00
0000
0C00
0C00
ENDCHAR
STARTCHAR uni1E06
ENCODING 7686
SWIDTH 722 0
DWIDTH 14 0
BBX 11 17 2 -3
BITMAP
FE00
FF80
E3C0
E1C0
E1C0
E380
FF80
FFC0
E1E0
E0E0
E0E0
E1E0
FFC0
FF00
0000
1F00
1F00
ENDCHAR
STARTCHAR uni1E07
ENCODING 7687
SWIDTH 611 0
DWIDTH 12 0
BBX 10 17 1 -3
BITMAP
E000
E000
E000
E000
EF00
FF80
F380
E1C0
E1C0
E1C0
E1C0
F380
FF80
EF00
0000
3E00
3E00
ENDCHAR
STARTCHAR uni1E08
ENCODING 7688
SWIDTH 722 0
DWIDTH 14 0
BBX 12 23 1 -5
BITMAP
0380
0700
0E00
0000
0F80
3FE0
78E0
7070
F070
E000
E000
E000
E000
F070
7070
78E0
3FE0
0F80
0C00
0E00
0300
1F00
1E00
ENDCHAR
STARTCHAR uni1E09
ENCODING 7689
SWIDTH 556 0
DWIDTH 10 0
BBX 9 19 1 -5
BITMAP
0700
0E00
1C00
0000
1E00
7F80
7380
E000
E000
E000
E000
7380
7F80
1E00
1800
1C00
0600
3E00
3C00
ENDCHAR
STARTCHAR uni1E0A
ENCODING 7690
SWIDTH 722 0
DWIDTH 14 0
BBX 12 17 1 0
BITMAP
0C00
0C00
0000
FF00
FFC0
E1E0
E0E0
E070
E070
E070
E070
E070
E070
E0E0
E1E0
FFC0
FF00
ENDCHAR
STARTCHAR uni1E0B
ENCODING 7691
SWIDTH 611 0
DWIDTH 12 0
BBX 10 17 1 0
BITMAP
0300
0300
0000
01C0
01C0
01C0
01C0
3DC0
7FC0
73C0
E1C0
E1C0
E1C0
E1C0
73C0
7FC0
3DC0
ENDCHAR
STARTCHAR uni1E0C
ENCODING 7692
SWIDTH 722 0
DWIDTH 14 0
BBX 12 17 1 -3
BITMAP
FF00
FFC0
E1E0
E0E0
E070
E070
E070
E070
E070
E070
E0E0
E1E0
FFC0
FF00
0000
0C00
0C00
ENDCHAR
STARTCHAR uni1E0D
ENCODING 7693
SWIDTH 611 0
DWIDTH 12 0
BBX 10 17 1 -3
BITMAP
01C0
01C0
01C0
01C0
3DC0
7FC0
73C0
E1C0
E1C0
E1C0
E1C0
73C0
7FC0
3DC0
0000
0C00
0C00
ENDCHAR
STARTCHAR uni1E0E
ENCODING 7694
SWIDTH 722 0
DWIDTH 14 0
BBX 12 17 1 -3
BITMAP
FF00
FFC0
E1E0
E0E0
E070
E070
E070
E070
E070
E070
E0E0
E1E0
FFC0
FF00
0000
1F00
1F00
ENDCHAR
STARTCHAR uni1E0F
ENCODING 7695
SWIDTH 611 0
DWIDTH 12 0
BBX 10 17 1 -3
BITMAP
01C0
01C0
01C0
01C0
3DC0
7FC0
73C0
E1C0
E1C0
E1C0
E1C0
73C0
7FC0
3DC0
0000
1F00
1F00
ENDCHAR
STARTCHAR uni1E10
ENCODING 7696
SWIDTH 722 0
DWIDTH 14 0
BBX 12 19 1 -5
BITMAP
FF00
FFC0
E1E0
E0E0
E070
E070
E070
E070
E070
E070
E0E0
E1E0
FFC0
FF00
0C00
0E00
0300
1F00
1E00
ENDCHAR
STARTCHAR uni1E11
ENCODING 7697
SWIDTH 611 0
DWIDTH 12 0
BBX 10 19 1 -5
BITMAP
01C0
01C0
01C0
01C0
3DC0
7FC0
73C0
E1C0
E1C0
E1C0
E1C0
73C0
7FC0
3DC0
0C00
0E00
0300
1F00
1E00
ENDCHAR
STARTCHAR uni1E12
ENCODING 7698
SWIDTH 722 0
DWIDTH 14 0
BBX 12 18 1 -4
BITMAP
FF00
FFC0
E1E0
E0E0
E070
E070
E070
E070
E070
E070
E0E0
E1E0
FFC0
FF00
0000
0E00
1F00
3B80
ENDCHAR
STARTCHAR uni1E13
ENCODING 7699
SWIDTH 611 0
DWIDTH 12 0
BBX 10 18 1 -4
BITMAP
01C0
01C0
01C0
01C0
3DC0
7FC0
73C0
E1C0
E1C0
E1C0
E1C0
73C0
7FC0
3DC0
0000
0E00
1F00
3B80
ENDCHAR
STARTCHAR uni1E14
ENCODING 7700
SWIDTH 667 0
DWIDTH 13 0
BBX 10 21 2 0
BITMAP
3800
1C00
0E00
0000
3E00
3E00
0000
FFC0
FFC0
E000
E000
E000
E000
FF80
FF80
E000
E000
E000
E000
FFC0
FFC0
ENDCHAR
STARTCHAR uni1E15
ENCODING 7701
SWIDTH 556 0
DWIDTH 11 0
BBX 9 17 1 0
BITMAP
7000
3800
1C00
0000
3E00
3E00
0000
1E00
7F00
7380
E180
FF80
FF80
E000
7380
7F80
1E00
ENDCHAR
STARTCHAR uni1E16
ENCODING 7702
SWIDTH 667 0
DWIDTH 13 0
BBX 10 21 2 0
BITMAP
0700
0E00
1C00
0000
3E00
3E00
0000
FFC0
FFC0
E000
E000
E000
E000
FF80
FF80
E000
E000
E000
E000
FFC0
FFC0
ENDCHAR
STARTCHAR uni1E17
ENCODING 7703
SWIDTH 556 0
DWIDTH 11 0
BBX 9 17 1 0
BITMAP
0700
0E00
1C00
0000
3E00
3E00
0000
1E00
7F00
7380
E180
FF80
FF80
E000
7380
7F80
1E00
ENDCHAR
STARTCHAR uni1E18
ENCODING 7704
SWIDTH 667 0
DWIDTH 13 0
BBX 10 18 2 -4
BITMAP
FFC0
FFC0
E000
E000
E000
E000
FF80
FF80
E000
E000
E000
E000
FFC0
FFC0
0000
1C00
3E00
7700
ENDCHAR
STARTCHAR uni1E19
ENCODING 7705
SWIDTH 556 0
DWIDTH 11 0
BBX 9 14 1 -4
BITMAP
1E00
7F00
7380
E180
FF80
FF80
E000
7380
7F80
1E00
0000
1C00
3E00
7700
ENDCHAR
STARTCHAR uni1E1A
ENCODING 7706
SWIDTH 667 0
DWIDTH 13 0
BBX 10 18 2 -4
BITMAP
FFC0
FFC0
E000
E000
E000
E000
FF80
FF80
E000
E000
E000
E000
FFC0
FFC0
0000
3B00
7F00
6E00
ENDCHAR
STARTCHAR uni1E1B
ENCODING 7707
SWIDTH 556 0
DWIDTH 11 0
BBX 9 14 1 -4
BITMAP
1E00
7F00
7380
E180
FF80
FF80
E000
7380
7F80
1E00
0000
3B00
7F00
6E00
ENDCHAR
STARTCHAR uni1E1C
ENCODING 7708
SWIDTH 667 0
DWIDTH 13 0
BBX 10 23 2 -5
BITMAP
6300
7700
3E00
0000
FFC0
FFC0
E000
E000
E000
E000
FF80
FF80
E000
E000
E000
E000
FFC0
FFC0
1800
1C00
0600
3E00
3C00
ENDCHAR
STARTCHAR uni1E1D
ENCODING 7709
SWIDTH 556 0
DWIDTH 11 0
BBX 9 19 1 -5
BITMAP
6300
7700
3E00
0000
1E00
7F00
7380
E180
FF80
FF80
E000
7380
7F80
1E00
1800
1C00
0600
3E00
3C00
ENDCHAR
STARTCHAR uni1E1E
ENCODING 7710
SWIDTH 611 0
DWIDTH 12 0
BBX 10 17 1 0
BITMAP
1800
1800
0000
FFC0
FFC0
E000
E000
E000
E000
FF80
FF80
E000
E000
E000
E000
E000
E000
ENDCHAR
STARTCHAR uni1E1F
ENCODING 7711
SWIDTH 333 0
DWIDTH 7 0
BBX 7 17 0 0
BITMAP
18
18
00
1E
3E
38
38
FE
FE
38
38
38
38
38
38
38
38
ENDCHAR
STARTCHAR uni1E20
ENCODING 7712
SWIDTH 778 0
DWIDTH 15 0
BBX 12 17 1 0
BITMAP
0F80
0F80
0000
0F80
3FE0
78E0
7070
F070
E000
E000
E3F0
E3F0
F070
7070
78F0
3FF0
1FB0
ENDCHAR
STARTCHAR uni1E21
ENCODING 7713
SWIDTH 611 0
DWIDTH 12 0
BBX 10 17 1 -4
BITMAP
1F00
1F00
0000
3DC0
7FC0
73C0
E1C0
E1C0
E1C0
E1C0
73C0
7FC0
3DC0
01C0
7380
7F80
1E00
ENDCHAR
STARTCHAR uni1E22
ENCODING 7714
SWIDTH 722 0
DWIDTH 14 0
BBX 12 17 1 0
BITMAP
0600
0600
0000
E070
E070
E070
E070
E070
E070
FFF0
FFF0
E070
E070
E070
E070
E070
E070
ENDCHAR
STARTCHAR uni1E23
ENCODING 7715
SWIDTH 611 0
DWIDTH 11 0
BBX 9 17 1 0
BITMAP
3000
3000
0000
E000
E000
E000
E000
EF00
FF80
F380
E380
E380
E380
E380
E380
E380
E380
ENDCHAR
STARTCHAR uni1E24
ENCODING 7716
SWIDTH 722 0
DWIDTH 14 0
BBX 12 17 1 -3
BITMAP
E070
E070
E070
E070
E070
E070
FFF0
FFF0
E070
E070
E070
E070
E070
E070
0000
0600
0600
ENDCHAR
STARTCHAR uni1E25
ENCODING 7717
SWIDTH 611 0
DWIDTH 11 0
BBX 9 17 1 -3
BITMAP
E000
E000
E000
E000
EF00
FF80
F380
E380
E380
E380
E380
E380
E380
E380
0000
0C00
0C00
ENDCHAR
STARTCHAR uni1E26
ENCODING 7718
SWIDTH 722 0
DWIDTH 14 0
BBX 12 17 1 0
BITMAP
0D80
0D80
0000
E070
E070
E070
E070
E070
E070
FFF0
FFF0
E070
E070
E070
E070
E070
E070
ENDCHAR
STARTCHAR uni1E27
ENCODING 7719
SWIDTH 611 0
DWIDTH 11 0
BBX 9 17 1 0
BITMAP
D800
D800
0000
E000
E000
E000
E000
EF00
FF80
F380
E380
E380
E380
E380
E380
E380
E380
ENDCHAR
STARTCHAR uni1E28
ENCODING 7720
SWIDTH 722 0
DWIDTH 14 0
BBX 12 19 1 -5
BITMAP
E070
E070
E070
E070
E070
E070
FFF0
FFF0
E070
E070
E070
E070
E070
E070
0600
0700
0180
0F80
0F00
ENDCHAR
STARTCHAR uni1E29
ENCODING 7721
SWIDTH 611 0
DWIDTH 11 0
BBX 9 19 1 -5
BITMAP
E000
E000
E000
E000
EF00
FF80
F380
E380
E380
E380
E380
E380
E380
E380
1800
1C00
0600
3E00
3C00
ENDCHAR
STARTCHAR uni1E2A
ENCODING 7722
SWIDTH 722 0
DWIDTH 14 0
BBX 12 18 1 -4
BITMAP
E070
E070
E070
E070
E070
E070
FFF0
FFF0
E070
E070
E070
E070
E070
E070
0000
18C0
1DC0
0F80
ENDCHAR
STARTCHAR uni1E2B
ENCODING 7723
SWIDTH 611 0
DWIDTH 11 0
BBX 9 18 1 -4
BITMAP
E000
E000
E000
E000
EF00
FF80
F380
E380
E380
E380
E380
E380
E380
E380
0000
6300
7700
3E00
ENDCHAR
STARTCHAR uni1E2C
ENCODING 7724
SWIDTH 278 0
DWIDTH 5 0
BBX 7 18 -1 -4
BITMAP
38
38
38
38
38
38
38
38
38
38
38
38
38
38
00
76
FE
DC
ENDCHAR
STARTCHAR uni1E2D
ENCODING 7725
SWIDTH 278 0
DWIDTH 5 0
BBX 7 18 -1 -4
BITMAP
38
38
38
00
38
38
38
38
38
38
38
38
38
38
00
76
FE
DC
ENDCHAR
STARTCHAR uni1E2E
ENCODING 7726
SWIDTH 278 0
DWIDTH 5 0
BBX 6 22 0 0
BITMAP
1C
38
70
00
CC
CC
CC
00
70
70
70
70
70
70
70
70
70
70
70
70
70
70
ENDCHAR
STARTCHAR uni1E2F
ENCODING 7727
SWIDTH 278 0
DWIDTH 5 0
BBX 6 18 0 0
BITMAP
1C
38
70
00
D8
D8
D8
00
70
70
70
70
70
70
70
70
70
70
ENDCHAR
STARTCHAR uni1E30
ENCODING 7728
SWIDTH 722 0
DWIDTH 14 0
BBX 13 18 1 0
BITMAP
0380
0700
0E00
0000
E0F0
E1E0
E3C0
E780
EF00
FE00
FC00
FE00
EF00
E780
E3C0
E1E0
E0F0
E078
ENDCHAR
STARTCHAR uni1E31
ENCODING 7729
SWIDTH 556 0
DWIDTH 10 0
BBX 9 18 1 0
BITMAP
1C00
3800
7000
0000
E000
E000
E000
E000
E700
EE00
FC00
F800
F800
FC00
EE00
E700
E780
E380
ENDCHAR
STARTCHAR uni1E32
ENCODING 7730
SWIDTH 722 0
DWIDTH 14 0
BBX 13 17 1 -3
BITMAP
E0F0
E1E0
E3C0
E780
EF00
FE00
FC00
FE00
EF00
E780
E3C0
E1E0
E0F0
E078
0000
0600
0600
ENDCHAR
STARTCHAR uni1E33
ENCODING 7731
SWIDTH 556 0
DWIDTH 10 0
BBX 9 17 1 -3
BITMAP
E000
E000
E000
E000
E700
EE00
FC00
F800
F800
FC00
EE00
E700
E780
E380
0000
1800
1800
ENDCHAR
STARTCHAR uni1E34
ENCODING 7732
SWIDTH 722 0
DWIDTH 14 0
BBX 13 17 1 -3
BITMAP
E0F0
E1E0
E3C0
E780
EF00
FE00
FC00
FE00
EF00
E780
E3C0
E1E0
E0F0
E078
0000
0F80
0F80
ENDCHAR
STARTCHAR uni1E35
ENCODING 7733
SWIDTH 556 0
DWIDTH 10 0
BBX 9 17 1 -3
BITMAP
E000
E000
E000
E000
E700
EE00
FC00
F800
F800
FC00
EE00
E700
E780
E380
0000
3E00
3E00
ENDCHAR
STARTCHAR uni1E36
ENCODING 7734
SWIDTH 611 0
DWIDTH 11 0
BBX 9 17 1 -3
BITMAP
E000
E000
E000
E000
E000
E000
E000
E000
E000
E000
E000
E000
FF80
FF80
0000
1800
1800
ENDCHAR
STARTCHAR uni1E37
ENCODING 7735
SWIDTH 278 0
DWIDTH 5 0
BBX 3 17 1 -3
BITMAP
E0
E0
E0
E0
E0
E0
E0
E0
E0
E0
E0
E0
E0
E0
00
60
60
ENDCHAR
STARTCHAR uni1E38
ENCODING 7736
SWIDTH 611 0
DWIDTH 11 0
BBX 9 20 1 -3
BITMAP
F800
F800
0000
E000
E000
E000
E000
E000
E000
E000
E000
E000
E000
E000
E000
FF80
FF80
0000
1800
1800
ENDCHAR
STARTCHAR uni1E39
ENCODING 7737
SWIDTH 278 0
DWIDTH 5 0
BBX 5 20 0 -3
BITMAP
F8
F8
00
70
70
70
70
70
70
70
70
70
70
70
70
70
70
00
30
30
ENDCHAR
STARTCHAR uni1E3A
ENCODING 7738
SWIDTH 611 0
DWIDTH 11 0
BBX 9 17 1 -3
BITMAP
E000
E000
E000
E000
E000
E000
E000
E000
E000
E000
E000
E000
FF80
FF80
0000
3E00
3E00
ENDCHAR
STARTCHAR uni1E3B
ENCODING 7739
SWIDTH 278 0
DWIDTH 5 0
BBX 5 17 0 -3
BITMAP
70
70
70
70
70
70
70
70
70
70
70
70
70
70
00
F8
F8
ENDCHAR
STARTCHAR uni1E3C
ENCODING 7740
SWIDTH 611 0
DWIDTH 11 0
BBX 9 18 1 -4
BITMAP
E000
E000
E000
E000
E000
E000
E000
E000
E000
E000
E000
E000
FF80
FF80
0000
1C00
3E00
7700
ENDCHAR
STARTCHAR uni1E3D
ENCODING 7741
SWIDTH 278 0
DWIDTH 5 0
BBX 7 18 -1 -4
BITMAP
38
38
38
38
38
38
38
38
38
38
38
38
38
38
00
38
7C
EE
ENDCHAR
STARTCHAR uni1E3E
ENCODING 7742
SWIDTH 833 0
DWIDTH 16 0
BBX 14 18 1 0
BITMAP
01C0
0380
0700
0000
E01C
E01C
F03C
F03C
F87C
F87C
F87C
ECDC
ECDC
ECDC
E79C
E79C
E31C
E31C
ENDCHAR
STARTCHAR uni1E3F
ENCODING 7743
SWIDTH 889 0
DWIDTH 17 0
BBX 15 14 1 0
BITMAP
00E0
01C0
0380
0000
EF3C
FFFE
F3CE
E38E
E38E
E38E
E38E
E38E
E38E
E38E
ENDCHAR
STARTCHAR uni1E40
ENCODING 7744
SWIDTH 833 0
DWIDTH 16 0
BBX 14 17 1 0
BITMAP
0300
0300
0000
E01C
E01C
F03C
F03C
F87C
F87C
F87C
ECDC
ECDC
ECDC
E79C
E79C
E31C
E31C
ENDCHAR
STARTCHAR uni1E41
ENCODING 7745
SWIDTH 889 0
DWIDTH 17 0
BBX 15 13 1 0
BITMAP
0300
0300
0000
EF3C
FFFE
F3CE
E38E
E38E
E38E
E38E
E38E
E38E
E38E
ENDCHAR
STARTCHAR uni1E42
ENCODING 7746
SWIDTH 833 0
DWIDTH 16 0
BBX 14 17 1 -3
BITMAP
E01C
E01C
F03C
F03C
F87C
F87C
F87C
ECDC
ECDC
ECDC
E79C
E79C
E31C
E31C
0000
0300
0300
ENDCHAR
STARTCHAR uni1E43
ENCODING 7747
SWIDTH 889 0
DWIDTH 17 0
BBX 15 13 1 -3
BITMAP
EF3C
FFFE
F3CE
E38E
E38E
E38E
E38E
E38E
E38E
E38E
0000
0180
0180
ENDCHAR
STARTCHAR uni1E44
ENCODING 7748
SWIDTH 722 0
DWIDTH 14 0
BBX 12 17 1 0
BITMAP
0600
0600
0000
E070
F070
F070
F870
FC70
EC70
EE70
E670
E770
E370
E1F0
E1F0
E0F0
E070
ENDCHAR
STARTCHAR uni1E45
ENCODING 7749
SWIDTH 611 0
DWIDTH 11 0
BBX 9 13 1 0
BITMAP
1800
1800
0000
EF00
FF80
F380
E380
E380
E380
E380
E380
E380
E380
ENDCHAR
STARTCHAR uni1E46
ENCODING 7750
SWIDTH 722 0
DWIDTH 14 0
BBX 12 17 1 -3
BITMAP
E070
F070
F070
F870
FC70
EC70
EE70
E670
E770
E370
E1F0
E1F0
E0F0
E070
0000
0600
0600
ENDCHAR
STARTCHAR uni1E47
ENCODING 7751
SWIDTH 611 0
DWIDTH 11 0
BBX 9 13 1 -3
BITMAP
EF00
FF80
F380
E380
E380
E380
E380
E380
E380
E380
0000
0C00
0C00
ENDCHAR
STARTCHAR uni1E48
ENCODING 7752
SWIDTH 722 0
DWIDTH 14 0
BBX 12 17 1 -3
BITMAP
E070
F070
F070
F870
FC70
EC70
EE70
E670
E770
E370
E1F0
E1F0
E0F0
E070
0000
0F80
0F80
ENDCHAR
STARTCHAR uni1E49
ENCODING 7753
SWIDTH 611 0
DWIDTH 11 0
BBX 9 13 1 -3
BITMAP
EF00
FF80
F380
E380
E380
E380
E380
E380
E380
E380
0000
3E00
3E00
ENDCHAR
STARTCHAR uni1E4A
ENCODING 7754
SWIDTH 722 0
DWIDTH 14 0
BBX 12 18 1 -4
BITMAP
E070
F070
F070
F870
FC70
EC70
EE70
E670
E770
E370
E1F0
E1F0
E0F0
E070
0000
0700
0F80
1DC0
ENDCHAR
STARTCHAR uni1E4B
ENCODING 7755
SWIDTH 611 0
DWIDTH 11 0
BBX 9 14 1 -4
BITMAP
EF00
FF80
F380
E380
E380
E380
E380
E380
E380
E380
0000
1C00
3E00
7700
ENDCHAR
STARTCHAR uni1E4C
ENCODING 7756
SWIDTH 778 0
DWIDTH 15 0
BBX 13 22 1 0
BITMAP
01C0
0380
0700
0000
0710
0FE0
11C0
0000
0F80
3FE0
78F0
7070
F078
E038
E038
E038
E038
F078
7070
78F0
3FE0
0F80
ENDCHAR
STARTCHAR uni1E4D
ENCODING 7757
SWIDTH 611 0
DWIDTH 12 0
BBX 10 18 1 0
BITMAP
0700
0E00
1C00
0000
3B00
7F00
6E00
0000
1E00
7F80
7380
E1C0
E1C0
E1C0
E1C0
7380
7F80
1E00
ENDCHAR
STARTCHAR uni1E4E
ENCODING 7758
SWIDTH 778 0
DWIDTH 15 0
BBX 13 21 1 0
BITMAP
06C0
06C0
0000
0710
0FE0
11C0
0000
0F80
3FE0
78F0
7070
F078
E038
E038
E038
E038
F078
7070
78F0
3FE0
0F80
ENDCHAR
STARTCHAR uni1E4F
ENCODING 7759
SWIDTH 611 0
DWIDTH 12 0
BBX 10 17 1 0
BITMAP
3600
3600
0000
3B00
7F00
6E00
0000
1E00
7F80
7380
E1C0
E1C0
E1C0
E1C0
7380
7F80
1E00
ENDCHAR
STARTCHAR uni1E50
ENCODING 7760
SWIDTH 778 0
DWIDTH 15 0
BBX 13 21 1 0
BITMAP
1C00
0E00
0700
0000
0F80
0F80
0000
0F80
3FE0
78F0
7070
F078
E038
E038
E038
E038
F078
7070
78F0
3FE0
0F80
ENDCHAR
STARTCHAR uni1E51
ENCODING 7761
SWIDTH 611 0
DWIDTH 12 0
BBX 10 17 1 0
BITMAP
3800
1C00
0E00
0000
1F00
1F00
0000
1E00
7F80
7380
E1C0
E1C0
E1C0
E1C0
7380
7F80
1E00
ENDCHAR
STARTCHAR uni1E52
ENCODING 7762
SWIDTH 778 0
DWIDTH 15 0
BBX 13 21 1 0
BITMAP
01C0
0380
0700
0000
0F80
0F80
0000
0F80
3FE0
78F0
7070
F078
E038
E038
E038
E038
F078
7070
78F0
3FE0
0F80
ENDCHAR
STARTCHAR uni1E53
ENCODING 7763
SWIDTH 611 0
DWIDTH 12 0
BBX 10 17 1 0
BITMAP
0700
0E00
1C00
0000
1F00
1F00
0000
1E00
7F80
7380
E1C0
E1C0
E1C0
E1C0
7380
7F80
1E00
ENDCHAR
STARTCHAR uni1E54
ENCODING 7764
SWIDTH 667 0
DWIDTH 13 0
BBX 11 18 1 0
BITMAP
0700
0E00
1C00
0000
FF00
FFC0
E1E0
E0E0
E0E0
E0E0
E1E0
FFC0
FF00
E000
E000
E000
E000
E000
ENDCHAR
STARTCHAR uni1E55
ENCODING 7765
SWIDTH 611 0
DWIDTH 12 0
BBX 10 18 1 -4
BITMAP
0700
0E00
1C00
0000
EF00
FF80
F380
E1C0
E1C0
E1C0
E1C0
F380
FF80
EF00
E000
E000
E000
E000
ENDCHAR
STARTCHAR uni1E56
ENCODING 7766
SWIDTH 667 0
DWIDTH 13 0
BBX 11 17 1 0
BITMAP
0C00
0C00
0000
FF00
FFC0
E1E0
E0E0
E0E0
E0E0
E1E0
FFC0
FF00
E000
E000
E000
E000
E000
ENDCHAR
STARTCHAR uni1E57
ENCODING 7767
SWIDTH 611 0
DWIDTH 12 0
BBX 10 17 1 -4
BITMAP
0C00
0C00
0000
EF00
FF80
F380
E1C0
E1C0
E1C0
E1C0
F380
FF80
EF00
E000
E000
E000
E000
ENDCHAR
STARTCHAR uni1E58
ENCODING 7768
SWIDTH 722 0
DWIDTH 14 0
BBX 12 17 1 0
BITMAP
0C00
0C00
0000
FF00
FFC0
E1E0
E0E0
E0E0
E1E0
FFC0
FF80
E1C0
E0E0
E0E0
E0E0
E0E0
E0F0
ENDCHAR
STARTCHAR uni1E59
ENCODING 7769
SWIDTH 389 0
DWIDTH 7 0
BBX 6 13 1 0
BITMAP
30
30
00
EC
FC
FC
E0
E0
E0
E0
E0
E0
E0
ENDCHAR
STARTCHAR uni1E5A
ENCODING 7770
SWIDTH 722 0
DWIDTH 14 0
BBX 12 17 1 -3
BITMAP
FF00
FFC0
E1E0
E0E0
E0E0
E1E0
FFC0
FF80
E1C0
E0E0
E0E0
E0E0
E0E0
E0F0
0000
0600
0600
ENDCHAR
STARTCHAR uni1E5B
ENCODING 7771
SWIDTH 389 0
DWIDTH 7 0
BBX 6 13 1 -3
BITMAP
EC
FC
FC
E0
E0
E0
E0
E0
E0
E0
00
60
60
ENDCHAR
STARTCHAR uni1E5C
ENCODING 7772
SWIDTH 722 0
DWIDTH 14 0
BBX 12 20 1 -3
BITMAP
1F00
1F00
0000
FF00
FFC0
E1E0
E0E0
E0E0
E1E0
FFC0
FF80
E1C0
E0E0
E0E0
E0E0
E0E0
E0F0
0000
0600
0600
ENDCHAR
STARTCHAR uni1E5D
ENCODING 7773
SWIDTH 389 0
DWIDTH 7 0
BBX 6 16 1 -3
BITMAP
F8
F8
00
EC
FC
FC
E0
E0
E0
E0
E0
E0
E0
00
60
60
ENDCHAR
STARTCHAR uni1E5E
ENCODING 7774
SWIDTH 722 0
DWIDTH 14 0
BBX 12 17 1 -3
BITMAP
FF00
FFC0
E1E0
E0E0
E0E0
E1E0
FFC0
FF80
E1C0
E0E0
E0E0
E0E0
E0E0
E0F0
0000
1F00
1F00
ENDCHAR
STARTCHAR uni1E5F
ENCODING 7775
SWIDTH 389 0
DWIDTH 7 0
BBX 6 13 1 -3
BITMAP
EC
FC
FC
E0
E0
E0
E0
E0
E0
E0
00
F8
F8
ENDCHAR
STARTCHAR uni1E60
ENCODING 7776
SWIDTH 667 0
DWIDTH 13 0
BBX 11 17 1 0
BITMAP
0600
0600
0000
3F80
7FC0
F1E0
E0E0
F000
7E00
3F80
0FC0
01E0
E0E0
E0E0
F1E0
7FC0
3F80
ENDCHAR
STARTCHAR uni1E61
ENCODING 7777
SWIDTH 556 0
DWIDTH 11 0
BBX 9 13 1 0
BITMAP
0C00
0C00
0000
3F00
7F80
E380
E000
FF00
3F80
0380
E380
FF00
7E00
ENDCHAR
STARTCHAR uni1E62
ENCODING 7778
SWIDTH 667 0
DWIDTH 13 0
BBX 11 17 1 -3
BITMAP
3F80
7FC0
F1E0
E0E0
F000
7E00
3F80
0FC0
01E0
E0E0
E0E0
F1E0
7FC0
3F80
0000
0600
0600
ENDCHAR
STARTCHAR uni1E63
ENCODING 7779
SWIDTH 556 0
DWIDTH 11 0
BBX 9 13 1 -3
BITMAP
3F00
7F80
E380
E000
FF00
3F80
0380
E380
FF00
7E00
0000
1800
1800
ENDCHAR
STARTCHAR uni1E64
ENCODING 7780
SWIDTH 667 0
DWIDTH 13 0
BBX 11 21 1 0
BITMAP
0600
0600
0000
0380
0700
0E00
0000
3F80
7FC0
F1E0
E0E0
F000
7E00
3F80
0FC0
01E0
E0E0
E0E0
F1E0
7FC0
3F80
ENDCHAR
STARTCHAR uni1E65
ENCODING 7781
SWIDTH 556 0
DWIDTH 11 0
BBX 9 17 1 0
BITMAP
0C00
0C00
0000
0700
0E00
1C00
0000
3F00
7F80
E380
E000
FF00
3F80
0380
E380
FF00
7E00
ENDCHAR
STARTCHAR uni1E66
ENCODING 7782
SWIDTH 667 0
DWIDTH 12 0
BBX 10 17 1 0
BITMAP
0C00
0C00
0000
7700
3E00
1C00
0000
3F00
7F80
E380
F800
7E00
1F80
E3C0
F3C0
7F80
3F00
ENDCHAR
STARTCHAR uni1E67
ENCODING 7783
SWIDTH 556 0
DWIDTH 10 0
BBX 8 17 1 0
BITMAP
18
18
00
77
3E
1C
00
1E
7F
E7
E0
FE
3F
07
E7
FE
78
ENDCHAR
STARTCHAR uni1E68
ENCODING 7784
SWIDTH 667 0
DWIDTH 13 0
BBX 11 20 1 -3
BITMAP
0C00
0C00
0000
3F80
7FC0
F1E0
E0E0
F000
7E00
3F80
0FC0
01E0
E0E0
E0E0
F1E0
7FC0
3F80
0000
0600
0600
ENDCHAR
STARTCHAR uni1E69
ENCODING 7785
SWIDTH 556 0
DWIDTH 11 0
BBX 9 16 1 -3
BITMAP
1800
1800
0000
3F00
7F80
E380
E000
FF00
3F80
0380
E380
FF00
7E00
0000
1800
1800
ENDCHAR
STARTCHAR uni1E6A
ENCODING 7786
SWIDTH 611 0
DWIDTH 11 0
BBX 11 17 0 0
BITMAP
0600
0600
0000
FFE0
FFE0
0E00
0E00
0E00
0E00
0E00
0E00
0E00
0E00
0E00
0E00
0E00
0E00
ENDCHAR
STARTCHAR uni1E6B
ENCODING 7787
SWIDTH 333 0
DWIDTH 6 0
BBX 6 16 0 0
BITMAP
30
30
00
70
70
70
FC
FC
70
70
70
70
70
70
7C
3C
ENDCHAR
STARTCHAR uni1E6C
ENCODING 7788
SWIDTH 611 0
DWIDTH 11 0
BBX 11 17 0 -3
BITMAP
FFE0
FFE0
0E00
0E00
0E00
0E00
0E00
0E00
0E00
0E00
0E00
0E00
0E00
0E00
0000
0600
0600
ENDCHAR
STARTCHAR uni1E6D
ENCODING 7789
SWIDTH 333 0
DWIDTH 6 0
BBX 6 16 0 -3
BITMAP
70
70
70
FC
FC
70
70
70
70
70
70
7C
3C
00
30
30
ENDCHAR
STARTCHAR uni1E6E
ENCODING 7790
SWIDTH 611 0
DWIDTH 11 0
BBX 11 17 0 -3
BITMAP
FFE0
FFE0
0E00
0E00
0E00
0E00
0E00
0E00
0E00
0E00
0E00
0E00
0E00
0E00
0000
1F00
1F00
ENDCHAR
STARTCHAR uni1E6F
ENCODING 7791
SWIDTH 333 0
DWIDTH 6 0
BBX 6 16 0 -3
BITMAP
70
70
70
FC
FC
70
70
70
70
70
70
7C
3C
00
7C
7C
ENDCHAR
STARTCHAR uni1E70
ENCODING 7792
SWIDTH 611 0
DWIDTH 11 0
BBX 11 18 0 -4
BITMAP
FFE0
FFE0
0E00
0E00
0E00
0E00
0E00
0E00
0E00
0E00
0E00
0E00
0E00
0E00
0000
0E00
1F00
3B80
ENDCHAR
STARTCHAR uni1E71
ENCODING 7793
SWIDTH 333 0
DWIDTH 6 0
BBX 7 17 0 -4
BITMAP
70
70
70
FC
FC
70
70
70
70
70
70
7C
3C
00
38
7C
EE
ENDCHAR
STARTCHAR uni1E72
ENCODING 7794
SWIDTH 722 0
DWIDTH 14 0
BBX 12 17 1 -3
BITMAP
E070
E070
E070
E070
E070
E070
E070
E070
E070
E070
E070
70E0
7FE0
1F80
0000
0D80
0D80
ENDCHAR
STARTCHAR uni1E73
ENCODING 7795
SWIDTH 611 0
DWIDTH 11 0
BBX 9 13 1 -3
BITMAP
E380
E380
E380
E380
E380
E380
E380
E780
FF80
7B80
0000
3600
3600
ENDCHAR
STARTCHAR uni1E74
ENCODING 7796
SWIDTH 722 0
DWIDTH 14 0
BBX 12 18 1 -4
BITMAP
E070
E070
E070
E070
E070
E070
E070
E070
E070
E070
E070
70E0
7FE0
1F80
0000
1D80
3F80
3700
ENDCHAR
STARTCHAR uni1E75
ENCODING 7797
SWIDTH 611 0
DWIDTH 11 0
BBX 9 14 1 -4
BITMAP
E380
E380
E380
E380
E380
E380
E380
E780
FF80
7B80
0000
3B00
7F00
6E00
ENDCHAR
STARTCHAR uni1E76
ENCODING 7798
SWIDTH 722 0
DWIDTH 14 0
BBX 12 18 1 -4
BITMAP
E070
E070
E070
E070
E070
E070
E070
E070
E070
E070
E070
70E0
7FE0
1F80
0000
0700
0F80
1DC0
ENDCHAR
STARTCHAR uni1E77
ENCODING 7799
SWIDTH 611 0
DWIDTH 11 0
BBX 9 14 1 -4
BITMAP
E380
E380
E380
E380
E380
E380
E380
E780
FF80
7B80
0000
1C00
3E00
7700
ENDCHAR
STARTCHAR uni1E78
ENCODING 7800
SWIDTH 722 0
DWIDTH 14 0
BBX 12 22 1 0
BITMAP
0380
0700
0E00
0000
0EC0
1FC0
1B80
0000
E070
E070
E070
E070
E070
E070
E070
E070
E070
E070
E070
70E0
7FE0
1F80
ENDCHAR
STARTCHAR uni1E79
ENCODING 7801
SWIDTH 611 0
DWIDTH 11 0
BBX 9 18 1 0
BITMAP
0700
0E00
1C00
0000
3B00
7F00
6E00
0000
E380
E380
E380
E380
E380
E380
E380
E780
FF80
7B80
ENDCHAR
STARTCHAR uni1E7A
ENCODING 7802
SWIDTH 722 0
DWIDTH 14 0
BBX 12 20 1 0
BITMAP
0D80
0D80
0000
0F80
0F80
0000
E070
E070
E070
E070
E070
E070
E070
E070
E070
E070
E070
70E0
7FE0
1F80
ENDCHAR
STARTCHAR uni1E7B
ENCODING 7803
SWIDTH 611 0
DWIDTH 11 0
BBX 9 16 1 0
BITMAP
3600
3600
0000
3E00
3E00
0000
E380
E380
E380
E380
E380
E380
E380
E780
FF80
7B80
ENDCHAR
STARTCHAR uni1E7C
ENCODING 7804
SWIDTH 667 0
DWIDTH 13 0
BBX 13 18 0 0
BITMAP
0EC0
1FC0
1B80
0000
E038
E038
7070
7070
3060
38E0
38E0
1DC0
1DC0
0D80
0F80
0F80
0700
0700
ENDCHAR
STARTCHAR uni1E7D
ENCODING 7805
SWIDTH 556 0
DWIDTH 9 0
BBX 9 14 0 0
BITMAP
3B00
7F00
6E00
0000
E380
E380
E380
7700
7700
7700
3E00
3E00
1C00
1C00
ENDCHAR
STARTCHAR uni1E7E
ENCODING 7806
SWIDTH 667 0
DWIDTH 13 0
BBX 13 17 0 -3
BITMAP
E038
E038
7070
7070
3060
38E0
38E0
1DC0
1DC0
0D80
0F80
0F80
0700
0700
0000
0300
0300
ENDCHAR
STARTCHAR uni1E7F
ENCODING 7807
SWIDTH 556 0
DWIDTH 9 0
BBX 9 13 0 -3
BITMAP
E380
E380
E380
7700
7700
7700
3E00
3E00
1C00
1C00
0000
0C00
0C00
ENDCHAR
STARTCHAR Wgrave
ENCODING 7808
SWIDTH 944 0
DWIDTH 17 0
BBX 15 18 1 0
BITMAP
0E00
0700
0380
0000
E38E
E38E
E38E
E38E
739C
739C
739C
76DC
36D8
36D8
3EF8
1C70
1C70
1C70
ENDCHAR
STARTCHAR wgrave
ENCODING 7809
SWIDTH 778 0
DWIDTH 15 0
BBX 15 14 0 0
BITMAP
0E00
0700
0380
0000
E38E
E38E
E38E
739C
77DC
76DC
3EF8
3C78
1C70
1C70
ENDCHAR
STARTCHAR Wacute
ENCODING 7810
SWIDTH 944 0
DWIDTH 17 0
BBX 15 18 1 0
BITMAP
00E0
01C0
0380
0000
E38E
E38E
E38E
E38E
739C
739C
739C
76DC
36D8
36D8
3EF8
1C70
1C70
1C70
ENDCHAR
STARTCHAR wacute
ENCODING 7811
SWIDTH 778 0
DWIDTH 15 0
BBX 15 14 0 0
BITMAP
00E0
01C0
0380
0000
E38E
E38E
E38E
739C
77DC
76DC
3EF8
3C78
1C70
1C70
ENDCHAR
STARTCHAR Wdieresis
ENCODING 7812
SWIDTH 944 0
DWIDTH 17 0
BBX 15 17 1 0
BITMAP
06C0
06C0
0000
E38E
E38E
E38E
E38E
739C
739C
739C
76DC
36D8
36D8
3EF8
1C70
1C70
1C70
ENDCHAR
STARTCHAR wdieresis
ENCODING 7813
SWIDTH 778 0
DWIDTH 15 0
BBX 15 13 0 0
BITMAP
06C0
06C0
0000
E38E
E38E
E38E
739C
77DC
76DC
3EF8
3C78
1C70
1C70
ENDCHAR
STARTCHAR uni1E86
ENCODING 7814
SWIDTH 944 0
DWIDTH 17 0
BBX 15 17 1 0
BITMAP
0180
0180
0000
E38E
E38E
E38E
E38E
739C
739C
739C
76DC
36D8
36D8
3EF8
1C70
1C70
1C70
ENDCHAR
STARTCHAR uni1E87
ENCODING 7815
SWIDTH 778 0
DWIDTH 15 0
BBX 15 13 0 0
BITMAP
0180
0180
0000
E38E
E38E
E38E
739C
77DC
76DC
3EF8
3C78
1C70
1C70
ENDCHAR
STARTCHAR uni1E88
ENCODING 7816
SWIDTH 944 0
DWIDTH 17 0
BBX 15 17 1 -3
BITMAP
E38E
E38E
E38E
E38E
739C
739C
739C
76DC
36D8
36D8
3EF8
1C70
1C70
1C70
0000
0180
0180
ENDCHAR
STARTCHAR uni1E89
ENCODING 7817
SWIDTH 778 0
DWIDTH 15 0
BBX 15 13 0 -3
BITMAP
E38E
E38E
E38E
739C
77DC
76DC
3EF8
3C78
1C70
1C70
0000
0180
0180
ENDCHAR
STARTCHAR uni1E8A
ENCODING 7818
SWIDTH 667 0
DWIDTH 12 0
BBX 12 17 0 0
BITMAP
0600
0600
0000
E070
E070
70E0
79E0
1980
1F80
0F00
1F80
1980
39C0
70E0
70E0
E070
E070
ENDCHAR
STARTCHAR uni1E8B
ENCODING 7819
SWIDTH 556 0
DWIDTH 11 0
BBX 9 13 1 0
BITMAP
0C00
0C00
0000
E380
E380
7700
3E00
1C00
3E00
7700
7700
E380
E380
ENDCHAR
STARTCHAR uni1E8C
ENCODING 7820
SWIDTH 667 0
DWIDTH 12 0
BBX 12 17 0 0
BITMAP
0D80
0D80
0000
E070
E070
70E0
79E0
1980
1F80
0F00
1F80
1980
39C0
70E0
70E0
E070
E070
ENDCHAR
STARTCHAR uni1E8D
ENCODING 7821
SWIDTH 556 0
DWIDTH 11 0
BBX 9 13 1 0
BITMAP
3600
3600
0000
E380
E380
7700
3E00
1C00
3E00
7700
7700
E380
E380
ENDCHAR
STARTCHAR uni1E8E
ENCODING 7822
SWIDTH 667 0
DWIDTH 13 0
BBX 13 17 0 0
BITMAP
0300
0300
0000
E038
E038
7070
38E0
38E0
1DC0
1DC0
0F80
0700
0700
0700
0700
0700
0700
ENDCHAR
STARTCHAR uni1E8F
ENCODING 7823
SWIDTH 556 0
DWIDTH 11 0
BBX 9 17 1 -4
BITMAP
0C00
0C00
0000
E380
E380
E380
7700
7700
7700
3E00
3E00
1C00
1C00
1C00
1800
7800
7000
ENDCHAR
STARTCHAR uni1E90
ENCODING 7824
SWIDTH 611 0
DWIDTH 12 0
BBX 10 18 1 0
BITMAP
0E00
1F00
3B80
0000
FFC0
FFC0
01C0
0380
0700
0700
0E00
1C00
3800
3800
7000
E000
FFC0
FFC0
ENDCHAR
STARTCHAR uni1E91
ENCODING 7825
SWIDTH 500 0
DWIDTH 10 0
BBX 8 14 1 0
BITMAP
1C
3E
77
00
FF
FF
07
0E
1C
38
70
E0
FF
FF
ENDCHAR
STARTCHAR uni1E92
ENCODING 7826
SWIDTH 611 0
DWIDTH 12 0
BBX 10 17 1 -3
BITMAP
FFC0
FFC0
01C0
0380
0700
0700
0E00
1C00
3800
3800
7000
E000
FFC0
FFC0
0000
0C00
0C00
ENDCHAR
STARTCHAR uni1E93
ENCODING 7827
SWIDTH 500 0
DWIDTH 10 0
BBX 8 13 1 -3
BITMAP
FF
FF
07
0E
1C
38
70
E0
FF
FF
00
18
18
ENDCHAR
STARTCHAR uni1E94
ENCODING 7828
SWIDTH 611 0
DWIDTH 12 0
BBX 10 17 1 -3
BITMAP
FFC0
FFC0
01C0
0380
0700
0700
0E00
1C00
3800
3800
7000
E000
FFC0
FFC0
0000
3E00
3E00
ENDCHAR
STARTCHAR uni1E95
ENCODING 7829
SWIDTH 500 0
DWIDTH 10 0
BBX 8 13 1 -3
BITMAP
FF
FF
07
0E
1C
38
70
E0
FF
FF
00
7C
7C
ENDCHAR
STARTCHAR uni1E96
ENCODING 7830
SWIDTH 611 0
DWIDTH 11 0
BBX 9 17 1 -3
BITMAP
E000
E000
E000
E000
EF00
FF80
F380
E380
E380
E380
E380
E380
E380
E380
0000
3E00
3E00
ENDCHAR
STARTCHAR uni1E97
ENCODING 7831
SWIDTH 333 0
DWIDTH 6 0
BBX 6 16 0 0
BITMAP
D8
D8
00
70
70
70
FC
FC
70
70
70
70
70
70
7C
3C
ENDCHAR
STARTCHAR uni1E98
ENCODING 7832
SWIDTH 778 0
DWIDTH 15 0
BBX 15 15 0 0
BITMAP
03C0
0660
0660
03C0
0000
E38E
E38E
E38E
739C
77DC
76DC
3EF8
3C78
1C70
1C70
ENDCHAR
STARTCHAR uni1E99
ENCODING 7833
SWIDTH 556 0
DWIDTH 11 0
BBX 9 19 1 -4
BITMAP
1E00
3300
3300
1E00
0000
E380
E380
E380
7700
7700
7700
3E00
3E00
1C00
1C00
1C00
1800
7800
7000
ENDCHAR
STARTCHAR uni1EA0
ENCODING 7840
SWIDTH 722 0
DWIDTH 14 0
BBX 12 17 1 -3
BITMAP
0F00
0F00
1F80
1980
1980
39C0
39C0
30C0
70E0
7FE0
7FE0
E070
E070
E070
0000
0600
0600
ENDCHAR
STARTCHAR uni1EA1
ENCODING 7841
SWIDTH 556 0
DWIDTH 11 0
BBX 10 13 1 -3
BITMAP
3E00
7F00
6380
0780
3F80
7B80
E380
E780
FB80
7BC0
0000
0C00
0C00
ENDCHAR
STARTCHAR uni1EA4
ENCODING 7844
SWIDTH 722 0
DWIDTH 14 0
BBX 12 22 1 0
BITMAP
0380
0700
0E00
0000
0700
0F80
1DC0
0000
0F00
0F00
1F80
1980
1980
39C0
39C0
30C0
70E0
7FE0
7FE0
E070
E070
E070
ENDCHAR
STARTCHAR uni1EA5
ENCODING 7845
SWIDTH 556 0
DWIDTH 11 0
BBX 10 18 1 0
BITMAP
0700
0E00
1C00
0000
1C00
3E00
7700
0000
3E00
7F00
7380
0780
3F80
7B80
E380
E780
FB80
7BC0
ENDCHAR
STARTCHAR uni1EA6
ENCODING 7846
SWIDTH 722 0
DWIDTH 14 0
BBX 12 22 1 0
BITMAP
1C00
0E00
0700
0000
0700
0F80
1DC0
0000
0F00
0F00
1F80
1980
1980
39C0
39C0
30C0
70E0
7FE0
7FE0
E070
E070
E070
ENDCHAR
STARTCHAR uni1EA7
ENCODING 7847
SWIDTH 556 0
DWIDTH 11 0
BBX 10 18 1 0
BITMAP
3800
1C00
0E00
0000
1C00
3E00
7700
0000
3E00
7F00
7380
0780
3F80
7B80
E380
E780
FB80
7BC0
ENDCHAR
STARTCHAR uni1EAA
ENCODING 7850
SWIDTH 722 0
DWIDTH 14 0
BBX 12 22 1 0
BITMAP
0EC0
1FC0
1B80
0000
0700
0F80
1DC0
0000
0F00
0F00
1F80
1980
1980
39C0
39C0
30C0
70E0
7FE0
7FE0
E070
E070
E070
ENDCHAR
STARTCHAR uni1EAB
ENCODING 7851
SWIDTH 556 0
DWIDTH 11 0
BBX 10 18 1 0
BITMAP
3B00
7F00
6E00
0000
1C00
3E00
7700
0000
3E00
7F00
7380
0780
3F80
7B80
E380
E780
FB80
7BC0
ENDCHAR
STARTCHAR uni1EAC
ENCODING 7852
SWIDTH 722 0
DWIDTH 14 0
BBX 12 21 1 -3
BITMAP
0700
0F80
1DC0
0000
0F00
0F00
1F80
1980
1980
39C0
39C0
30C0
70E0
7FE0
7FE0
E070
E070
E070
0000
0600
0600
ENDCHAR
STARTCHAR uni1EAD
ENCODING 7853
SWIDTH 556 0
DWIDTH 11 0
BBX 10 17 1 -3
BITMAP
0E00
1F00
3B80
0000
3E00
7F00
6380
0780
3F80
7B80
E380
E780
FB80
7BC0
0000
0C00
0C00
ENDCHAR
STARTCHAR uni1EAE
ENCODING 7854
SWIDTH 722 0
DWIDTH 14 0
BBX 12 22 1 0
BITMAP
0380
0700
0E00
0000
18C0
1DC0
0F80
0000
0F00
0F00
1F80
1980
1980
39C0
39C0
30C0
70E0
7FE0
7FE0
E070
E070
E070
ENDCHAR
STARTCHAR uni1EAF
ENCODING 7855
SWIDTH 556 0
DWIDTH 11 0
BBX 10 18 1 0
BITMAP
0700
0E00
1C00
0000
6300
7700
3E00
0000
3E00
7F00
6380
0780
3F80
7B80
E380
E780
FB80
7BC0
ENDCHAR
STARTCHAR uni1EB0
ENCODING 7856
SWIDTH 722 0
DWIDTH 14 0
BBX 12 22 1 0
BITMAP
1C00
0E00
0700
0000
18C0
1DC0
0F80
0000
0F00
0F00
1F80
1980
1980
39C0
39C0
30C0
70E0
7FE0
7FE0
E070
E070
E070
ENDCHAR
STARTCHAR uni1EB1
ENCODING 7857
SWIDTH 556 0
DWIDTH 11 0
BBX 10 18 1 0
BITMAP
3800
1C00
0E00
0000
6300
7700
3E00
0000
3E00
7F00
6380
0780
3F80
7B80
E380
E780
FB80
7BC0
ENDCHAR
STARTCHAR uni1EB4
ENCODING 7860
SWIDTH 722 0
DWIDTH 14 0
BBX 12 22 1 0
BITMAP
0EC0
1FC0
1B80
0000
18C0
1DC0
0F80
0000
0F00
0F00
1F80
1980
1980
39C0
39C0
30C0
70E0
7FE0
7FE0
E070
E070
E070
ENDCHAR
STARTCHAR uni1EB5
ENCODING 7861
SWIDTH 556 0
DWIDTH 11 0
BBX 10 18 1 0
BITMAP
3B00
7F00
6E00
0000
6300
7700
3E00
0000
3E00
7F00
6380
0780
3F80
7B80
E380
E780
FB80
7BC0
ENDCHAR
STARTCHAR uni1EB6
ENCODING 7862
SWIDTH 722 0
DWIDTH 14 0
BBX 12 21 1 -3
BITMAP
18C0
1DC0
0F80
0000
0F00
0F00
1F80
1980
1980
39C0
39C0
30C0
70E0
7FE0
7FE0
E070
E070
E070
0000
0600
0600
ENDCHAR
STARTCHAR uni1EB7
ENCODING 7863
SWIDTH 556 0
DWIDTH 11 0
BBX 10 17 1 -3
BITMAP
3180
3B80
1F00
0000
3E00
7F00
6380
0780
3F80
7B80
E380
E780
FB80
7BC0
0000
0C00
0C00
ENDCHAR
STARTCHAR uni1EB8
ENCODING 7864
SWIDTH 667 0
DWIDTH 13 0
BBX 10 17 2 -3
BITMAP
FFC0
FFC0
E000
E000
E000
E000
FF80
FF80
E000
E000
E000
E000
FFC0
FFC0
0000
1800
1800
ENDCHAR
STARTCHAR uni1EB9
ENCODING 7865
SWIDTH 556 0
DWIDTH 11 0
BBX 9 13 1 -3
BITMAP
1E00
7F00
7380
E180
FF80
FF80
E000
7380
7F80
1E00
0000
0C00
0C00
ENDCHAR
STARTCHAR uni1EBC
ENCODING 7868
SWIDTH 667 0
DWIDTH 13 0
BBX 10 18 2 0
BITMAP
3B00
7F00
6E00
0000
FFC0
FFC0
E000
E000
E000
E000
FF80
FF80
E000
E000
E000
E000
FFC0
FFC0
ENDCHAR
STARTCHAR uni1EBD
ENCODING 7869
SWIDTH 556 0
DWIDTH 11 0
BBX 9 14 1 0
BITMAP
3B00
7F00
6E00
0000
1E00
7F00
7380
E180
FF80
FF80
E000
7380
7F80
1E00
ENDCHAR
STARTCHAR uni1EBE
ENCODING 7870
SWIDTH 667 0
DWIDTH 13 0
BBX 10 22 2 0
BITMAP
0700
0E00
1C00
0000
0E00
1F00
3B80
0000
FFC0
FFC0
E000
E000
E000
E000
FF80
FF80
E000
E000
E000
E000
FFC0
FFC0
ENDCHAR
STARTCHAR uni1EBF
ENCODING 7871
SWIDTH 556 0
DWIDTH 11 0
BBX 9 18 1 0
BITMAP
0700
0E00
1C00
0000
1C00
3E00
7700
0000
1E00
7F00
7380
E180
FF80
FF80
E000
7380
7F80
1E00
ENDCHAR
STARTCHAR uni1EC0
ENCODING 7872
SWIDTH 667 0
DWIDTH 13 0
BBX 10 22 2 0
BITMAP
3800
1C00
0E00
0000
0E00
1F00
3B80
0000
FFC0
FFC0
E000
E000
E000
E000
FF80
FF80
E000
E000
E000
E000
FFC0
FFC0
ENDCHAR
STARTCHAR uni1EC1
ENCODING 7873
SWIDTH 556 0
DWIDTH 11 0
BBX 9 18 1 0
BITMAP
7000
3800
1C00
0000
1C00
3E00
7700
0000
1E00
7F00
7380
E180
FF80
FF80
E000
7380
7F80
1E00
ENDCHAR
STARTCHAR uni1EC4
ENCODING 7876
SWIDTH 667 0
DWIDTH 13 0
BBX 10 22 2 0
BITMAP
1D80
3F80
3700
0000
0E00
1F00
3B80
0000
FFC0
FFC0
E000
E000
E000
E000
FF80
FF80
E000
E000
E000
E000
FFC0
FFC0
ENDCHAR
STARTCHAR uni1EC5
ENCODING 7877
SWIDTH 556 0
DWIDTH 11 0
BBX 9 18 1 0
BITMAP
3B00
7F00
6E00
0000
1C00
3E00
7700
0000
1E00
7F00
7380
E180
FF80
FF80
E000
7380
7F80
1E00
ENDCHAR
STARTCHAR uni1EC6
ENCODING 7878
SWIDTH 667 0
DWIDTH 13 0
BBX 10 21 2 -3
BITMAP
1C00
3E00
7700
0000
FFC0
FFC0
E000
E000
E000
E000
FF80
FF80
E000
E000
E000
E000
FFC0
FFC0
0000
1800
1800
ENDCHAR
STARTCHAR uni1EC7
ENCODING 7879
SWIDTH 556 0
DWIDTH 11 0
BBX 9 17 1 -3
BITMAP
1C00
3E00
7700
0000
1E00
7F00
7380
E180
FF80
FF80
E000
7380
7F80
1E00
0000
0C00
0C00
ENDCHAR
STARTCHAR uni1ECA
ENCODING 7882
SWIDTH 278 0
DWIDTH 5 0
BBX 3 17 1 -3
BITMAP
E0
E0
E0
E0
E0
E0
E0
E0
E0
E0
E0
E0
E0
E0
00
60
60
ENDCHAR
STARTCHAR uni1ECB
ENCODING 7883
SWIDTH 278 0
DWIDTH 5 0
BBX 3 17 1 -3
BITMAP
E0
E0
E0
00
E0
E0
E0
E0
E0
E0
E0
E0
E0
E0
00
60
60
ENDCHAR
STARTCHAR uni1ECC
ENCODING 7884
SWIDTH 778 0
DWIDTH 15 0
BBX 13 17 1 -3
BITMAP
0F80
3FE0
78F0
7070
F078
E038
E038
E038
E038
F078
7070
78F0
3FE0
0F80
0000
0300
0300
ENDCHAR
STARTCHAR uni1ECD
ENCODING 7885
SWIDTH 611 0
DWIDTH 12 0
BBX 10 13 1 -3
BITMAP
1E00
7F80
7380
E1C0
E1C0
E1C0
E1C0
7380
7F80
1E00
0000
0C00
0C00
ENDCHAR
STARTCHAR uni1ED0
ENCODING 7888
SWIDTH 778 0
DWIDTH 15 0
BBX 13 22 1 0
BITMAP
01C0
0380
0700
0000
0700
0F80
1DC0
0000
0F80
3FE0
78F0
7070
F078
E038
E038
E038
E038
F078
7070
78F0
3FE0
0F80
ENDCHAR
STARTCHAR uni1ED1
ENCODING 7889
SWIDTH 611 0
DWIDTH 12 0
BBX 10 18 1 0
BITMAP
0700
0E00
1C00
0000
1C00
3E00
7700
0000
1E00
7F80
7380
E1C0
E1C0
E1C0
E1C0
7380
7F80
1E00
ENDCHAR
STARTCHAR uni1ED2
ENCODING 7890
SWIDTH 778 0
DWIDTH 15 0
BBX 13 22 1 0
BITMAP
1C00
0E00
0700
0000
0700
0F80
1DC0
0000
0F80
3FE0
78F0
7070
F078
E038
E038
E038
E038
F078
7070
78F0
3FE0
0F80
ENDCHAR
STARTCHAR uni1ED3
ENCODING 7891
SWIDTH 611 0
DWIDTH 12 0
BBX 10 18 1 0
BITMAP
3800
1C00
0E00
0000
1C00
3E00
7700
0000
1E00
7F80
7380
E1C0
E1C0
E1C0
E1C0
7380
7F80
1E00
ENDCHAR
STARTCHAR uni1ED6
ENCODING 7894
SWIDTH 778 0
DWIDTH 15 0
BBX 13 22 1 0
BITMAP
0EC0
1FC0
1B80
0000
0700
0F80
1DC0
0000
0F80
3FE0
78F0
7070
F078
E038
E038
E038
E038
F078
7070
78F0
3FE0
0F80
ENDCHAR
STARTCHAR uni1ED7
ENCODING 7895
SWIDTH 611 0
DWIDTH 12 0
BBX 10 18 1 0
BITMAP
3B00
7F00
6E00
0000
1C00
3E00
7700
0000
1E00
7F80
7380
E1C0
E1C0
E1C0
E1C0
7380
7F80
1E00
ENDCHAR
STARTCHAR uni1ED8
ENCODING 7896
SWIDTH 778 0
DWIDTH 15 0
BBX 13 21 1 -3
BITMAP
0700
0F80
1DC0
0000
0F80
3FE0
78F0
7070
F078
E038
E038
E038
E038
F078
7070
78F0
3FE0
0F80
0000
0300
0300
ENDCHAR
STARTCHAR uni1ED9
ENCODING 7897
SWIDTH 611 0
DWIDTH 12 0
BBX 10 17 1 -3
BITMAP
0E00
1F00
3B80
0000
1E00
7F80
7380
E1C0
E1C0
E1C0
E1C0
7380
7F80
1E00
0000
0C00
0C00
ENDCHAR
STARTCHAR uni1EDA
ENCODING 7898
SWIDTH 778 0
DWIDTH 15 0
BBX 15 18 1 0
BITMAP
00E0
01C0
0380
0000
0F8E
3FEE
78F6
7076
F07C
E038
E038
E038
E038
F078
7070
78F0
3FE0
0F80
ENDCHAR
STARTCHAR uni1EDB
ENCODING 7899
SWIDTH 611 0
DWIDTH 12 0
BBX 12 14 1 0
BITMAP
01C0
0380
0700
0000
1E70
7FF0
73B0
E1F0
E1E0
E1C0
E1C0
7380
7F80
1E00
ENDCHAR
STARTCHAR uni1EDC
ENCODING 7900
SWIDTH 778 0
DWIDTH 15 0
BBX 15 18 1 0
BITMAP
0700
0380
01C0
0000
0F8E
3FEE
78F6
7076
F07C
E038
E038
E038
E038
F078
7070
78F0
3FE0
0F80
ENDCHAR
STARTCHAR uni1EDD
ENCODING 7901
SWIDTH 611 0
DWIDTH 12 0
BBX 12 14 1 0
BITMAP
1C00
0E00
0700
0000
1E70
7FF0
73B0
E1F0
E1E0
E1C0
E1C0
7380
7F80
1E00
ENDCHAR
STARTCHAR uni1EE0
ENCODING 7904
SWIDTH 778 0
DWIDTH 15 0
BBX 15 18 1 0
BITMAP
03B0
07F0
06E0
0000
0F8E
3FEE
78F6
7076
F07C
E038
E038
E038
E038
F078
7070
78F0
3FE0
0F80
ENDCHAR
STARTCHAR uni1EE1
ENCODING 7905
SWIDTH 611 0
DWIDTH 12 0
BBX 12 14 1 0
BITMAP
0EC0
1FC0
1B80
0000
1E70
7FF0
73B0
E1F0
E1E0
E1C0
E1C0
7380
7F80
1E00
ENDCHAR
STARTCHAR uni1EE2
ENCODING 7906
SWIDTH 778 0
DWIDTH 15 0
BBX 15 17 1 -3
BITMAP
0F8E
3FEE
78F6
7076
F07C
E038
E038
E038
E038
F078
7070
78F0
3FE0
0F80
0000
0300
0300
ENDCHAR
STARTCHAR uni1EE3
ENCODING 7907
SWIDTH 611 0
DWIDTH 12 0
BBX 12 13 1 -3
BITMAP
1E70
7FF0
73B0
E1F0
E1E0
E1C0
E1C0
7380
7F80
1E00
0000
0C00
0C00
ENDCHAR
STARTCHAR uni1EE4
ENCODING 7908
SWIDTH 722 0
DWIDTH 14 0
BBX 12 17 1 -3
BITMAP
E070
E070
E070
E070
E070
E070
E070
E070
E070
E070
E070
70E0
7FE0
1F80
0000
0600
0600
ENDCHAR
STARTCHAR uni1EE5
ENCODING 7909
SWIDTH 611 0
DWIDTH 11 0
BBX 9 13 1 -3
BITMAP
E380
E380
E380
E380
E380
E380
E380
E780
FF80
7B80
0000
0C00
0C00
ENDCHAR
STARTCHAR uni1EE8
ENCODING 7912
SWIDTH 722 0
DWIDTH 14 0
BBX 14 18 1 0
BITMAP
00E0
01C0
0380
0000
E07C
E07C
E07C
E07C
E078
E070
E070
E070
E070
E070
E070
70E0
7FE0
1F80
ENDCHAR
STARTCHAR uni1EE9
ENCODING 7913
SWIDTH 611 0
DWIDTH 11 0
BBX 11 14 1 0
BITMAP
0380
0700
0E00
0000
E3E0
E3E0
E3E0
E3E0
E3C0
E380
E380
E780
FF80
7B80
ENDCHAR
STARTCHAR uni1EEA
ENCODING 7914
SWIDTH 722 0
DWIDTH 14 0
BBX 14 18 1 0
BITMAP
0E00
0700
0380
0000
E07C
E07C
E07C
E07C
E078
E070
E070
E070
E070
E070
E070
70E0
7FE0
1F80
ENDCHAR
STARTCHAR uni1EEB
ENCODING 7915
SWIDTH 611 0
DWIDTH 11 0
BBX 11 14 1 0
BITMAP
1C00
0E00
0700
0000
E3E0
E3E0
E3E0
E3E0
E3C0
E380
E380
E780
FF80
7B80
ENDCHAR
STARTCHAR uni1EEE
ENCODING 7918
SWIDTH 722 0
DWIDTH 14 0
BBX 14 18 1 0
BITMAP
0760
0FE0
0DC0
0000
E07C
E07C
E07C
E07C
E078
E070
E070
E070
E070
E070
E070
70E0
7FE0
1F80
ENDCHAR
STARTCHAR uni1EEF
ENCODING 7919
SWIDTH 611 0
DWIDTH 11 0
BBX 11 14 1 0
BITMAP
0EC0
1FC0
1B80
0000
E3E0
E3E0
E3E0
E3E0
E3C0
E380
E380
E780
FF80
7B80
ENDCHAR
STARTCHAR uni1EF0
ENCODING 7920
SWIDTH 722 0
DWIDTH 14 0
BBX 14 17 1 -3
BITMAP
E07C
E07C
E07C
E07C
E078
E070
E070
E070
E070
E070
E070
70E0
7FE0
1F80
0000
0600
0600
ENDCHAR
STARTCHAR uni1EF1
ENCODING 7921
SWIDTH 611 0
DWIDTH 11 0
BBX 11 13 1 -3
BITMAP
E3E0
E3E0
E3E0
E3E0
E3C0
E380
E380
E780
FF80
7B80
0000
0C00
0C00
ENDCHAR
STARTCHAR Ygrave
ENCODING 7922
SWIDTH 667 0
DWIDTH 13 0
BBX 13 18 0 0
BITMAP
1C00
0E00
0700
0000
E038
E038
7070
38E0
38E0
1DC0
1DC0
0F80
0700
0700
0700
0700
0700
0700
ENDCHAR
STARTCHAR ygrave
ENCODING 7923
SWIDTH 556 0
DWIDTH 11 0
BBX 9 18 1 -4
BITMAP
7000
3800
1C00
0000
E380
E380
E380
7700
7700
7700
3E00
3E00
1C00
1C00
1C00
1800
7800
7000
ENDCHAR
STARTCHAR uni1EF4
ENCODING 7924
SWIDTH 667 0
DWIDTH 13 0
BBX 13 17 0 -3
BITMAP
E038
E038
7070
38E0
38E0
1DC0
1DC0
0F80
0700
0700
0700
0700
0700
0700
0000
0300
0300
ENDCHAR
STARTCHAR uni1EF5
ENCODING 7925
SWIDTH 556 0
DWIDTH 11 0
BBX 9 17 1 -7
BITMAP
E380
E380
E380
7700
7700
7700
3E00
3E00
1C00
1C00
1C00
1800
7800
7000
0000
1800
1800
ENDCHAR
STARTCHAR uni1EF8
ENCODING 7928
SWIDTH 667 0
DWIDTH 13 0
BBX 13 18 0 0
BITMAP
0EC0
1FC0
1B80
0000
E038
E038
7070
38E0
38E0
1DC0
1DC0
0F80
0700
0700
0700
0700
0700
0700
ENDCHAR
STARTCHAR uni1EF9
ENCODING 7929
SWIDTH 556 0
DWIDTH 11 0
BBX 9 18 1 -4
BITMAP
3B00
7F00
6E00
0000
E380
E380
E380
7700
7700
7700
3E00
3E00
1C00
1C00
1C00
1800
7800
7000
ENDCHAR
STARTCHAR uni2000
ENCODING 8192
SWIDTH 500 0
DWIDTH 10 0
BBX 1 1 0 0
BITMAP
00
ENDCHAR
STARTCHAR uni2001
ENCODING 8193
SWIDTH 1000 0
DWIDTH 19 0
BBX 1 1 0 0
BITMAP
00
ENDCHAR
STARTCHAR uni2002
ENCODING 8194
SWIDTH 500 0
DWIDTH 10 0
BBX 1 1 0 0
BITMAP
00
ENDCHAR
STARTCHAR uni2003
ENCODING 8195
SWIDTH 1000 0
DWIDTH 19 0
BBX 1 1 0 0
BITMAP
00
ENDCHAR
STARTCHAR uni2004
ENCODING 8196
SWIDTH 333 0
DWIDTH 6 0
BBX 1 1 0 0
BITMAP
00
ENDCHAR
STARTCHAR uni2005
ENCODING 8197
SWIDTH 250 0
DWIDTH 5 0
BBX 1 1 0 0
BITMAP
00
ENDCHAR
STARTCHAR uni2006
ENCODING 8198
SWIDTH 167 0
DWIDTH 3 0
BBX 1 1 0 0
BITMAP
00
ENDCHAR
STARTCHAR uni2007
ENCODING 8199
SWIDTH 556 0
DWIDTH 10 0
BBX 1 1 0 0
BITMAP
00
ENDCHAR
STARTCHAR uni2008
ENCODING 8200
SWIDTH 278 0
DWIDTH 5 0
BBX 1 1 0 0
BITMAP
00
ENDCHAR
STARTCHAR uni2009
ENCODING 8201
SWIDTH 200 0
DWIDTH 4 0
BBX 1 1 0 0
BITMAP
00
ENDCHAR
STARTCHAR uni200A
ENCODING 8202
SWIDTH 100 0
DWIDTH 2 0
BBX 1 1 0 0
BITMAP
00
ENDCHAR
STARTCHAR uni200B
ENCODING 8203
SWIDTH 0 0
DWIDTH 0 0
BBX 1 1 0 0
BITMAP
00
ENDCHAR
STARTCHAR uni2010
ENCODING 8208
SWIDTH 333 0
DWIDTH 6 0
BBX 5 3 0 4
BITMAP
F8
F8
F8
ENDCHAR
STARTCHAR uni2011
ENCODING 8209
SWIDTH 333 0
DWIDTH 6 0
BBX 5 3 0 4
BITMAP
F8
F8
F8
ENDCHAR
STARTCHAR figuredash
ENCODING 8210
SWIDTH 556 0
DWIDTH 10 0
BBX 10 2 0 4
BITMAP
FFC0
FFC0
ENDCHAR
STARTCHAR endash
ENCODING 8211
SWIDTH 556 0
DWIDTH 10 0
BBX 10 2 0 4
BITMAP
FFC0
FFC0
ENDCHAR
STARTCHAR emdash
ENCODING 8212
SWIDTH 1000 0
DWIDTH 18 0
BBX 18 2 0 4
BITMAP
FFFFC0
FFFFC0
ENDCHAR
STARTCHAR afii00208
ENCODING 8213
SWIDTH 1000 0
DWIDTH 18 0
BBX 18 2 0 4
BITMAP
FFFFC0
FFFFC0
ENDCHAR
STARTCHAR quoteleft
ENCODING 8216
SWIDTH 278 0
DWIDTH 5 0
BBX 3 5 1 9
BITMAP
60
C0
C0
E0
E0
ENDCHAR
STARTCHAR quoteright
ENCODING 8217
SWIDTH 278 0
DWIDTH 5 0
BBX 3 5 1 9
BITMAP
E0
E0
60
60
C0
ENDCHAR
STARTCHAR quotesinglbase
ENCODING 8218
SWIDTH 278 0
DWIDTH 5 0
BBX 3 5 1 -3
BITMAP
E0
E0
60
60
C0
ENDCHAR
STARTCHAR quotereversed
ENCODING 8219
SWIDTH 278 0
DWIDTH 5 0
BBX 3 5 1 9
BITMAP
E0
E0
C0
C0
60
ENDCHAR
STARTCHAR quotedblleft
ENCODING 8220
SWIDTH 500 0
DWIDTH 9 0
BBX 7 5 1 9
BITMAP
66
CC
CC
EE
EE
ENDCHAR
STARTCHAR quotedblright
ENCODING 8221
SWIDTH 500 0
DWIDTH 9 0
BBX 7 5 1 9
BITMAP
EE
EE
66
66
CC
ENDCHAR
STARTCHAR quotedblbase
ENCODING 8222
SWIDTH 500 0
DWIDTH 9 0
BBX 7 5 1 -3
BITMAP
EE
EE
66
66
CC
ENDCHAR
STARTCHAR uni201F
ENCODING 8223
SWIDTH 500 0
DWIDTH 9 0
BBX 7 5 1 9
BITMAP
EE
EE
CC
CC
66
ENDCHAR
STARTCHAR dagger
ENCODING 8224
SWIDTH 556 0
DWIDTH 10 0
BBX 9 18 0 -4
BITMAP
1C00
1C00
1C00
1C00
FF80
FF80
1C00
1C00
1C00
1C00
1C00
1C00
1C00
1C00
1C00
1C00
1C00
1C00
ENDCHAR
STARTCHAR daggerdbl
ENCODING 8225
SWIDTH 556 0
DWIDTH 10 0
BBX 9 18 0 -4
BITMAP
1C00
1C00
1C00
1C00
FF80
FF80
1C00
1C00
1C00
1C00
1C00
1C00
FF80
FF80
1C00
1C00
1C00
1C00
ENDCHAR
STARTCHAR bullet
ENCODING 8226
SWIDTH 350 0
DWIDTH 7 0
BBX 5 5 1 4
BITMAP
70
F8
F8
F8
70
ENDCHAR
STARTCHAR ellipsis
ENCODING 8230
SWIDTH 1000 0
DWIDTH 18 0
BBX 14 2 2 0
BITMAP
C30C
C30C
ENDCHAR
STARTCHAR perthousand
ENCODING 8240
SWIDTH 1000 0
DWIDTH 20 0
BBX 19 13 0 0
BITMAP
706000
F86000
D8C000
D88000
F98000
730000
020000
0671C0
0CFBE0
08DB60
18DB60
30FBE0
3071C0
ENDCHAR
STARTCHAR guilsinglleft
ENCODING 8249
SWIDTH 333 0
DWIDTH 7 0
BBX 6 8 0 1
BITMAP
1C
38
70
E0
E0
70
38
1C
ENDCHAR
STARTCHAR guilsinglright
ENCODING 8250
SWIDTH 333 0
DWIDTH 7 0
BBX 6 8 0 1
BITMAP
E0
70
38
1C
1C
38
70
E0
ENDCHAR
STARTCHAR fraction
ENCODING 8260
SWIDTH 167 0
DWIDTH 6 0
BBX 8 13 -1 0
BITMAP
03
03
06
06
0C
0C
18
30
30
60
60
C0
C0
ENDCHAR
STARTCHAR oneinferior
ENCODING 8321
SWIDTH 333 0
DWIDTH 6 0
BBX 4 8 0 -5
BITMAP
30
F0
F0
30
30
30
30
30
ENDCHAR
STARTCHAR twoinferior
ENCODING 8322
SWIDTH 333 0
DWIDTH 6 0
BBX 6 8 0 -5
BITMAP
78
FC
CC
1C
78
E0
FC
FC
ENDCHAR
STARTCHAR threeinferior
ENCODING 8323
SWIDTH 333 0
DWIDTH 6 0
BBX 6 8 0 -5
BITMAP
78
FC
CC
38
3C
CC
FC
78
ENDCHAR
STARTCHAR uni20A5
ENCODING 8357
SWIDTH 889 0
DWIDTH 17 0
BBX 15 14 1 -2
BITMAP
00C0
00C0
EFFC
FFFE
F3CE
E38E
E38E
E38E
E38E
E38E
E78E
E78E
0600
0600
ENDCHAR
STARTCHAR uni20A6
ENCODING 8358
SWIDTH 722 0
DWIDTH 14 0
BBX 12 14 1 0
BITMAP
E070
F070
F070
F870
FFF0
FFF0
EE70
FFF0
FFF0
E370
E1F0
E1F0
E0F0
E070
ENDCHAR
STARTCHAR uni20A9
ENCODING 8361
SWIDTH 944 0
DWIDTH 17 0
BBX 15 14 1 0
BITMAP
E38E
E38E
E38E
E38E
7FFC
7FFC
739C
7FFC
3FF8
36D8
3EF8
1C70
1C70
1C70
ENDCHAR
STARTCHAR Euro
ENCODING 8364
SWIDTH 722 0
DWIDTH 14 0
BBX 14 14 -1 0
BITMAP
03E0
0FF8
1E38
1C1C
FF9C
FF80
3800
FF80
FF80
3C1C
1C1C
1E38
0FF8
03E0
ENDCHAR
STARTCHAR uni20AD
ENCODING 8365
SWIDTH 722 0
DWIDTH 14 0
BBX 13 14 1 0
BITMAP
E0F0
E1E0
E3C0
E780
EF00
FE00
FFF8
FFF8
EF00
E780
E3C0
E1E0
E0F0
E078
ENDCHAR
STARTCHAR uni2103
ENCODING 8451
SWIDTH 1102 0
DWIDTH 21 0
BBX 20 14 0 0
BITMAP
000F80
783FE0
FC78E0
CC7070
CCF070
FCE000
78E000
00E000
00E000
00F070
007070
0078E0
003FE0
000F80
ENDCHAR
STARTCHAR uni2109
ENCODING 8457
SWIDTH 991 0
DWIDTH 19 0
BBX 18 14 0 0
BITMAP
00FFC0
78FFC0
FCE000
CCE000
CCE000
FCE000
78FF80
00FF80
00E000
00E000
00E000
00E000
00E000
00E000
ENDCHAR
STARTCHAR trademark
ENCODING 8482
SWIDTH 1000 0
DWIDTH 17 0
BBX 15 7 1 6
BITMAP
FEC6
10C6
10AA
10AA
10BA
1092
1092
ENDCHAR
STARTCHAR uni212A
ENCODING 8490
SWIDTH 722 0
DWIDTH 14 0
BBX 13 14 1 0
BITMAP
E0F0
E1E0
E3C0
E780
EF00
FE00
FC00
FE00
EF00
E780
E3C0
E1E0
E0F0
E078
ENDCHAR
STARTCHAR uni212B
ENCODING 8491
SWIDTH 722 0
DWIDTH 14 0
BBX 12 18 1 0
BITMAP
0F00
1980
1980
0F00
0F00
0F00
1F80
1980
1980
39C0
39C0
30C0
70E0
7FE0
7FE0
E070
E070
E070
ENDCHAR
STARTCHAR uni2132
ENCODING 8498
SWIDTH 611 0
DWIDTH 12 0
BBX 10 14 1 0
BITMAP
01C0
01C0
01C0
01C0
01C0
01C0
7FC0
7FC0
01C0
01C0
01C0
01C0
FFC0
FFC0
ENDCHAR
STARTCHAR universal
ENCODING 8704
SWIDTH 722 0
DWIDTH 14 0
BBX 12 14 1 0
BITMAP
E070
E070
E070
7FE0
7FE0
70E0
30C0
39C0
39C0
1980
1980
1F80
0F00
0F00
ENDCHAR
STARTCHAR existential
ENCODING 8707
SWIDTH 667 0
DWIDTH 13 0
BBX 10 14 2 0
BITMAP
FFC0
FFC0
01C0
01C0
01C0
01C0
7FC0
7FC0
01C0
01C0
01C0
01C0
FFC0
FFC0
ENDCHAR
STARTCHAR uni2204
ENCODING 8708
SWIDTH 667 0
DWIDTH 13 0
BBX 10 14 2 0
BITMAP
FFC0
FFC0
03C0
07C0
07C0
07C0
7FC0
7FC0
0DC0
0DC0
1DC0
19C0
FFC0
FFC0
ENDCHAR
STARTCHAR minus
ENCODING 8722
SWIDTH 584 0
DWIDTH 11 0
BBX 9 2 1 4
BITMAP
FF80
FF80
ENDCHAR
STARTCHAR fraction
ENCODING 8725
SWIDTH 167 0
DWIDTH 6 0
BBX 8 13 -1 0
BITMAP
03
03
06
06
0C
0C
18
30
30
60
60
C0
C0
ENDCHAR
STARTCHAR periodcentered
ENCODING 8729
SWIDTH 278 0
DWIDTH 5 0
BBX 2 2 1 6
BITMAP
C0
C0
ENDCHAR
STARTCHAR uni2236
ENCODING 8758
SWIDTH 333 0
DWIDTH 6 0
BBX 3 10 1 0
BITMAP
E0
E0
E0
00
00
00
00
E0
E0
E0
ENDCHAR
STARTCHAR uni2259
ENCODING 8793
SWIDTH 584 0
DWIDTH 11 0
BBX 9 9 1 3
BITMAP
1C00
3E00
7700
0000
FF80
FF80
0000
FF80
FF80
ENDCHAR
STARTCHAR uni225A
ENCODING 8794
SWIDTH 584 0
DWIDTH 11 0
BBX 9 9 1 3
BITMAP
7700
3E00
1C00
0000
FF80
FF80
0000
FF80
FF80
ENDCHAR
STARTCHAR notequal
ENCODING 8800
SWIDTH 584 0
DWIDTH 11 0
BBX 9 14 1 -1
BITMAP
0600
0600
0600
0E00
0C00
FF80
FF80
1C00
FF80
FF80
3800
3000
3000
3000
ENDCHAR
STARTCHAR equivalence
ENCODING 8801
SWIDTH 584 0
DWIDTH 11 0
BBX 9 8 0 1
BITMAP
FF80
FF80
0000
FF80
FF80
0000
FF80
FF80
ENDCHAR
STARTCHAR uni2262
ENCODING 8802
SWIDTH 584 0
DWIDTH 11 0
BBX 9 14 0 -2
BITMAP
0600
0600
0600
FF80
FF80
0C00
FF80
FF80
1800
FF80
FF80
3000
3000
3000
ENDCHAR
STARTCHAR lessequal
ENCODING 8804
SWIDTH 584 0
DWIDTH 11 0
BBX 9 12 1 -3
BITMAP
0380
0F80
3E00
7800
E000
7800
3E00
0F80
0380
0000
FF80
FF80
ENDCHAR
STARTCHAR greaterequal
ENCODING 8805
SWIDTH 584 0
DWIDTH 11 0
BBX 9 12 1 -3
BITMAP
E000
F800
3E00
0F00
0380
0F00
3E00
F800
E000
0000
FF80
FF80
ENDCHAR
STARTCHAR uni226E
ENCODING 8814
SWIDTH 584 0
DWIDTH 11 0
BBX 9 14 1 -2
BITMAP
0600
0600
0600
0F80
0F80
3E00
7C00
FC00
7800
3E00
3F80
3380
3000
3000
ENDCHAR
STARTCHAR uni226F
ENCODING 8815
SWIDTH 584 0
DWIDTH 11 0
BBX 9 14 1 -2
BITMAP
0600
0600
0600
EE00
FC00
3E00
0F00
1F80
1F00
3E00
F800
F000
3000
3000
ENDCHAR
STARTCHAR uni2270
ENCODING 8816
SWIDTH 584 0
DWIDTH 11 0
BBX 9 14 1 -4
BITMAP
0600
0780
0F80
3E00
7C00
EC00
7C00
3E00
1F80
1B80
3800
FF80
FF80
3000
ENDCHAR
STARTCHAR uni2271
ENCODING 8817
SWIDTH 584 0
DWIDTH 11 0
BBX 9 14 1 -4
BITMAP
0600
E600
FE00
3E00
0F00
0F80
0F00
3E00
F800
F800
3800
FF80
FF80
3000
ENDCHAR
STARTCHAR fi
ENCODING -1
SWIDTH 611 0
DWIDTH 12 0
BBX 11 14 0 0
BITMAP
1EE0
3EE0
3800
3800
FEE0
FEE0
38E0
38E0
38E0
38E0
38E0
38E0
38E0
38E0
ENDCHAR
STARTCHAR fl
ENCODING -1
SWIDTH 611 0
DWIDTH 12 0
BBX 11 14 0 0
BITMAP
1EE0
3EE0
38E0
38E0
FEE0
FEE0
38E0
38E0
38E0
38E0
38E0
38E0
38E0
38E0
ENDCHAR
ENDFONT
